<?xml version="1.0" encoding="UTF-8"?>
<svg width="26px" height="26px" viewBox="0 0 26 26" version="1.1" xmlns="http://www.w3.org/2000/svg" xmlns:xlink="http://www.w3.org/1999/xlink">
    <!-- Generator: Sketch 52.5 (67469) - http://www.bohemiancoding.com/sketch -->
    <title>zoom</title>
    <desc>Created with Sketch.</desc>
    <g id="Welcome" stroke="none" stroke-width="1" fill="none" fill-rule="evenodd">
        <g id="Desktop-HD" transform="translate(-444.000000, -868.000000)" fill="#FFFFFF">
            <g id="Group-3" transform="translate(143.000000, 859.000000)">
                <g id="Product">
                    <g id="image">
                        <g id="ae86_rbbk_small1">
                            <g id="zoom" transform="translate(301.000000, 9.000000)">
                                <text id="+" font-family="Lato-Regular, Lato" font-size="12" font-weight="normal">
                                    <tspan x="6" y="13">+</tspan>
                                </text>
                                <path d="M17.2733259,15.0142273 C18.5033281,13.1742503 19.0294726,11.5576283 19.0294726,9.51473631 C19.0294726,4.25967426 14.7697984,0 9.51473631,0 C4.25967426,0 0,4.25967426 0,9.51473631 C0,14.7697984 4.25967426,19.0294726 9.51473631,19.0294726 C11.5120597,19.0294726 13.8603198,18.18321 14.9095465,17.3467313 C15.0954058,17.1310997 22.7385706,24.9099249 22.7385706,24.9099249 C23.1154049,25.2921252 23.7427138,25.2801353 24.1350534,24.8877957 L24.8877957,24.1350534 C25.2822176,23.7406315 25.2920925,23.1096313 24.8902971,22.7059439 C24.8902971,22.7059439 16.8794188,14.6609278 17.2733259,15.0142273 Z M9.51473631,16.1018614 C5.8698604,16.1018614 2.92761117,13.1596122 2.92761117,9.51473631 C2.92761117,5.8698604 5.8698604,2.92761117 9.51473631,2.92761117 C13.1596122,2.92761117 16.1018614,5.8698604 16.1018614,9.51473631 C16.1018614,13.1596122 13.1596122,16.1018614 9.51473631,16.1018614 L9.51473631,16.1018614 Z" id="Shape"></path>
                            </g>
                        </g>
                    </g>
                </g>
            </g>
        </g>
    </g>
</svg>