<svg xmlns="http://www.w3.org/2000/svg" viewBox="0 0 230 317"><polygon class="bag" points="212.3 20.4 203.3 23.5 203.3 36.8 212.3 39.9 212.3 20.4"/><path class="bag" d="M172.1,10.4h7.3a4,4,0,0,0,0-8h-7.3a4,4,0,0,0,0,8Z"/><path class="bag" d="M166.8,7.5a3.7,3.7,0,0,1-.1-1.1V5.5h-9.2L151,16.6h2.5l4.9-8.4a1.6,1.6,0,0,1,1.3-.8Z"/><path class="bag" d="M197.5,36.3v.2h4.3V23.9h-4.3V36.3Z"/><path class="speedbag" d="M132.2,63H222a8,8,0,0,0,8-8V54a8,8,0,0,0-8-8H191.3a10.5,10.5,0,0,0,6-8.1h5.2l10.3,3.6h.6a.9.9,0,0,0,.3-.6V19.5a.9.9,0,0,0-.3-.6h-.6l-10.4,3.5h-5.1a10.7,10.7,0,0,0-10.6-9H157.1L159.7,9h7.6a5.4,5.4,0,0,0,4.8,2.8h7.3a5.4,5.4,0,1,0,0-10.8h-7.3a5.3,5.3,0,0,0-4.9,3.1h-9.7a1.2,1.2,0,0,0-1.2.7l-5.1,8.6h-3.5a10.8,10.8,0,0,0-9.7,6.2V0H0V317H26V18h95V46H44a8,8,0,0,0-8,8v1a8,8,0,0,0,8,8h86.2m73.1-39.5,9-3.1V39.9l-9-3.1Zm-1.5.4V36.5h-4.3V23.9ZM172.1,2.4h7.3a4,4,0,0,1,0,8h-7.3a4,4,0,0,1,0-8Zm13,17.7a.6.6,0,0,1,.6-.6h2.7a.6.6,0,0,1,.6.6v2.7a.6.6,0,0,1-.6.6h-2.7a.6.6,0,0,1-.6-.6Zm-10.7,0a.5.5,0,0,1,.6-.6h2.7a.6.6,0,0,1,.6.6v2.7a.6.6,0,0,1-.6.6H175a.6.6,0,0,1-.6-.6ZM151,16.6l6.5-11.1h9.2v.9a3.7,3.7,0,0,0,.1,1.1h-7.1a1.6,1.6,0,0,0-1.3.8l-4.9,8.4H151Zm-7.1,12a1.9,1.9,0,0,1,1.9-2h21.5a1.9,1.9,0,0,1,1.9,2v8a1.9,1.9,0,0,1-1.9,2H145.8a1.9,1.9,0,0,1-1.9-2ZM138,40.8a10.9,10.9,0,0,0,5.2,5.2H138Z"/><path class="bag" d="M143,106.7c0-.2.1-.3.1-.4a1.9,1.9,0,0,0-.2-.7L141,94.1a1.9,1.9,0,0,0-1.9-1.7h-.7l-5.2-12.3V64.7a2.1,2.1,0,0,0-1-1.7h-2a1.9,1.9,0,0,0-.9,1.6h0V80.1L124,92.4h-.6a2,2,0,0,0-2,1.7L119.5,106a.6.6,0,0,0,0,.6c-8.1,8.6-17.8,21.7-17.8,34.8,0,16.7,13.3,30.3,29.5,30.3s29.5-13.6,29.5-30.3C160.7,128.3,151,115.2,143,106.7Zm-17.5,6.9c-3.7,7.2-8,18-8,28.8,0,8.3,2.1,15.8,5.9,20.6a1.9,1.9,0,0,1-.3,2.8,1.7,1.7,0,0,1-1.2.4,2.4,2.4,0,0,1-1.6-.7c-4.3-5.5-6.8-13.9-6.8-23.1,0-11.6,4.7-23,8.5-30.6a2,2,0,0,1,2.7-.9h0A2.1,2.1,0,0,1,125.5,113.6Zm2.8-21.2,2.9-6.9,2.9,6.9Zm13.8,73.1a2.1,2.1,0,0,1-1.5.7,2,2,0,0,1-1.3-.4,2.1,2.1,0,0,1-.3-2.8c3.8-4.8,6-12.3,6-20.6,0-10.8-4.4-21.6-8.1-28.8a2,2,0,0,1,.9-2.7h0a2,2,0,0,1,2.6.8h0c3.9,7.6,8.5,19,8.5,30.6,0,9.2-2.5,17.6-6.8,23.1Z"/></svg>
