<svg xmlns="http://www.w3.org/2000/svg" viewBox="0 0 1440 189"><path d="M1432.3 134.5h4.3v8h-17.1v-20.9h-6.1v-5.2h-2.8v-38h-5.3v38h-2.8v5.2h-6V97.1l-24.4 14.1V97.1l-24.4 14.1V97.1l-26.9 15.5v31.9h-4.9v-23.4l-18.5-6.8-1.6-38.9h.4v-1h-6.5v1h.4l-1.6 38.4-18.5 7.3v15.2l-13.9 3.4V51l-19.5-7.1-1.3-21.6-1.2 20.7-8.2-3-2.1-36.6-2.1 35.1-18.7-6.8v73.1l-4.7 3v19.9l-6.9 4.1V96.6h5.3l-9.8-5.7v-6.8h-4.6v4.1l-8.6-5.1-22.9 13.5h5.3v34.7h-5.3v-14.4h-2.2v-2h-6.4v2h-2.2v14.4h-5.3V96.6h5.3l-23-13.5-23 13.5h5.3v37l-5.7 5.7v-27l-5.9-2v-43h3.5v-6.1h-5.3V58h-10.7v3.2H1063v6.1h3.5V96l-16-13-16.6 13.5V129l-10.6-6.2V115h-1.5c-.5-1.8-2-3.1-3.8-3.4v-7h-1.5v7c-1.8.3-3.3 1.7-3.8 3.4h-1.5v8.2l-16.5 9.7v20.2h-7.4v-9.4h3.5l-3.8-6.1h-11.3v-10h5.3L957.9 111l-7.9 5.7v-3.5h-5.2v7.3l-9.8 7.2h5.3v5.6l-15.3-3.8v-8.6h3.9l-16.2-27.3v-3.2h1.5v-1.2h-1.5v-1.8h-1.2v1.8H910v1.2h1.5v3.2l-16.2 27.3h3.9v11l-16.9-24.4V68.7H880v-7.9l-4.7-4.4-3-48.5V4.7h1.4v-1h-1.4V2h-1.1v1.7h-1.4v1.1h1.4V8l-3 48.5-4.7 4.4v7.9h-2.3V109l-14 19V99.6h2.8l-2.5-6.1h-15.2v-9.7h2.7l-11.4-19.2v-2.3h1.1v-.8h-1.1v-1.3h-.8v1.3h-1.1v.8h1.1v2.3l-11.4 19.2h2.7v9.7h-15.2l-2.5 6.1h2.8v29.8l-40.5 5.9v3l3.5-.5v24.9H752V143h3.8l-3.8-6h-20l-2.9-2.1v-8h-5.2v4.2l-8.9-6.5-23 16.6h5.3v21.5h-10.4v-2.3c2.1-.3 3.7-2.1 3.7-4.3 0-2.4-1.9-4.3-4.3-4.3s-4.3 1.9-4.3 4.3c0 2.2 1.6 4 3.7 4.3v2.3h-10.3v-21.5h5.3l-8.8-6.4v-8h-5.2v4.2l-8.9-6.5-22.9 16.7h5.3v21.5h-8.7v-2.4h2.6l-3.4-16-3 16h2.6v2.4h-7.7v-21.5h5.3L605 124.5l-7.9 5.7v-3.5h-5.2v7.3l-9.8 7.2h5.3v8.1l-10.5-8.5-11.6 9.4v-19.4h2l-1.8-4.3h-4.1v-2.3h-26.6v2.3h-4.1l-1.8 4.3h2v15.3H525v5.1h-6.4v-33.9h2l-1.8-4.3h-12.3v-5.9h-4.2v3.6h-13.1v2.3H484l-1.8 4.3h2v29.9h-2.9v-3.3h-4.2v3.3h-2.8v-84h-3.8l-2.9-2.8-1.8-29.9-1.6 26.7-2.4-2.3-3.9 3.7-.3-14.6-.5 15.5-3.9 3.7h-4.1v62h-2.7v9.3H441v22h-3.1V85.7h2.5v-4.3h-8V80H430V64h2.4v-2.5h-7.7v-1.8H413v1.8h-7.7V64h2.4v16h-2.4v1.4h-8v4.3h2.5V128l-2.7-11.7H394v9h-5.1v3h-2.2v-3.4h-2.4v9.6h-3.8v22h-2.2V54.2h2.5v-4.3h-8v-1.4h-2.4V17.9h1.1v-2.5H365v-1.8h-2.6V12h-2.6V1.7c0-.4-.3-.7-.7-.7s-.7.3-.7.7v10.2h-2.6v1.6h-2.6v1.8H347v2.5h1.1v30.5h-2.4v1.4h-8V54h2.5v76.1h-6.5v-5.4h-6.4v-7.5h2l-1.8-4.3h-3.3l-1-16.6-1 16.6h-5.6l-1.8-30.2-1.8 30.2h-5.5V85.7h2.5v-4.3h-22.6v-2.3h-16.7v2.3h-3.8v4.3h2.5v60.9h-4V123h-4.2v12.1h-6.6v-94l-14.3-6V19l-41.9 16.5v111.1h-3.7v-10.5h-4.3v-4.7h-3.3v4.7h-3.5V117h3.8l-7-4.1V108h-3.3v2.9l-6.2-3.6-16.5 9.7h3.8v9.8h-15.8V98.9h3.8l-16.5-9.7-16.5 9.7h3.8v38.6l-10.1-14.7v-15.7h-1.4v-4.8l-2.8-2.7-1.8-29.3v-1.9h.8v-.6h-.7v-1h-.6v1h-.8v.6h.8v1.9l-1.8 29.3-2.9 2.7v4.8h-1.4v16.7l-10.7 14.5v7.7H78V64.5h2.5v-6.1h-3.8v-2.3h-5v-1.3h-3.8V49c0-.4-.3-.7-.7-.7-.4 0-.7.3-.7.7v5.7h-3.8V56h-5v2.3h-3.8v6.1h2.5v55h-5V114h-3.8v3.3h-7.4v2.1H33V82.6h2.5v-6.1h-3.8v-2.3h-5v-1.3h-2.6v-5.7c0-.4-.3-.7-.7-.7-.4 0-.7.3-.7.7v5.7h-2.6v1.3h-5v2.3h-3.8v6.1h2.5v49.9H7v-4.2h2.6l-9.6-7v65.3c80.4-2.4 258.7-7 432-6.7 128.3.2 238.7 12.7 340.1 8.1 111.7-5 236 1.9 347.4 0 133.4-2.2 265.9-1 320.5-.4v-58.7l-7.7 5.6zM585.2 151h2.1v11.7h-2.1V151z" fill="#6a4353"/></svg>