<?xml version="1.0" encoding="utf-8"?>
<!-- Generator: Adobe Illustrator 22.0.1, SVG Export Plug-In . SVG Version: 6.00 Build 0)  -->
<svg version="1.1" id="Layer_1" xmlns="http://www.w3.org/2000/svg" xmlns:xlink="http://www.w3.org/1999/xlink" x="0px" y="0px"
	 viewBox="0 0 186.1 177.9" style="enable-background:new 0 0 186.1 177.9;" xml:space="preserve">
<style type="text/css">
	.st0{fill:url(#SVGID_1_);}
	.st1{fill:url(#SVGID_2_);}
	.st2{fill:#FFFFFF;}
</style>
<radialGradient id="SVGID_1_" cx="102.2351" cy="105.0716" r="100.2706" fx="201.7986" fy="93.1849" gradientUnits="userSpaceOnUse">
	<stop  offset="0.1318" style="stop-color:#C42A2C"/>
	<stop  offset="1" style="stop-color:#F15A24"/>
</radialGradient>
<path class="st0" d="M139.4,157.4c-36.2,27.5-87.9,20.4-115.4-15.8C-3.5,105.4,3.6,53.8,39.8,26.3C76-1.2,127.6,5.8,155.1,42
	C182.6,78.3,175.6,129.9,139.4,157.4z"/>
<linearGradient id="SVGID_2_" gradientUnits="userSpaceOnUse" x1="2.9877" y1="89.4709" x2="183.1662" y2="89.4709">
	<stop  offset="0.1318" style="stop-color:#C42A2C"/>
	<stop  offset="1" style="stop-color:#F15A24"/>
</linearGradient>
<path class="st1" d="M171.9,91.6c-0.5-12.9-4.1-25.3-10.1-35.7c-5.5-10.9-13.4-20.3-22.7-27.2c-9.2-6.9-19.7-11.2-29.9-13.1
	c-4.5-0.8-9.8-1.5-15.6-1.6c-5.8-0.1-11.9,0.4-17.9,1.7c-3,0.6-5.9,1.5-8.8,2.5c-1.4,0.6-2.8,1.1-4.1,1.7c-1.3,0.6-2.7,1.2-3.9,1.9
	c-5,2.6-9.2,5.7-12.4,8.8c0.8-0.5,1.6-1,2.3-1.5c0.8-0.5,1.5-1,2.2-1.4c-1,0.7-2,1.6-2.9,2.3c-0.9,0.8-1.7,1.6-2.5,2.3
	c-11.2,8.6-19.6,20.2-24.4,33.2c-4.8,13-5.9,27.4-3,41.3c0.2,1,0.5,2,0.7,2.9c0.3,0.9,0.6,1.8,0.9,2.6c0.3,0.9,0.7,1.7,1,2.6
	c0.2,0.4,0.3,0.9,0.5,1.4c0.2,0.5,0.4,0.9,0.6,1.4c1.5,3.9,3.4,7.7,5.6,11.2c0,0,0-0.1,0-0.2c4.5,7.3,10.2,13.8,17,18.9
	c6.7,5.2,14.5,9.1,22.9,11.6c7.8,2.4,16,3.7,24.2,3.5c0.8,0,1.3,0,1.8,0.1c0.5,0,0.8,0.1,1.2,0.2c0.7,0.1,1.2,0.3,2.2,0.3
	c4.2,0,7.8-0.3,11.6-0.9c3.8-0.6,7.6-1.7,12-3.5c0,0,0.1,0.3,0.2,0.5c1.3-0.6,2.5-1.3,3.5-1.7c-0.8,0.9-2,2.1-3.3,3.1
	c-0.7,0.5-1.3,1-1.9,1.4c-0.6,0.4-1.1,0.8-1.6,1.1c-0.8,0.6-1.2,1.1-0.5,1.1c0.7,0,2.4-0.2,5.5-1.3l0,0c-0.6,0.4-1.2,0.7-1.8,1
	c-0.1,0-0.1,0.1-0.2,0.1c0,0,0,0,0,0c-2.7,1.5-4.4,2.4-6,3.6c1.9-0.6,3.8-1.4,5.7-2.1c-0.3,0.4-0.4,0.7-0.1,0.8
	c-0.1,0.1-0.3,0.2-0.4,0.3c-0.8,0.3-1.6,0.6-1.6,0.6c-0.2,0.2-0.4,0.4-0.5,0.6c-1.2,0.6-2.6,1.3-4,1.9c-1.4,0.6-2.9,1.1-4.1,1.6
	c-2.5,0.9-4.1,1.5-3.2,1.7c0.7,0,2-0.2,3.6-0.7c0.8-0.2,1.8-0.6,2.7-0.9c1-0.3,2-0.7,3.1-1.1c0.3,0,0.6-0.1,0.9-0.1
	c-5.6,2.1,0.4,1.2-3,2.5c-4.7,1.4-9.4,2.6-14.3,3.1c-4.9,0.6-9.7,0.7-14.4,0.5c-4.7-0.2-9.2-0.8-13.7-1.7c-4.5-0.9-8.9-2.2-13.2-3.8
	c-4.4-1.6-8.7-3.6-12.9-6.1c-0.8-0.4-1.5-0.8-2.2-1.3c-4.1-2.5-7.8-5.4-11.2-8.5c-3.4-3.1-6.6-6.5-9.4-10.2c0.5,0.4,0.9,0.8,1.4,1.2
	c-4.7-5.9-8.7-12.3-12-19c-4.2-8.2-6.9-17.3-8.2-26.7c-1.2-9.4-0.8-19.2,1.4-29c2.4-10.2,6.6-19.8,12.2-28.5
	c5.7-8.7,12.9-16.5,21.6-22.9c-7,5.4-13.1,11.7-18.5,18.9c-0.6,0.8-1.2,1.6-1.8,2.4c-0.6,0.8-1.1,1.7-1.7,2.5
	c-0.6,0.8-1.1,1.7-1.6,2.5c-0.5,0.8-1,1.7-1.5,2.5c0.5-0.9,1.1-1.7,1.6-2.6l0.8-1.3l0.8-1.2c0.6-0.8,1.1-1.6,1.7-2.5
	c0.6-0.8,1.2-1.6,1.7-2.4c4.7-6.2,10.4-11.6,16.2-16.2c5.8-4.6,11.7-8.4,16.9-11.6c1.3-0.4,1.3-0.3,2.5-0.7c4.1-1.7,8.4-3,12.5-4.1
	c4.2-1.1,8.2-1.8,12-2.6c0-0.2,3.8-0.5,2.5-0.7c0.5,0,1-0.1,1.5-0.1c0.5,0,1-0.1,1.5-0.1c1,0,2-0.1,3-0.1c2.1,0,4.2,0,6.2,0.1
	c2.1,0.1,4.2,0.3,6.2,0.5c1,0.1,2,0.3,3,0.4c0.5,0.1,1,0.1,1.5,0.2c0.5,0.1,1,0.2,1.5,0.2c0.8,0.1,1.7,0.3,2.5,0.4l2.5,0.4
	c1.7,0.3,3.3,0.6,5,0.9c27,7.6,50.7,28.3,61.2,57.8c2.6,7.3,4.2,16.2,4.5,24.1c-1.1-11.5-4.3-23.1-9.7-33.7
	c-4.6-10.6-11.4-19.7-18.3-25.5c-0.8-0.7-1.6-1.4-2.4-2.1c-0.8-0.7-1.6-1.3-2.5-2c9.7,8.2,17.6,18.3,23.2,29.5
	c2.8,6.2,4.8,12.9,6.2,19.6c0-0.1-0.1-0.3-0.1-0.4c-1.3-5.2-3.1-10.3-5.3-15.2c-1.9-4.7-4.1-9.2-6.6-13.3c-2.6-4-5.3-7.6-8.2-10.6
	c-0.7-0.8-1.5-1.5-2.2-2.1c-1.5-1.5-3.1-2.8-4.6-4.2c5.7,5.3,10.7,11.2,14.9,17.6c2.6,4,4.9,8.2,6.8,12.6c1.1,2.8,2,5.7,2.9,8.6
	c-0.1-0.3-0.3-0.6-0.4-0.9c-0.5-1.2-1.8-3.4-2.9-4.8c-1.2-1.3-2.1-1.8-1.6,0c1.7,4.6,3.3,9.8,4.4,15c1.1,5.2,1.6,10.5,1.8,15.2
	c0.1,4.7-0.1,8.8-0.4,11.6c-0.1,1.4-0.3,2.6-0.4,3.4c-0.1,0.4-0.1,0.7-0.1,0.9c0,0.2-0.1,0.3-0.1,0.3c-0.1,0.1-0.1-0.3-0.1-1.1
	c0-0.8,0.2-2,0.2-3.5c0.1-1.5,0.2-3.2,0.2-5.1c0.1-1.9,0-3.9-0.1-5.9c-0.3-8.1-2.1-15.9-2.1-15.2c0.1,0.9,0.3,1.8,0.4,2.8l0.3,2.8
	c-0.4-1.7-0.7-3.4-1.2-4.9c-0.2-0.9-0.4-1.9-0.6-2.9c-0.2-1-0.5-2-0.7-3c-0.5-2-1.1-3.7-1.6-4.9c-1.8-4-3.7-8.2-5.9-12.4
	c-2.2-4.2-4.9-8.4-8.1-12.1c-1-1.2-2.1-2.3-3.3-3.5c-1.2-1.2-2.4-2.3-3.7-3.5c-2.7-2.3-5.5-4.5-8.5-6.5c-0.1,0.1-0.8-0.4-1.4-0.8
	c-0.6-0.4-1.1-0.7-0.8-0.2c-1.3-1-2.7-2.1-4.1-3c-0.7-0.5-1.4-0.9-2.1-1.4c-0.7-0.4-1.4-0.8-2.1-1.2c-1.4-0.8-2.7-1.3-3.8-1.8
	c-1.1-0.5-2.1-0.7-2.9-0.8c-0.1-0.1-0.3-0.1-0.4-0.2c-0.4-0.2-1-0.4-1.7-0.7c-5-2.3-9.5-3.6-13.9-4.3c-4.4-0.8-8.8-1.1-13.7-1.1
	c-3.4-0.2-6.8-0.1-10.3,0.1c1.1-0.1,2.6,0,4-0.1c1.4,0.1,2.9,0.1,4,0c0.8,0,1.5,0,2.3,0c4.3,0.2,8.6,0.7,12.7,1.4
	c4.1,0.8,8.2,1.9,12.2,3.3c0.7,0.2,1.8,0.4,2.8,0.7c0.6,0.3,1.1,0.5,1.6,0.8c0.2,0,0.3,0,0.5,0c7.6,3,15.2,8.2,20.6,12.7
	c2.5,2.1,4.9,4.5,7.1,7c2.2,2.6,4.3,5.3,6.1,8.2c3.7,5.8,6.7,12,8.8,18.4c-2.4-6.3-5.6-12.1-9.4-17.3c1.2,1.6,2.2,3.3,3.2,5
	c0.9,1.7,2,3.4,2.8,5.1c1.8,3.4,3.2,6.9,4.4,10.4c0.3,1.1,0.6,2.2,0.9,3.3c0,0,0.4,1.7,0.8,3.5c0.3,1.8,0.6,3.5,0.6,3.5
	c-0.2-1.1-0.3-2.2-0.5-3.3c-0.2-1.1-0.4-2.2-0.6-3.2c1.3,4.3,2.1,8.6,2.7,12.9c0.7,6,0.7,12.1,0,18.2c-0.7,6.1-2.1,12.2-4.2,18
	c-4.1,11.7-11.2,22.4-20.1,30.9c0.2-0.5,0.4-1,0.7-1.6c4.1-4.2,7.8-8.9,10.7-13.7c2.9-4.8,5.1-9.7,6.4-14.3
	c-1.3,3.1-2.4,5.7-3.7,8.2c-0.6,1.3-1.3,2.5-2,3.8c-0.4,0.6-0.7,1.3-1.1,1.9c-0.4,0.6-0.9,1.3-1.3,2c-0.1-0.1-0.2-0.1,0-0.6
	c-2.1,3.6-5,7.5-8.2,11c0.7-1.4,1.5-3,2.2-4.6c0.6-1,1.5-2.2,2.4-3.5c0.5-0.7,1-1.3,1.4-2.1c0.5-0.7,0.9-1.5,1.4-2.2
	c2-3.2,3.8-6.5,5.4-9.9c0.8-1.7,1.5-3.4,2.2-5.1c0.6-1.7,1.3-3.4,1.8-5.2c2.2-7,3.3-14.3,3.4-21.7c0.2-6.6-0.2-13.2-1.6-19.7
	c-1.4-6.4-3.5-12.7-6.3-18.5c3.1,5.7,5.3,11.5,6.9,17.4C170.6,79.8,171.6,85.7,171.9,91.6z M99.3,168.9c-0.6,0.1-1.1,0.2-1.7,0.3
	c-0.6,0.1-1.2,0.2-1.8,0.3c0.2,0,0.4,0.1,0.5,0.1C97.5,169.5,98.5,169.2,99.3,168.9z M73.3,167.6c3.7,1,8.2,1.6,12.9,1.7
	c4.7,0.1,9.7-0.3,14.5-1.1c0-0.1,0.1-0.1,0.1-0.1c-4,0.5-8.6,0.9-13.2,0.9C82.8,168.9,77.9,168.5,73.3,167.6z M47.5,152.5
	c0,0,0.1,0.1,0.1,0.1c0,0,0-0.1,0-0.1C47.6,152.6,47.6,152.5,47.5,152.5z M33.7,35.3c-3,3.5-6.1,7.5-9,12.1
	c-2.9,4.5-5.6,9.6-7.5,14.9c-1.3,3.2-1.7,6.5-2.8,10.9c-0.6,2.7-0.9,5-1,7c-0.1,1-0.2,2-0.2,3.1c-0.1,1-0.1,2.1-0.1,3.2
	c0,0,0-0.2,0.1-0.5c0.1-0.3,0.1-0.7,0.2-1.1c0.2-0.8,0.4-1.6,0.4-1.6C13.1,87,13.2,90,13.5,93c0.2,1.5,0.3,3,0.5,4.6
	c0.1,0.8,0.2,1.6,0.2,2.5c0.1,0.9,0.2,1.8,0.3,2.7c0.2,0,0.7,1,0.9,2.1c1.1,5.3,2.3,10.6,4.3,14.5c2.1,5,4.7,9.7,7.4,13.2
	c0.6,0.9,2.3,2.4,3.7,4l2.5,3l2.7,2.9c0-0.1-0.1-0.2-0.1-0.3c-0.7-0.8-1.4-1.6-2.1-2.4c-0.7-0.8-1.4-1.6-2.1-2.4
	c-4.3-4.8-8.4-11.2-11-17.1c-6.4-14.8-8.1-30.6-5.4-45.8c0.6-3.2,1.2-6.6,2.2-9.7c1.4-4.8,3.8-9.9,6.4-14.4
	c2.6-4.5,5.4-8.4,7.2-11.3c0.3-0.5,0.9-1.1,1.4-1.8C32.9,36.5,33.4,35.8,33.7,35.3z M39,20.8c-5.2,4.1-10.2,9-14.6,14.2
	c-4.4,5.3-8.1,10.9-11.1,16.3c-1.2,2.2-2.7,5.5-4,9.3c-1.3,3.8-2.4,8-3,11.8c-0.6,3.8-0.8,7.2-0.6,9.3c0.2,2.1,0.5,3,1.2,1.8
	c-0.7-3-0.4-9.6,1.8-17.4c2.1-7.7,6.3-16.4,11.4-23.6c2.6-3.6,5.3-6.9,7.9-9.7c1.3-1.4,2.6-2.7,3.8-3.8c1.2-1.1,2.3-2.2,3.4-3.1
	c1-0.9,1.9-1.7,2.6-2.4c0.7-0.7,1.3-1.2,1.7-1.7C40.3,21,40.2,20.6,39,20.8z M139.5,16.3c-4.7-2.8-9.5-5.1-15.1-7.5
	C129.6,10.9,134.7,13.4,139.5,16.3z M87.1,8.7C89,8.4,91,8.4,93,8.3c2,0,4,0,6,0.1c2,0.1,4,0.4,6.1,0.6c2,0.3,4,0.7,6,1.1
	c4,0.9,8,2.1,11.8,3.6c1.9,0.7,3.8,1.6,5.6,2.4c1.8,0.9,3.6,1.8,5.4,2.8c5.4,3,10.5,7,15.1,11.4c4.5,4.4,8.5,9.1,12.1,13.4l0.4-0.3
	c0,0-0.2-0.2-0.4-0.5c-0.2-0.2-0.4-0.5-0.4-0.5c-0.6-0.9-1.2-1.8-1.8-2.6c-0.5-0.8-1.1-1.6-1.7-2.4c-1.1-1.6-2.2-3-3.4-4.4
	c0.2,0.1,0.3,0.3,0.5,0.5c-0.3-0.3-0.5-0.5-0.8-0.8c-1.6-1.9-3.4-3.7-5.7-5.6c-1-0.9-2.2-1.7-3.3-2.5l-1.1-0.9l-1.2-0.9l-2.4-1.7
	c-1.7-1.1-3.3-2.2-5-3.1c-3.4-2-6.9-3.7-10.5-5.2c-3.6-1.5-7.2-2.6-10.8-3.5c-3.6-0.8-7.2-1.4-10.7-1.7c-4.3-0.4-8.3-0.4-12.2-0.1
	c-2,0.1-3.9,0.4-5.9,0.6c-2,0.3-4,0.6-6.1,1c0.6-0.1,1.3-0.1,2-0.2C81.4,9,82.1,9,82.9,9c0.7-0.1,1.5-0.1,2.2-0.2
	C85.8,8.8,86.5,8.7,87.1,8.7z"/>
<title>jlax-logo</title>
<path class="st2" d="M40.7,126.7c0.4-1,1.1-1.8,1.9-2.5h0.2c0.7-1.1,1.4-2.2,2.3-3.2c0.5-0.7,0.5-1.1,0.2-1.5s1.3-3,2.8-3.9
	c0-0.1,0.1-0.2,0.2-0.2c0.4-2.5,2.6-4.2,3.6-6.4s2.4-4.4,3.4-6.8s2.4-4.4,3.5-7c0.2-0.4,0.8-1.3,0.6-1.7c-0.1-1.4,0.3-2.8,1.1-4
	c3.2-8.1,6.8-16.2,9.1-24.7c1.5-4.7,2.8-9.6,4.3-14.5c0.2-0.9,0.4-1.9,0.4-2.8c0-0.6-0.4-0.8-0.9-0.4c-0.5,0.2-1,0.6-1.4,1
	c-2.6,2.4-5.4,4.5-7.9,7.1s-5.6,5.3-8.3,7.8c-1.3,1.3-2.5,2.7-3.6,4.1c-1.2,1.6-3.3,2.2-5.2,1.5c-3.2-1-6-2.8-8.3-5.3
	c-0.6-0.7-0.6-1.1,0.3-1.7c1.6-1.4,3.1-3,4.4-4.7c5.1-5.5,10.6-10.7,16.4-15.4c6.4-5.3,13-10.4,19.4-15.7c0.9-0.9,2.2-1.3,3.4-0.9
	c1.9,0.5,3.6,0.2,5.5,0.9c1.7,0.7,3.3,1.6,4.7,2.8c1.3,1.2,1.7,2.7,0.7,4c-2.4,3-2.8,6.8-4.1,10.2c-1.5,5.3-2.7,10.7-4.5,16
	s-4.2,11.9-6.6,17.7c-2.4,6.7-5.2,13.3-8.3,19.8c-0.8,1.9-1.7,3.8-2.5,5.5c-2.1,4.5-4.5,8.7-6.6,13.2c-3.4,6.6-7.3,13-11.1,19.6
	c-2.7,4.6-5.7,9.1-8.9,13.4c-1.5,1.7-2.6,3.8-4.3,5.3c-3,3-7.1,4.6-11.3,4.5c-6.2,0-11-2.3-15.5-6.2l-1.1-0.8
	c-2.1-1.1-2.8-3.2-3-5.3c-0.3-3.6,0.3-7.3,1.7-10.7c0.5-1.5,1.1-3,1.7-4.5c2.4-5.9,5.4-11.6,8.8-17c3.5-5.5,7.4-10.8,11.7-15.8
	c3-3.4,6.2-6.1,9.6-9.3c0.5-0.5,1.2-0.8,1.9-0.9c1.3,0,7.2,0.5,8.1,0.9c0.6,0.3,1.2,0.6,1.7,1c1.7,1.5,1.7,3.2-0.2,4.3
	c-1.7,1-3.3,2.1-4.7,3.4c-3.5,3.4-6.8,7.2-9.8,11.1c-3,4-6.2,8.1-8.5,12.5c-3.4,5.7-6.1,11.8-8.1,18.1c-0.6,2-1,4.1-1.1,6.2v2.6
	c0.4,2.7,1.1,3,3.4,1.7s3.2-1.9,4.7-3h0.6l0.7-0.6v-0.9l0.2,0.2c0.8-1.9,2.1-3.5,3.8-4.7c1.3-0.7,2.2-2,2.6-3.4v-0.2
	c0.3,0.2,0.8,0.1,0.9-0.3c0,0,0-0.1,0.1-0.1c0.8-1.2,1.5-2.5,2-3.8c0.3-1.3,1.2-2.5,2.3-3.2h-0.2c0.2,0,0.2,0,0.2-0.3s0-0.4-0.2-0.4
	h0.2c0.1-0.7,0.5-1.4,1.1-1.7v-0.2L40.7,126.7z"/>
<path class="st2" d="M93.6,92.3c0,0.2,0.1,0.4,0.2,0.5c0.7,0.2,0.7,0.7,0.4,1.4c0,0.6-0.2,1.1-0.5,1.6c0,1.2,0.5,1.7,1.4,1.5l8.3-1
	h0.7c2.1-0.6,4.2-1,6.4-1c2.2-0.6,4.6-1,6.9-1c1.4,0,2.8-0.7,4.2-0.9c2.3-0.2,4.6-0.6,6.9-1.2c1.1-0.3,2.2-0.9,3.1-1.6
	c0.5-0.4,1.1-0.4,1.6,0.1c0.1,0.1,0.1,0.1,0.1,0.2c0.2,0.4,0.4,0.7,0.7,1c1.6,2.4,1.7,5.2,3.1,7.6s-0.1,2.9,0.3,4.3
	s-0.2,0.4-0.2,0.7c-0.6,0.5-1.4,0.9-2.2,1.1c-3.3,0.5-6.6,0.8-9.9,0.9c-2,0-3.9,0.4-5.7,1.3l0.2-0.3c-1.9-0.5-3.5,0.2-5.2,0.6
	s-6.1,0.6-9.2,1.2s-8.3,1.4-12.6,2c-0.7,0.1-1.4,0.4-1.9,0.9c-1,1.1-2.4,1.3-3.8,1.5c-1.1,0-2.2,0-3.3,0.2c-1.9,0.4-3.3-0.8-4.2-2.3
	s-1.2-1.6-1.9-2.6c-0.5-0.6-0.8-1.3-0.6-2.1c0-1.4-0.2-2.9-0.4-4.3c-0.2-1,0.2-2,1.1-2.5c1.1-0.8,1.9-1.9,2.2-3.2
	c0-1,0.5-1.9,1.2-2.6c0.5-0.2,0.5-1.1,0.8-1.6c0.1-1.1,0.5-2.2,1.2-3c0.8-1,0.3-1.9,0.8-2.9c-1.8-1-0.2-1.6,0.3-2.3
	c0.4-0.6,0.7-1.4,0.8-2.1c0.1-0.8,0.5-1.5,1-2.1c0-0.5,0.5-1.2,0.5-1.4c-0.6-2.6,1.3-4.5,1.8-6.8c1-0.7,1-1.9,0.8-3.1
	c0.2-0.9,0.4-1.7,0.8-2.5l0.8-2.1c0-1,0.3-2,0.8-2.9c0.7-0.9,0.7-2.3,1.2-3.5s1.1-3.9,1.8-5.8s1.1-3.8,1.8-5.4
	c0.3-0.3,0.3-0.8,0.1-1.2c-0.3-0.5-0.3-0.5,0-0.9c1.2-1.9,2-3.9,2.3-6.1h-0.2c0.9-0.7,0.7-1.9,1.2-2.8s1.2-2.1,0.6-3.1
	c-0.6-1,0.3-2.8,1.3-3.9v0.7c0-0.3,0-0.5,0.3-0.5s0.7-0.4,0.7-1.2s-0.2-0.9,0.3-1.4s1.5-2.1,0.8-3.5c0.1-1.1,0.7-2.2,1.5-3
	c0.7-0.7,1.2-1.4,0.5-2.4s0.1-3.3,2-3.9l0,0c-0.4-0.5-0.6-1.2-0.4-1.9c0.5-1.5,0.8-3.1,0.8-4.7c0.1-0.7,0.5-1,1.5-0.7
	c3.3,0.8,6.8,1.6,9.1,4.5c1.1,0.5,0.9,1.4,0.8,2.4c0,1.6-0.3,3.2-1,4.7c-1,1.6-1.8,3.5-2.1,5.4c0,0.6-0.2,1.2-0.5,1.8
	c-0.7,1.2-1.7,2.3-1.5,3.8s-0.5,0.7-0.7,1.1s-1,1.9-1.3,2.8c-0.6,3.1-2,5.9-2.8,8.7s-2.6,7.7-3.9,11.7l-2.3,5.6
	c-0.5,1.6-1,3.2-1.3,4.9c-0.1,0.8-0.4,1.7-0.8,2.4c0,0.2-0.2,0.4-0.2,0.7c-0.5,2.1-1.3,4.2-1.8,6.5c-0.1,0.4,0,0.8,0.2,1.2
	c0.2,0.3,0,0.5-0.3,0.7s-1,1.9-1.3,3c-0.3,1.7-0.8,3.4-1.5,5c-0.9,2.3-2,5-1.7,6 M96.8,47.8L96.8,47.8z"/>
<path class="st2" d="M156.3,62.8l-0.3-0.9c-0.2-0.3-0.3-0.6-0.3-0.9c0-0.2-0.1-0.3-0.2-0.4c-0.2-0.1-0.4-0.1-0.6,0l-0.8,0.6
	c-1.2,1.1-2.4,2.3-3.5,3.5c-1.1,1.2-2.2,2.4-3.2,3.7l-2.7,3.6l-2.8,3.6l-0.5,0.7c-0.1,0.2-0.4,0.4-0.7,0.4c-0.2-0.1-0.3-0.4-0.3-0.6
	c0.1-0.3,0.1-0.5,0-0.8c-0.1-0.5-0.2-1-0.2-1.5v-1.5c0-0.3,0-0.5-0.1-0.8c0-0.3,0-0.5-0.1-0.8c0-0.5-0.1-1-0.2-1.5
	c-0.2-0.4-0.2-1,0-1.4c0.2-0.5,0.5-1,0.9-1.3c0.4-0.3,0.8-0.7,1.1-1.1c0.8-0.9,1.5-1.9,2.1-2.9c0.6-1,1-2.2,1.2-3.4
	c0.1-0.4,0.1-0.7,0.1-1.1c-0.1-0.4-0.3-0.8-0.6-1.1c-0.2-0.2-0.3-0.4-0.3-0.6c-0.1-0.2-0.1-0.5-0.2-0.7c-0.2-0.3-0.4-0.5-0.7-0.6
	c-0.3,0-0.6,0.2-0.8,0.4l-2,1.8c-0.7,0.6-1.4,1.2-2,1.9l-0.2,0.2c-0.1,0-0.2,0.1-0.2,0.2c-0.2,0.2-0.6,0.3-0.8,0.1c0,0,0,0-0.1-0.1
	c-0.1-0.3-0.4-0.5-0.6-0.8l-1.3-1c-0.5-0.2-1.1-0.2-1.6-0.1h-2.7l-0.8,0.3c-0.3,0.2-0.5,0.5-0.5,0.9c0.1,0.1,0.1,0.3,0.2,0.4
	l0.2,0.5c0.3,0.9,0.5,1.8,0.8,2.7l0.6,2.7c0.1,0.5,0.1,0.9,0,1.4c-0.4,0.7-0.8,1.3-1.3,1.9c-0.4,0.4-0.7,0.9-0.8,1.5
	c-0.7,1.2-1.3,2.5-1.8,3.2s-2.4,2.4-3.8,4.5l-1.8,2.6l0,0c0.2-1.3,0.5-2.6,0.9-3.8c0.5-1.2,0.9-2.5,1.2-3.8c0.1-0.4,0.2-0.8,0.4-1.2
	c0.1-0.4,0.3-0.8,0.4-1.2s0.5-1.7,0.7-2.4c0.2-0.8,0.4-1.6,0.7-2.4l0.3-1.2l0.3-1.1c0.2-0.6,0.1-1.3-0.2-1.8c-0.4-0.5-1-0.7-1.6-0.7
	h-0.9c-0.4,0.1-0.7,0.3-1,0.6l-0.8,0.7c-0.2,0.2-0.4,0.1-0.6-0.1c-0.8-0.7-1.7-1.3-2.8-1.5c-1.1-0.2-2.2-0.1-3.2,0.2l-0.4,0.2
	l-0.4,0.2c-3.6,1.2-6.6,3.9-8.1,7.4l-2.2,5.1c-0.7,1.6-1.3,3.4-1.9,5.1c-0.3,0.9-0.5,1.8-0.5,2.7c-0.1,0.9-0.1,1.7,0,2.6
	c0.2,1.4,0.8,2.6,1.9,3.5c0.4,0.5,1,0.9,1.6,1.1l1.7,0.7c1.1,0.4,2.3,0.3,3.3-0.3l1.2-0.7c0.3-0.3,0.7-0.5,1.1-0.7
	c0.2-0.1,0.3-0.2,0.4-0.4l0.4-0.4l0.8-1.3l0.6-1.5l0.4-0.2l0.3,0.2c0.6,1.1,1.5,2,2.7,2.5h0.3l0.3,0.2c0.7,0.2,1.5,0.2,2.2,0
	c0.7-0.2,1.3-0.5,1.9-0.9l1.4-1.2l1.2-1.3l2.7-2.9c0.8-1,1.7-1.9,2.6-2.9l0.4-0.6c0.2-0.2,0.4-0.3,0.6-0.3c0.3,0,0.5,0.3,0.4,0.6
	c0,0,0,0,0,0c-0.1,0.2-0.1,0.5-0.1,0.7v1c0.1,0.8,0.3,1.6,0.7,2.3c0.5,0.8,1.1,1.4,1.9,1.8c1.5,0.9,3.3,1.2,5.1,1
	c2-0.2,3.8-1.3,4.9-3c0.7-1.1,1.5-2.2,2.3-3.2l2.5-3.3l1.4-2.1L153,70l1.5-2.2c0.6-0.7,1-1.5,1.3-2.4c0.2-0.4,0.4-0.9,0.5-1.4
	C156.3,63.6,156.3,63.2,156.3,62.8z M118.4,70.8l-1.2,2.8v0.5l-0.2,0.4c-0.7,0.9-1.2,1.9-1.7,2.9c-0.4,1.1-0.9,2.1-1.5,3.1
	c-1.1,2-2.6,3.6-4.5,4.8h-0.5c-0.1-0.1-0.2-0.2-0.2-0.4c0-0.8,0.1-1.5,0.1-2.3c0.1-0.8,0.3-1.5,0.6-2.2l0.9-2.3
	c0.3-0.7,0.5-1.5,0.8-2.4c0.1-0.4,0.2-0.8,0.4-1.2l0.6-1.2c0.4-1.3,0.9-2.6,1.5-3.9l1.9-3.8c0.2-0.3,0.4-0.6,0.5-1
	c0.2-0.4,0.5-0.7,0.9-0.9l0.7-0.3c0.2,0,0.4,0.1,0.6,0.3c0.4,0.4,0.8,0.8,1.1,1.3c0.3,0.5,0.5,1.1,0.6,1.7v0.7l-0.3,0.5
	C119.1,68.9,118.7,69.8,118.4,70.8z"/>
<path class="st2" d="M75.8,147.7c-0.2-0.3-0.7-0.4-0.5-0.8c0.5-0.5,1.1-0.9,1.8-1.1c0.7-0.1,1.4-0.4,1.9-0.9l-0.3-0.6
	c1.1-0.4,2.3-0.8,3.5-1.1c0.9-0.7,1.8-1.3,2.8-1.8l1.4-0.9l1.3-0.8c-0.1-0.2-0.2-0.4-0.1-0.6l1.4-0.6l0.8-0.3l0.9-0.2l0.5-0.3
	c0.1-0.2,0.1-0.3,0-0.5l1.6-0.4c6.5-3.4,13.4-6,20.6-7.7c1.6-0.7,3.2-1.3,4.9-1.7h4l4,0.3c-0.4-2.4,5.5-3.4,4.4-5.7
	c1.6,0.1,4.1,0.3,4.2-0.4s1.9-4.1,6.4-5c1.8-0.1,4.4,0.9,5.2,0.6c0.1,0,0.2,0,0.2-0.2c0-0.1,0-0.2-0.1-0.2c-0.1-0.2-0.5-0.4-0.8-0.6
	s-1.1-0.8-0.5-1.1c-6.4-0.9-12.9-1.3-19.4-1.2c-6.4,0.1-12.9,0.5-19.6,1.2c-2.3,0.9-11,2-20.5,5.3c-2.4,0.8-4.7,1.8-7,3
	c-1.2,0.5-2.1,1.1-3.1,1.6l-2.9,1.6c-1.8,1.1-3.5,2.1-4.9,3.1L66,131l-1.5,1.1l-0.6,0.5c-3.7,2.7-7.6,6.8-9.4,10.4
	c-0.8,1.7-1.4,3.6-1.9,5.4c0.7-0.4,1.5-0.8,2.3-1.1c-1.2,1.3-2.2,2.8-2.2,3.6c-1.2,3.8,1,2.5,3,2.2s1.3,1.2,2.7,0.3l-1.5,2.2
	c0.3,0.2,0.6-0.5,1-1.1s0.8-1.2,1-0.6s-1,1.8-1.5,2.7s2.1-2.8,2.7-2.2s-2.5,1.8-1.6,2.5s0.7-0.7,0.9-1.1c-0.6,1.4-0.9,2.6-0.6,3.1
	s0.8,0.6,1.9-0.2c-0.3,0.4-0.6,0.8-0.9,1.2c-0.3,0.3-0.5,0.7-0.6,1.1l0,0v-0.2l0.3-0.3l0.4-0.7l-0.6,1.3h0.5l0.7-0.9
	c-0.1,0.3-0.3,0.5-0.5,0.8l1.3-0.2c1.1-0.7,2.6-1.2,2.9-1.7c1.7-2.1,3.4-4,5.3-5.9l3-2.8L75.8,147.7z"/>
</svg>
