<svg id="f84c9f35-50d5-462b-9b23-75cae278ce67" data-name="Layer 1" xmlns="http://www.w3.org/2000/svg" viewBox="0 0 707.1 486.5"><title>ae86</title><path d="M645.9,174.4c7.6,3.5,8.6,11.2,9.3,17.7,2.1,19.7,12,35.5,23.1,51.1,4.4,6.2,6.8,13.7,10.9,20.3a117.7,117.7,0,0,0,6.9,9.6c9.6,12.4,6.5,25.8,4.3,39.2-1.7,10.4-5.8,20.5-4.4,31.4a8.4,8.4,0,0,1-.5,3.9c-7.2,13.7-5.7,27.5-1.4,41.6.6,2,.3,4.3.3,6.4,0,11.8.3,23.7,0,35.5-.4,16.2-6,30.2-17.9,41.5a14.7,14.7,0,0,1-9.3,3.9c-20.4,1.6-40.8,1.3-61.2,1.3-4.3,0-8.9-.9-9.1,5.8a3.5,3.5,0,0,1-3.5,2.9c-1.8-.2-2.4-2-2.3-3.7.4-4.8-2.6-5.2-6.2-5h-477c-3.1,0-6.5,1.1-9.3-1.4,3.6-3.6,8.1-2.4,12.3-2.4,54-.1,108,0,162,0H592.8c7.7-1,15.5-1.9,23.3-1.5,15,.1,30.1-.3,45.1.2,8.4.2,14.2-3.5,17.9-10.1,7.4-13.2,13.2-26.9,10.2-42.8-1-5.2-.3-10.7-.3-16.1s.2-12.3-2.4-18.2c-1.4-3.2-.9-6.9-.7-10.4.9-15.2,3.3-30.2,5.2-45.3,1.2-9.4,4.2-18.7,5.3-28.3s.7-15.9-4.1-23.7c-12.3-20.1-25-40-35.7-61.1-4.6-8.9-5.7-18.5-7.5-27.8C648.2,183.9,643.6,179.9,645.9,174.4Z" style="fill:#e1e1e1"/><path d="M707,143.7c.1,7.5.1,15,.1,22.5-1.4,1.4-2.9,2.5-5,2.5a488.3,488.3,0,0,1-54.1.2,5.4,5.4,0,0,1-2.8-.1c-5.9-5.3-12.4-20.6-11.6-27.5,1.9-1.2,4.2-1.8,6.1-.9,7.9,3.7,15.5,1.8,23.5,0s15.8,2.3,23.9-.1c3.4-1,6.7-1.5,9.1-4.5s3.8-5.1,7.2-3.7,2.1,4.5,2.3,7.1A7.9,7.9,0,0,0,707,143.7Z" style="fill:#1c1c1c"/><path d="M707,143.7c-4.4-.9-2.4-4.5-2.9-7.1s.2-2.8-1.4-3.4-2.7.6-3.3,1.6c-6.8,11.6-17.8,8.8-27.9,7.8-4.6-.4-8.8-.6-13.3,1.3s-10.7,2.9-15.8-.6c-2.9-2.1-6.2-.9-9.3-1.2-1.5.7-2.3-.8-3.8-.9,4.3,8.9,7.3,18.3,11.1,27.3,1,2.4,2.6,4.7.8,7.5a3.2,3.2,0,0,1-2.2.7c-5.9-3.8-7.4-10.2-9.2-16.2-.9-2.8-1.5-5.7-2.9-8.3-4.1-8.9-7.6-18-11.8-26.9a9.3,9.3,0,0,1-1-4.6c.2-1.7.8-3.2,2.7-3.4a2.8,2.8,0,0,1,3,2.2c1.1,3.4,3.8,5.8,5.6,8.8s5.9,4.9,8.6.3c4.2-7.4,9.6-7.9,17.6-6.4,15.8,3.1,32,2.3,48,3.7,2.6.3,5.4-.5,7.5,1.8Z" style="fill:#323232"/><path d="M594.5,476l-16.9.2H98.6c-23.4,1.7-45.1-5.4-65.9-14.9-12.9-5.9-20-16.5-19.6-31.5s1.8-28.5,1-42.6c-1.2-22.8-.8-45.6-1.1-68.5-.1-6.4.1-12.9.1-19.3.1-3,.1-6,3.1-7.8a5.4,5.4,0,0,1,1.6,2.6c-.7,25.8-1.3,51.5.4,77.3,1.2,16.5,1.6,33.2-.9,49.8s5,31.3,22.1,37.4c13.9,4.9,27.5,10.8,42.4,12.5a129.1,129.1,0,0,0,15.2.9q242,.1,483.8.2C585.4,472.5,591.1,470.1,594.5,476Z" style="fill:#a6a6a6"/><path d="M646,168.2l57.8-.5a2.7,2.7,0,0,1,3.2.2c-1,3.4-4,2-6.1,2.1-15.5.6-31.1.8-46.7.3-3.1-.1-8.1-2.4-8.3,4.1,5.1,9.8,6,20.8,8.8,31.2s7.2,17.3,11.9,25.3c9.8,16.9,20.3,33.5,30.6,50.1a12,12,0,0,1,2,6.8c-.3,12.9-1,25.7-5.4,38a7.5,7.5,0,0,0-.7,2.3c-.5,17.4-7.1,34.6-4.3,51.8,2.4,14.7,2.2,29.3,3.1,44,1.1,17.1-4.1,32.8-16,45.7a15.1,15.1,0,0,1-11.4,5.3l-47.6-.2a1.8,1.8,0,0,1,.6-2.5c8-3.1,16.3-1.2,24.4-1.6s13.3-.1,19.9.1a35.3,35.3,0,0,0,4.6,0l1.9-.6a12.9,12.9,0,0,0,3.3-1.7l1.3-1.2,1.3-1.2.6-.6L676,464l.6-.6a17,17,0,0,0,1.5-2.2l.9-1.4a11.3,11.3,0,0,0,1.2-2.1,6.4,6.4,0,0,1,.8-1.4,20,20,0,0,0,1-2.1l.7-1.5a14.7,14.7,0,0,0,1-2.2l.6-1.6a20.2,20.2,0,0,0,.6-3.4,12.1,12.1,0,0,1,.5-1.8,26.2,26.2,0,0,0,.9-3.8,15.5,15.5,0,0,1,.6-3.1,18.8,18.8,0,0,0,.5-3.3c.1-4.1,0-8.2,0-12.3s.4-8.5-.9-12.6c-1.4-5.9,0-12-1.3-17.9l-.6-2.6a69.8,69.8,0,0,1-.5-7.9c0-5.4-.4-10.8.5-16.1s.8-10.4,1.6-15.5a11.9,11.9,0,0,1,.5-2.6c0-15.4,4.8-30,6.6-45.2.9-7.4,1.6-15.1-3.5-21.6a22.5,22.5,0,0,1-1.2-2.1c-.7-1.4-1.4-2.8-2.2-4.1-4.9-10.1-13.5-17.9-17.6-28.6a14.6,14.6,0,0,1-.7-1.9l-.8-2a17.4,17.4,0,0,0-1.4-2.7l-1.1-1.8c-1.3-1.9-2.1-4.1-3.4-6.2.7,3.1,2.2,5.9,3.4,8.8l.6,2.2c.3,2.6.3,5.2,1.2,7.7a18.9,18.9,0,0,1,.5,2.3c.5,3.8-.2,7.7,1,11.5l.6,2.3a98.4,98.4,0,0,1,.4,10.9,28.8,28.8,0,0,1-.7,5.9,14.7,14.7,0,0,1-1,2.2l-.8.9a13.7,13.7,0,0,1-1.8,1.6,9.2,9.2,0,0,1-2.3.9c-1.8.1-3.3-.3-4.3-1.9a4.3,4.3,0,0,1,.5-4.7c3.5-2.1,2.5-5.5,2.8-8.6,2-21.3-5.9-40.6-12.2-60.2-2.4-7.5-6.8-14.6-6.2-23,1.1-2.6,2.7-1.1,4.3-.4-.5-3.4-2.6-5.9-4-8.7a8,8,0,0,1-.7-3.4c.2-1.9-.3-3.9.6-5.8A4.1,4.1,0,0,1,646,168.2Z" style="fill:#656565"/><path d="M134.4,55.2c1.1-8.7,7.4-14.5,12-21.2,8.2-11.9,18.5-17.8,34.5-18.8,17.6-1.1,35.3-1.4,52.9-2.5,27.3-1.6,54.8-.1,82.1-1.8a629.4,629.4,0,0,1,64.4-.9c40.7,1.5,81.5,2.8,122.3,3.1,9.2.1,18.5,2.3,27.8,3.5,1.5.2,3.4,1.1,4.6.6,6.6-2.6,11.5-.1,15.8,4.7.8.8,1.7,2.4,3.2.7,4.5-.3,4.9,3.2,5.8,6.3.5,6.1,5.7,9.5,8.2,14.5s2.3,6-1.8,8.1c-5.8-7-10.7-14.8-15.6-22.5-3.3-5.2-7.8-7.1-14.1-7.5-44.2-2.5-88.4-4.4-132.6-5.3-28.2-.6-56.5-1.8-84.6-.5s-53.7-.2-80.5,1.3c-23.8,1.3-47.7,2.8-71.5,4.7-4.1.4-6.8,2.8-9.3,5.7a23.4,23.4,0,0,1-2.4,3.1,29.5,29.5,0,0,1-2.5,2.5,27.3,27.3,0,0,0-5.5,6.7c-3.7,4.2-5.8,9.4-9.2,13.8C137.3,54.6,136.1,55.6,134.4,55.2Z" style="fill:#dedede"/><path d="M80.9,146.8a3.2,3.2,0,0,0,3.2,1.7c1.3,2.3-.5,4.1-.8,6.1s.2,4.1,3.4,4.9c7.3,1.8,8.1,3.6,5.5,10.5-1.2,3-2.8,5.8-3.1,9-2,14-5.9,27.7-6.2,41.9-.1,4.3-2,8.2-3.4,12.3-2.4,8-.7,16.3-1.1,24.4-.3,3.4.2,6.9-.7,10.2a6.1,6.1,0,0,1-1.5,2.4c-2.9,1.9-6.2,1.4-9.4,1.6s-5.4,0-8-1.1-3.3-4-.8-6.5a7,7,0,0,1,2.3-1.1c5.2-.4,7.5-3.2,7.3-8.5-.6-12.1-1-24.2.5-36.2s3.9-25.7,5-35.7c-1.5,3.7-4.9,9.9-6.7,16.8-.6,2.4-1.9,4.7-4.9,4.5s-3-2.6-3.3-4.8a16.4,16.4,0,0,1,.2-2.2,15.2,15.2,0,0,1,1.6-4,14.2,14.2,0,0,1,.8-1.8,24.3,24.3,0,0,0,1.3-3.8,7.6,7.6,0,0,1,.6-2c1.9-5.6,5.3-10.5,7.4-15.9a30.6,30.6,0,0,0,4.3-11.1C75.2,154,75.3,148.7,80.9,146.8Z" style="fill:#f3f3f4"/><path d="M16.4,293.9l-.2-2.1c5.6-8.2,10.7-16.7,16.9-24.4s3.6-14.9,5.7-22.2c3.6-12.3,3.8-25.3,7.1-37.8,2.5-9.2,1.1-19.2,5.3-28.3,1.6-3.5-3.6-7.9-8.9-7.9-8.1-.2-16.1-.8-24.1-1.5C4.1,168.4.2,164.3.3,150.3c0-2.7.1-5.4.2-8.1,2.6-2.8.1-7.1,2.9-9.9h0c4.1-5.9,10.7-5.7,16.7-7.2,1.9-.5,4.1.7,5.9-.9h0c16.1-5.7,32-1.9,48,.3,1.9.2,3.6.9,5.4-.2h0a6.1,6.1,0,0,1,1.7-1.5h0a1.3,1.3,0,0,1,2.1.7c-1.1,7.7-6.8,5.9-11.7,5.6-16.3-1-32.5-4-48.7,1l-8.5,2.3c-5.3,1.3-7.7,4.4-7,9.9.1,1,0-.3,0,.8,0,23.5-2.1,18.8,21.6,22.5,3.5.5,7-.1,10.5.6,7.1,1.7,14.9,2.6,16.8,11.8a23.4,23.4,0,0,1-1.4,5.8,54.7,54.7,0,0,0-1.3,5.5c-1.5,6.7-3.4,13.3-2.8,20.2,0,.2.4.4.7.4l.8-.3a2.3,2.3,0,0,1,1.8.3,7.1,7.1,0,0,1,.9,5.1l-.6,2.2a28.6,28.6,0,0,0-1.5,4.1,48.4,48.4,0,0,1-3.3,12.4c-6,12.5-5.2,26.1-5.5,39.4-.1,5.3,2.9-.7,4.2.5a4.3,4.3,0,0,1,2.2.6c1.1,3.3-1.3,5.4-2.7,7.8s-3.6,3.9-6.6,3.3-3.7-3.3-4-6.1.6-4.6-.4-6.2-1.8.9-2.8,1.4c-3.6,5.3-7.5,10.3-11.3,15.4C20.8,291.5,19.9,294.6,16.4,293.9Z" style="fill:#a0a0a0"/><path d="M87.5,177.6c-1-4.4,3.2-7,3.8-10.9s1.4-4.6-2.2-5.2-7.3,1.6-8.5-2.2,1.1-7.6,3.5-10.8h1.8c2.3,7.9,3.4,8.3,12.7,7.1a280.5,280.5,0,0,1,31.8-3c25.9,1.3,51.5-2.6,77.2-3.2,3.8,0,7.6-.5,11.2,1.1a2.6,2.6,0,0,1,1.4,2.5,4.8,4.8,0,0,1-2.4,1.8c-23.7,2.1-47.4,5.3-71.4,4.1-5.3-.3-10.7-.7-16,.7a20.8,20.8,0,0,1-5.5.7h-.8c-25.3,1.9-22.1-.7-27.8,25.2-1.8,8.2-2.4,16.7-6.4,24.3a2.9,2.9,0,0,1-2.4.4c-4.2-5.9-1.4-11.5.6-17.2S91.9,182.6,87.5,177.6Z" style="fill:#d0d0d0"/><path d="M707.1,127.7c-11.4-1.1-22.9-1.5-34.4-1.5-8,0-16.1-.6-23.8-2.8-6.1-1.8-10.1-.2-13.5,5.3s-6.6,6.4-11.1.2c-1.3-1.8-2.6-3.5-3.7-5.3s-1.5-3.9-3.6-5.2c-2.7,2.7.7,5.1,0,7.5-2.2.9-3.5-.6-4.4-2.2-3.8-7.4-8-14.7-10.5-22.7l-.6-2.2a3,3,0,0,1-.4-1,12.4,12.4,0,0,1-1-2,7.3,7.3,0,0,1-.6-2.1c.2-1.9.2-4,3.1-3.6v.2a3,3,0,0,0,1.7,1.6h-.1a4.4,4.4,0,0,0,1.6,1.7h0c.8.9.5,2.3,1.4,3.3,6.3,9.9,12.7,19.7,18.7,29.7,3,4.9,5.2,4.7,7.9-.1s8.9-7.6,15.7-6.6a447.1,447.1,0,0,0,50.4,4.5C702.4,124.4,706.8,122.2,707.1,127.7Z" style="fill:#a7a7a8"/><path d="M129.4,155c-12,.9-23.9,1.9-35.9,3.2-10.4,1.2-10.7.2-7.6-9.6,12.5-26.7,24.9-53.5,39.7-79.1,1.4-2.6,2.6-5.2,5.2-6.9a2.5,2.5,0,0,1,1.2,2.3,3.5,3.5,0,0,1-.5,1.8l-1.1,1.5a3.5,3.5,0,0,1-.5.8,13,13,0,0,1-.8,1.7l-.8,1.8a30.4,30.4,0,0,1-1.4,3.9c-11.6,22.4-23,45-33.5,68-1,2.3-3.6,4.8-1.5,7.3s5.2,1.3,7.7.7c5.9-1.2,11.8-1.1,17.7-1.2,4,.1,8-.6,11.7,1.5A1.6,1.6,0,0,1,129.4,155Z" style="fill:#4b4b4b"/><path d="M82.9,122.9H81.1c10.4-16.6,20.6-33.3,31.2-49.8,1.6-2.5,2.2-5.5,4.3-7.5s2.2-2.9,4-1.4.5,2.5-.2,3.7c-2.9,5-5.9,9.9-8.6,15-6.4,12-14.3,23.3-18.2,36.5-1.1,3.5-5.2,5.6-4.7,9.9a5.5,5.5,0,0,0-1.3,1.8l-.3,1.4a11.5,11.5,0,0,0-1.4,1.7h0a1.5,1.5,0,0,1-2,.1c-1.7-5.8,2.6-9.8,3.9-14.2C86.8,121.3,85.6,123.4,82.9,122.9Z" style="fill:#c7c7c7"/><path d="M517.5,5.5c-1.8,1.9-3.8,2.9-6,2.4-14.6-3-29.4-.7-44.1-1.4-1.6-.1-3.3,0-4.8-.2s-3.6-1.5-3.5-3.7,2.4-2.7,4.2-2.5c10.7,1.1,21.5-1.9,32.5,2.3,4,1.5,10.3.9,15.5.9C513.4,3.2,515.7,2.7,517.5,5.5Z" style="fill:#ebebeb"/><path d="M223.8.1H243c1.3,0,2.9-.3,3.4,1.4s-1.1,2.8-2.3,3.8-3.5,1.1-5.3,1.1c-11.5.1-23,.2-34.5.1-1.8,0-5,1.1-4.8-2.4s2-4.1,5-4.1h19.3Z" style="fill:#dadada"/><path d="M558.8,29.1c-1.3-2.4-1.9-5.3-4.8-6.5l-1.7-3.1a12.9,12.9,0,0,0-1.6-1.7h0a12.9,12.9,0,0,0-1.7-1.6c-4.4-4.1-10.3-3.5-15.6-4.9-1.2-.4-2.9-.1-2.9-2s1.3-2.1,2.6-2.6a17.2,17.2,0,0,1,19.1,6l22.7,31a6.8,6.8,0,0,1-3.4,3.3c-1.6.3-2.3-.8-2.8-2a8.9,8.9,0,0,0-.8-1.7l-.5-.8a7.6,7.6,0,0,1-1.1-1.4c-.4-.6-.6-1.1-.9-1.6a9.4,9.4,0,0,0-1.6-2.3,17.9,17.9,0,0,1-4.2-5.3,4.5,4.5,0,0,1-.7-1.8C558.9,29.7,558.8,29.4,558.8,29.1Z" style="fill:#ccc"/><path d="M571.6,46.9c.1-2.1,1.1-3.2,3.3-3.2h0l1.6,1.5h0a7.5,7.5,0,0,1,1.5,1.6h.1c1.4,1.3,1.9,3.3,3.4,4.6h0c.8,1,.5,2.4,1.4,3.3,7,11.5,15.1,22.4,19.7,35.2-2.1,1.2-1.8,3.3-1.9,5.2a2.1,2.1,0,0,1-2.6-1.2c-7.4-15.3-17.7-28.9-25.9-43.8a8.6,8.6,0,0,1-.6-2.3Z" style="fill:#b2b2b3"/><path d="M79.4,124.4c-4.1,3.7-8.2.1-12.1-.3-13.8-1.4-27.5-2.4-41.3.2,11.3-7.6,23.6-3.2,35.5-2.8C67.5,121.8,73.4,123.4,79.4,124.4Z" style="fill:#c7c7c7"/><path d="M84.2,134h1.7c-2,4.1-2.1,9-5,12.7s-4.9,9.1-4.8,14.6-3,6.6-4.9,9.7a1.2,1.2,0,0,1-2-.2c-.3-7.5,3.1-14.2,5.4-21.1C78,144.7,77.5,137.1,84.2,134Z" style="fill:#d0d0d0"/><path d="M26,124.3c-4,2.8-9.1,1.5-13.5,3.5s-6.3,2.6-9.1,4.6c.5-4.8,4.4-5.4,7.9-6.4A40.6,40.6,0,0,1,26,124.3Z" style="fill:#c7c7c7"/><path d="M131.1,66.3l-.3-3.7c0-3.1,3.1-4.6,3.6-7.4l2.6-2.3a2.5,2.5,0,0,1,1.5,1.7A12.8,12.8,0,0,1,131.1,66.3Z" style="fill:#373737"/><path d="M3.4,132.3c-.9,3.4,2.3,7.9-2.9,9.9C1.2,138.8-2.5,134.2,3.4,132.3Z" style="fill:#c7c7c7"/><path d="M581.5,51.6a4.8,4.8,0,0,1-3.4-4.6A4.6,4.6,0,0,1,581.5,51.6Z" style="fill:#ccc"/><path d="M707,167.9l-3.2-.2,3.3-1.5C707.1,166.8,707,167.3,707,167.9Z" style="fill:#545454"/><path d="M582.9,54.9c-1.3-.7-1.5-1.9-1.4-3.3A3.2,3.2,0,0,1,582.9,54.9Z" style="fill:#ccc"/><path d="M607.1,96.9a3.2,3.2,0,0,1-1.4-3.3A3.2,3.2,0,0,1,607.1,96.9Z" style="fill:#b2b2b3"/><path d="M605.7,93.6l-1.6-1.7Z" style="fill:#b2b2b3"/><path d="M604.2,91.9a1.9,1.9,0,0,1-1.7-1.6Z" style="fill:#b2b2b3"/><path d="M549,16.2l1.7,1.6Z" style="fill:#dedede"/><path d="M550.7,17.8l1.6,1.7Z" style="fill:#dedede"/><path d="M576.5,45.2l-1.6-1.5Z" style="fill:#ccc"/><path d="M578,46.9l-1.5-1.6A1.7,1.7,0,0,1,578,46.9Z" style="fill:#ccc"/><path d="M85.9,134.1l1.4-1.7Z" style="fill:#d0d0d0"/><path d="M81.1,122.9l-1.7,1.5A1.8,1.8,0,0,1,81.1,122.9Z" style="fill:#c7c7c7"/><path d="M87.6,131l1.3-1.8Z" style="fill:#d0d0d0"/><path d="M16.4,293.9c2.5-.8,2.8-3.7,4.8-5,1.7,1.1,2.8,3.1,4.9,3.6s4.7.7,7,0a27.6,27.6,0,0,1,5.7-.6,11.3,11.3,0,0,1,3.6.6,3.4,3.4,0,0,1,1.8,1.5,2.4,2.4,0,0,1-.7,2.1c-5.9,1-11.1,5.1-17.5,3.6-2.2-.5-3.8,0-4,2.5s0,4.9,3.1,5.5a62.1,62.1,0,0,1,8.6,1.6c12.2,2.5,24.2,5,36.7,5q275.1-.3,550.2-.1c4.7,0,9.7-1.3,14,2-.1,4-3.2,3.7-5.7,4s-7,.1-10.5.1H96.3c-15.6-.2-31.2.4-46.7-.3-2.2-.3-4.2-1.3-6.4-1.9a24.5,24.5,0,0,0-6.6-1.6l-2.2-.5a54.4,54.4,0,0,0-5.4-1.5l-2.2-.5c-6.3-1.5-8.8.7-8.4,7.3.6,8.6,0,17.1.3,25.7a24.3,24.3,0,0,1,0,2.7c0,6-.7,12.1,1.2,18,3.9,18.7,1.8,37.5-.1,56.2-1.4,14.6,5.1,26.8,19.1,31.9,24.3,8.7,48.7,15.4,75.3,15.3,162.9-.7,325.9-.4,488.9-.3,4.7,0,9.8-1.5,13.9,2.4a7.6,7.6,0,0,0-.1,1.5c-7.4.7-15-.2-22.4,1.3-2.9-2-6.2-1.3-9.4-1.3-156.3-.1-312.5-.3-468.8.2-26.2.1-51.1-3.3-75.6-12.7-18.7-7.1-28.1-20.4-25.5-42.7,2.1-17.4,1.6-34.9.3-52.4-1.7-22.5-.4-45.1-.4-67.7C15.1,297.6,16,295.8,16.4,293.9Z" style="fill:#565657"/><path d="M641.2,176l-12.3-30.9a40.3,40.3,0,0,1-1.9-4.3c-.5-1.5-.9-3.5.7-4.3s2.9.7,3.5,2.3.6,2.5,1.9,3.3c4.8,8.2,8.1,17.1,11.4,26l-.4.8a9.5,9.5,0,0,0-.5,1.8c-.1,1.5,0,3.1-.2,4.7a1.5,1.5,0,0,1-1.4,1.1Z" style="fill:#151515"/><path d="M646,168.2l-1.5,1.5-.8-.8.8-.9H646Z" style="fill:#545454"/><path d="M644.1,187.3c1,8.6,4.7,16.4,7.5,24.4,7.5,20.9,14.1,42,12.5,64.7-.2,2.8,1.5,8.5-5,4.1a3.2,3.2,0,0,1-1.7-2.2A23.9,23.9,0,0,0,656,274l-.9-1.4c-.3-.1-.5-.4-.7-.5a32.4,32.4,0,0,0-3.2-1.7,4.7,4.7,0,0,1-1.3-1.5c-.4-1.9-2.6-4,.8-5.3s4.2-2.7,4.6-5.9c1.1-10.4-4.7-18.9-7.2-28.3a19.9,19.9,0,0,0-3.1-6.6c3.7,14,.9,28.2,1.1,42.4-8.2,2.1-12.4,0-11.5-7.6,1.1-9.4-1.5-18.4-.3-27.8.9-6.7-2.3-13.8-3.2-20.9-1.2-9.4-2.4-19.1-5.6-28.2-.9-2.6-2.6-6.3,1.2-7.7s5.9,2,7.4,4.8,3.7,7.5,5.5,11.2c-1.2-3.6-3.6-6.9-4.5-10.7l-1.5-3a36.1,36.1,0,0,0-5.6-7.4l-1.3-1.4-.7-.7-1.3-1.3-.8-.5a6.8,6.8,0,0,0-3.4-.8,34,34,0,0,0-4.5.3,2.9,2.9,0,0,0-1.5,1.9l-.3.8a4.4,4.4,0,0,1-1.3,1.4c-2.1,1-2.7,4.3-5.7,3.8-6.5-11.5-18.1-9.7-28.6-10.8-6.5-.6-13.2,1.4-19.4-1.8a1.8,1.8,0,0,1-.1-2.5c11.4-3.8,23-1.8,34.5-1.2a32.8,32.8,0,0,1,10.1,1.9c2,.8,3.9,2.4,6.3,1.1,4.2-1.2,9.4,1.2,12.8-3.3,2.5-.2,4-1.9,5.6-3.4,4.1,8,4.8,17.5,10.9,24.7C642.3,179.3,644.9,182.6,644.1,187.3Z" style="fill:#e1e1e1"/><path d="M628.4,151.4c-.5,1.9.6,4.4-1.1,5.7s-2.5-1.9-4.2-2-3.3-1.9-4.4-3.4c-10.3-19.2-18.3-39.4-28.8-58.4-3.5-6.3-8.1-12.2-10.2-19.2a11.7,11.7,0,0,0-2.8-5.8c-3.1-5.4-8.2-9.7-8.4-16.5s-4.4-10-7.3-14.7c-1.6-2.4-5.3-4.3-2.4-8h0a12.1,12.1,0,0,0,1.6,1.6c1.6,2.2,3.3,4.3,4.9,6.4l1.5,1.7c0,.5.1,1,.1,1.6s1,1.1,1.6,1.6h0l1.5,1.7c.1,1.3.3,2.5,1.6,3.2h.1a8.3,8.3,0,0,1,1.5,1.7c7.3,13,16.6,24.8,23,38.3,1.4,2.9,3,5.6,4.5,8.4h0a6.5,6.5,0,0,1,1.6,1.7h0a4,4,0,0,1,1.6,1.8A83,83,0,0,0,617,125.9Z" style="fill:#efefef"/><path d="M644.1,187.3c-1.4-3.8-4.8-6.8-4.8-11.2h1.9c1.1,1,1.7,2.6,3.3,3.2,4.9,3.2,5,8,4.4,13.1C645,192.7,646.9,187.8,644.1,187.3Z" style="fill:#545454"/><path d="M617,473.2H546.8l-446.4-.2a118.1,118.1,0,0,1-43.9-8.7c-9.2-3.7-19.6-4.2-27.5-10.8s-13.2-14.8-12.1-25.1c2.1-20.6,3.9-41.1,1-61.8-1.9-5.8.5-12-1.3-17.8v-1.6c1.4-7.9.4-16,.6-24,.2-11.7,0-11.7,12.1-10h.1a2.1,2.1,0,0,1,.4,2c-.9,2.1.5,2.9,2,3.5,8,2.8,9.3,9.3,8.4,16.3s2.2,11.2,3.4,17.4c3.1-2.9.2-7.7,4.9-8.5,5,7.2,12.3,8.1,20.4,7.7s14.3-.2,21.5-.1c1.1.1,2.4,0,3.1.7,12.6,12,28.5,5.9,42.9,7.8,5.4.7,11.2-.5,16.8-.5,13.7-.1,21.3-11.1,17.1-24.5-1-3.2-5-6.4-.8-10.1,13.5-2.7,17.1.2,17.3,13.9.3,15.5.3,15.5,15.6,15.5H501.5c15.7,0,15.7,0,16.6-15.9,0-.8.1-1.6.1-2.4.3-10.2,1.5-11.4,11.7-12.1a12.9,12.9,0,0,1,5.4,1.2c3.3,4.8,1.8,9.3-2.9,11.1s-3.3,3.1-2.4,5.8,4.2,6.9,6.2,10.3c3.1,5.3,1.3,9.6-4.7,9.6-10.7-.1-21.4,2.1-32.2.8s-24,.1-36,1.2c-3.3.2-6.1-1.6-11.2-.2,17.9.4,33.8,3.7,49.9.1,4.7-1,8.4,1,10.7,5.2,1.4,2.5,3,4.1,5.5,1.2,7.1-8.4,15.8-6.8,24.3-3.4,5.5,2.2,10.3,1.7,16,1.6,9-.2,17.9-2.6,26.9-1.7s15.7-3.2,23.6.4c1.5.7,4-1,6.6-2.5-1.9-1.8-6.4-1.6-5.2-5.6s2.8-5.3,6.6-4.3a9.7,9.7,0,0,0,6.9,3.3c8.8.3,17.6-.3,26.4-.6s11.6-4.5,13.2-12.5a130.8,130.8,0,0,0,2.2-15.1c.7-6.3,2.9-10.5,9.9-11.5,3.6-.5,6.1-2.3,2.6-6.3,7.2-3.3,15.5.7,13.2,6.8-3.6,9.4-1.3,19.1-3.5,28.3h0c-1.9,5.3.3,10.9-1.4,16.2l-.3,17.6c-.9,2.7-1.3,5.5.2,8.2h0c1.4,9.8.3,19.8,1.8,29.6a8.6,8.6,0,0,1,.5,2.7,61.8,61.8,0,0,1-1.6,18.7c-.1,1.4.3,2.8-.8,3.9a2.9,2.9,0,0,0-.1,1.3c-1.2,1.5-.1,3.7-1.5,5.1h0c-.9.9-.7,2.4-1.6,3.2h0c-1,.9-.7,2.4-1.7,3.3h.1c-1,.9-.7,2.4-1.7,3.3h0c-1.1,1.6-1.9,3.5-3.3,4.9h.1a6.9,6.9,0,0,1-1.7,1.7h.1a6.5,6.5,0,0,1-1.7,1.6h0c-1.4,1.3-3.2,2-4.7,3.3h0c-1,.9-2.5.8-3.6,1.4Z" style="fill:#161616"/><path d="M687.9,347c.4-8.9-1.5-18,2.2-26.6,1.4-3.3-.6-5-2.6-6.7s-6-3.1-9.2-.5l-.6,1c-3.7,3.4-8.7,1.8-12.8,3.3l-2.2.9c-3.9,1.5-8.1,1.8-12,3.1l-2.9.4q-271.2.2-542.4,0c-2.9,0-5.9.3-8.7-1a2.4,2.4,0,0,1-1.3-2.7h530c3.1,0,6.4,1,9.4-1.1s5.6-2.6,8.7-2.6c9.7,0,18.9-2.9,28.2-4.7a9.4,9.4,0,0,1,2.4-.6c1.8-.2,3.6-.6,5.5-1s4.5-2.6,4.3-5.7-2.8-4.4-5.7-3.8c-6.5,1.4-13.4-3.2-19.7,1.3a42,42,0,0,1-15.7,2.8H522c-5.1,0-10.4.4-13.7-4.8-1.1-1.6-2.2-3.3-4-4.2-4-1.1-8.1-.6-12.1-.6h-278c-4.3,0-8.6.3-12.8-.5a7,7,0,0,1-2.7-1.4,2.3,2.3,0,0,1,.5-2.7c5.5-2.7,11.3-.9,17-1.6h2.9a116.3,116.3,0,0,0,13.2-.2q75.6-.2,151.2-.1a25.8,25.8,0,0,0,6.2.1H496c7.2,0,13.9.6,19,6.6,2,2.5,5,3,8,3,38.9.1,77.9.4,116.8-.2a57.4,57.4,0,0,0,7.1-.9c10.6-2.3,21.1-5.1,32.2-4.7,3.9.2,6.3-2.1,7.1-6.2s.9-5.9,3.4-7.9c7.8,5.9,7,14.4,6.3,22.6-1.4,15.9-7.4,31.1-7,47.2C688.9,346.3,688.2,346.7,687.9,347Z" style="fill:#424244"/><path d="M689.6,276.1c-.6,4.1-1.2,8.3-1.9,12.5-.3,2.1-1.7,3.5-3.7,3.4-5.3-.3-10.1,2.7-15.7.8-3.6-1.3-7.7,1-11.5,2.2s-4.8,2.3-7.6,2a6.7,6.7,0,0,0-.4-5.7c2.8-3.6,7.1-3.4,10.9-4.3,1.3-.5,2.9-.1,4.1-1.1h0a4.3,4.3,0,0,1,1.7-1.6h0a7.9,7.9,0,0,1,1.4-1.8l.2-6.3a24.3,24.3,0,0,0-.1-13.1h0c-2.2-4.1.5-8.8-1.5-13a3.9,3.9,0,0,0-.2-1.5c-1.8-2.5.2-5.7-1.4-8.3a3.6,3.6,0,0,0-.2-1.4c-.9-1.1-.9-2.4.3-3.1s2.3.4,2.9,1.6h0c1,.9.7,2.4,1.7,3.2h0a5.3,5.3,0,0,1,1.3,2c3.1,7.7,7.8,14.4,12.7,20.8a41,41,0,0,1,5.3,9.6c1,.8.6,2.4,1.7,3.2Z" style="fill:#0b0b0c"/><path d="M666.9,237.4c-1.8-1.1-3.2-1.1-3.2,1.5-3.5-3.9-4.7-8.4-4.3-14.6C664.3,228.1,664.8,233.2,666.9,237.4Z" style="fill:#504f4e"/><path d="M687.9,419.8c-3.2-6.6-.9-13.6-1.5-20.3-.3-3.5,0-7,0-10.4,3.3,6.2.7,12.9,1.7,19.3C689,412.2,689.3,416,687.9,419.8Z" style="fill:#424244"/><path d="M686.4,440.8c.2-6.5,2.3-12.9,1.5-19.4.6-.8,1.1-.7,1.5.1v14.3l-1.3,1.8-.3,3C687.5,441.4,687,441.5,686.4,440.8Z" style="fill:#424244"/><path d="M686.5,363.3c.2-5.4-1.6-11,1.4-16.2C687.3,352.5,688.9,358,686.5,363.3Z" style="fill:#424244"/><path d="M667,263.1c2.2,4.4,2,8.7.1,13.1C667,271.8,667,267.5,667,263.1Z" style="fill:#504f4e"/><path d="M665.5,250.1c2.6,4.1,1.3,8.7,1.5,13C663.9,259.1,665.9,254.4,665.5,250.1Z" style="fill:#504f4e"/><path d="M689.4,421.5h-1.5v-1.6l.2-11.4C690.9,412.5,689,417.1,689.4,421.5Z" style="fill:#565657"/><path d="M686.4,389.1c-2.4-2.7-2.1-5.4-.2-8.2C686.2,383.6,686.3,386.3,686.4,389.1Z" style="fill:#424244"/><path d="M663.9,240.3c2.2,2.5,1.3,5.5,1.4,8.3C662.8,246.2,664,243.2,663.9,240.3Z" style="fill:#504f4e"/><path d="M644.5,179.2c-3.6,1.4-2.8-1.6-3.3-3.2h1.6q.9-1.2,1.2.3C644.2,177.3,644.3,178.2,644.5,179.2Z" style="fill:#323232"/><path d="M658.9,277.7c.1,1,.1,1.9.2,2.8v5l-1,.6c-2.8-1.4-2.5-3.8-2.3-6.2a4.9,4.9,0,0,1,1-2.2A1.7,1.7,0,0,1,658.9,277.7Z" style="fill:#504f4e"/><path d="M676.5,464.9a5.3,5.3,0,0,1,3.3-4.9A4.5,4.5,0,0,1,676.5,464.9Z" style="fill:#565657"/><path d="M644,176.3a2.7,2.7,0,0,0-1.2-.3c0-2,.1-4.1.1-6.1s.8-.9,1.4-.4l.2.2C644.4,171.9,644.2,174.1,644,176.3Z" style="fill:#545454"/><path d="M668.6,471.4a5.2,5.2,0,0,1,4.7-3.3A4.4,4.4,0,0,1,668.6,471.4Z" style="fill:#565657"/><path d="M684.7,450.4c0-1.8-.1-3.7,1.5-5.1C686.3,447.2,686.8,449.2,684.7,450.4Z" style="fill:#565657"/><path d="M663.8,285.9c-.7,1.2-2.1,1.3-3.3,1.5s-2-.2-1.6-1.6l.2-.3Z" style="fill:#504f4e"/><path d="M679.8,460.1a3.4,3.4,0,0,1,1.7-3.3C681.5,458.2,681.2,459.5,679.8,460.1Z" style="fill:#565657"/><path d="M681.4,456.9a3.4,3.4,0,0,1,1.7-3.3C683.1,455,682.9,456.2,681.4,456.9Z" style="fill:#565657"/><path d="M665,472.8a4.8,4.8,0,0,1,3.6-1.4C667.8,472.9,666.5,473,665,472.8Z" style="fill:#565657"/><path d="M689.6,276.1a3,3,0,0,1-1.7-3.2C689.3,273.5,689.6,274.7,689.6,276.1Z" style="fill:#424244"/><path d="M683.1,453.6a3.1,3.1,0,0,1,1.6-3.2C684.7,451.8,684.5,453,683.1,453.6Z" style="fill:#565657"/><path d="M686.4,440.8l1.4-.2c.1,1.4-.1,2.7-1.5,3.4C686.4,442.9,686.4,441.8,686.4,440.8Z" style="fill:#565657"/><path d="M668.6,240.5a3.2,3.2,0,0,1-1.7-3.2A3.2,3.2,0,0,1,668.6,240.5Z" style="fill:#504f4e"/><path d="M673.3,468.1l1.7-1.6Z" style="fill:#565657"/><path d="M674.9,466.5l1.7-1.7Z" style="fill:#565657"/><path d="M688.1,437.6l1.3-1.8Z" style="fill:#565657"/><path d="M665.5,284.3l-1.7,1.6Z" style="fill:#504f4e"/><path d="M666.9,282.5l-1.4,1.8Z" style="fill:#504f4e"/><path d="M669.9,242.5l-1.3-2Z" style="fill:#504f4e"/><path d="M581.3,72.8c7.2,14,14.6,27.9,21.5,42,6.1,12.1,11.6,24.6,17.4,36.9,2,4.8-.5,6.5-4.8,6.4s-10-.1-15.1-1.2c-9.2-1.9-18.7-1-28.1-1.2-2.4,0-5.4,1.4-7.2-1.6,4.3-5.1,10.2-2.1,15.3-3h18.5a34,34,0,0,1,4.6.6c3.7.9,7.4,2.3,11.1,0a4.5,4.5,0,0,0-.4-2.3l-1.2-2.4a16.8,16.8,0,0,1-.7-2.4,15.5,15.5,0,0,0-.8-2.3,10.1,10.1,0,0,1-.7-1.5l-.8-1.4-.8-1.5-1.1-2.2c-.2-.5-.3-1-.5-1.6a9.7,9.7,0,0,0-.8-2.2l-.9-1.3-.9-1.3a10.1,10.1,0,0,1-.7-1.5,22.6,22.6,0,0,1-1.1-2.2,20.2,20.2,0,0,1-.7-2.3,8.5,8.5,0,0,0-.9-2.2l-.7-1.5a7.1,7.1,0,0,1-1-1.4l-.5-.6-1-1.5a7,7,0,0,1-.6-1.7l-.9-2.6a8,8,0,0,1-.8-1.6l-1-1.5-.6-.7a14,14,0,0,1-1-1.6,12.1,12.1,0,0,1-.5-1.8,24.4,24.4,0,0,0-.6-2.6,10.1,10.1,0,0,0-.7-1.5,6.4,6.4,0,0,0-1-1.3l-.5-.7a5.6,5.6,0,0,1-1.4-2,6.2,6.2,0,0,1-.7-2.3,18.9,18.9,0,0,0-.9-2.1c-.3-.5-.5-1-.7-1.4l-.9-1.4-.5-.6a7.4,7.4,0,0,1-1.3-2.1,18.6,18.6,0,0,1-1-2.5l-1-1.5-.6-.7-1.4-1.6-.6-.9c-9.5-17.6-20.5-34.3-31.4-51-4-6-9.7-5.8-15.7-5.5l-5.2.2c-8,0-16,.4-24-.5-6.4-2.1-13-.9-19.5-1.1a33.3,33.3,0,0,1-8.4-.7c-6.4-1.8-12.9-.7-19.4-.9a41.8,41.8,0,0,1-10-.7c-8.8-2-17.6-.6-26.4-.9-48.3.1-96.7-.1-145,0-10-1.4-19.8,1.7-29.7,1.2-1.3-.1.3,1.6-.1,2.5a4.7,4.7,0,0,1-1.9,1.8c-11.4,1.9-22.9.4-34.4.9-5.6.2-11.2-.7-16.7.9a65.3,65.3,0,0,1-17.1.3,8.2,8.2,0,0,1-2.4-1c-1.5-2-.3-3,1.5-3.1s6-.6,9.8.6c-12.6-1.3-12.6-1.3-26.2,6.8a1.8,1.8,0,0,1-2.1-.8c3.1-5.8,7.4-9.1,14.5-9.6,74.1-5.7,148.3-6.1,222.5-5.4,45.4.4,90.8,1.6,136.1,5.4,1.6.1,3.3.5,4.9.1,11-2.7,16.8,3.8,21.9,12s9.1,13.8,13.8,20.7l9.6,16A38.4,38.4,0,0,1,581.3,72.8Z" style="fill:#373737"/><path d="M137,52.9a59.3,59.3,0,0,1,9.7-14.5,2.8,2.8,0,0,1,1.5,1.7c-.8,6.5-4.1,11.1-10.2,13.6Z" style="fill:#373737"/><path d="M146.7,38.4c.7-2.8,3-4.5,4.8-6.5a2.5,2.5,0,0,1,1.4,1.8c-.3,3.2-1.9,5.1-5.2,5.5Z" style="fill:#373737"/><path d="M153.1,30.2l1.7-1.6.8.9a2.3,2.3,0,0,1-1,1.6A1.3,1.3,0,0,1,153.1,30.2Z" style="fill:#373737"/><path d="M151.5,31.9l1.6-1.7.8.8c0,1.1-.5,1.6-1.5,1.6Z" style="fill:#373737"/><path d="M658.9,277.7h-1.6c-14.2-4.6-28.8-2.7-43.1-2-9.1.5-18.2,1.1-27.3,1.1-19.9.1-39.8.6-59.7-.1-110.4-3.3-220.8-.9-331.1-1.1-16.6,0-33.3.8-49.9,1.3-30.9.8-61.7-2.7-92.6-1.6a6.7,6.7,0,0,1-3.1-.7l-2-.2c1-6.2,4.6-7.3,9.9-4.8l7.9.2a13.3,13.3,0,0,0,9.8-.1h.2a6,6,0,0,1,4.4-1.7c39.2,2.2,78.4.8,117.6.9q210.8.3,421.6,0a15.1,15.1,0,0,0,4.2-.5,13,13,0,0,1,5.2-.1c1.2.1,2.4.5,3.6.7,4.5.2,8.9.4,13.3-.7a4.9,4.9,0,0,1,4.6,1.3v.2c1.4,1.2,3.5,0,4.8,1.4h0a8.4,8.4,0,0,1,1.5,1.8C657.8,274.5,659.2,275.8,658.9,277.7Z" style="fill:#b2b2b2"/><path d="M623.3,271l-162,.2H100.2a136.5,136.5,0,0,1-23.9-1.6c-.1-10.2-.1-20.3-.1-30.5,0-2.3-.7-4.9,1.5-6.7,4.7,8.2,1.1,17.2,2.5,25.4.2-4.5-.2-9.3.2-14,.3-2.7-.3-6.2,4-6.7a6.6,6.6,0,0,1,1.8,3.5c.6,6.2,1.4,12.3.6,18.5s1.4,8,7.1,8h85.2c4.2,0,6.2-1.6,6.5-6.2.4-7.2,1.8-14.3.1-21.5-.2-3.9-.3-8.3,4.4-9.1s6.6,3.4,8,7.3a21.3,21.3,0,0,1,.8,12.7,29.6,29.6,0,0,0,.2,14.2c3,4.1,7.4,2.3,11,2.3,60.8.2,121.5.1,182.2.1H605.9a103,103,0,0,1,13.6.4,9.2,9.2,0,0,1,2.9,1.1A1.9,1.9,0,0,1,623.3,271Z" style="fill:#c8c8c8"/><path d="M59.9,196.9c.8,1.9-1.5,5.6,2.3,5.7s2.2-3.1,2.7-5.2c1.8-8.5,6.7-15.6,10.8-23a1.8,1.8,0,0,1,2.7-.7,2,2,0,0,1,.5,2.9c-6.3,7.7-2.8,17.5-5.5,25.4-3.4,10.3-2.4,20.4-4,30.5-1.3,7.7.8,15.3.4,23s-.2,9-9.8,9.3c-2.4-3.8-2.9-7.8-2.4-12.3,1.2-11.9,1.1-23.8,1.3-35.7-1.7.5-3.3.8-4.5-1s.1-4-.2-6C54.4,204.8,54.6,199.7,59.9,196.9Z" style="fill:#e0e0e0"/><path d="M84.1,237.3c-3.1,4.1-1,8.8-1.4,13.2s-.1,8.1-.2,12.1c0,1.7-.3,3.5-2.5,3.4s-2.2-2-2.2-3.7c-.1-9.9-.1-19.9-.1-29.8,4.1-9.5,3.3-19.8,4.5-29.7s4.4-16.6,5.3-25.2c1.8-.5,4.4-2.7,4.6,1.2s1.5,9.1-.7,12.7c-3.7,5.8-4.1,12-3.9,18.4C92.7,219.8,87.8,228.5,84.1,237.3Z" style="fill:#b2b2b2"/><path d="M55.1,216.3l4.9-1.6c-.8,6.4-1.8,13.2-4.2,18.9-3.2,7.4-2.6,15.2-4.7,22.6s4.7,5.9,7.3,8.6a3.9,3.9,0,0,0,0,4.7c-4.2-.2-7.8.7-9.9,4.8-2.9,1.2-2.9,5.3-6.8,6.4-.9-21.3,1.7-41.7,10.2-61.1,1-.9.7-2.4,1.6-3.2h.1C54,215.6,54.6,215.6,55.1,216.3Z" style="fill:#e0e1e0"/><path d="M58.4,264.8c-1.6,0-3.2-.1-4.8,0-4.7.3-6.3-1.4-5.1-6.2a51.1,51.1,0,0,0,1.8-17.4c-.2-2.4,1-4.1,2.6-5.7a6.3,6.3,0,0,0,2.2-5.7c-1.2-6,1.6-10.6,4.9-15.1.3-1.1.1-3.1,2.1-1.5s.5,2.4.1,3.7c-1.6,6.2-3.1,12.2-.8,18.7,1.4,4.3-2.4,8.2-1.8,13.1a122.8,122.8,0,0,1,.4,16.1Z" style="fill:#ccc"/><path d="M59.9,196.9l-4.8,12.9-.4.6H54l-.9-.7c-1.5-1.9-1.3-3.9-.8-6,3.8-6.8,3.2-15.4,8.9-21.4a2.6,2.6,0,0,1,2.4.3c.5,1.6.8,3.3-.4,4.8h0c-1.5,1.2-.1,3.5-1.7,4.8h0c-.9.9-.6,2.3-1.4,3.3A7.7,7.7,0,0,0,59.9,196.9Z" style="fill:#a0a0a0"/><path d="M63.2,187.3v-4.7c-.9-5.4,1.7-9,6.1-11.5h1.8C68.6,176.5,65.9,181.9,63.2,187.3Z" style="fill:#e0e0e0"/><path d="M76.1,269.6c-3.2,2.4-6.5,2-9.8.1Z" style="fill:#e0e1e0"/><path d="M61.5,192.1c0-1.8-.1-3.6,1.7-4.8C63.2,189.1,63.6,191,61.5,192.1Z" style="fill:#e0e0e0"/><path d="M60.1,195.4a3.2,3.2,0,0,1,1.4-3.3A3.2,3.2,0,0,1,60.1,195.4Z" style="fill:#e0e0e0"/><path d="M50.5,274.5c2.7-2,5.9-2.1,9.2-2,40.3,1.5,80.6,2.6,120.9,1.7,98.2-2.3,196.3-1.3,294.4-1.1,37.8,0,75.7,1.8,113.5.9l57.2-1.5c4.9-.2,9.1.3,11.6,5.1a11,11,0,0,1-.2,1.8,3.9,3.9,0,0,1-3,.1c-2.5-1.7-5.1-2.9-8.3-2.5-39.9,5.1-80,3.8-120,2.9-94.4-2.3-188.7-1.4-283.1-.9L98.4,280.1c-12.4.1-24.6-1.5-36.9-2.6-3.2-.3-5.8,0-8.3,1.9s-3.3,9.6-9.6,9.7-7.7-3-8.1-8.1c-.1-2,.5-4.4-2-5.7a2.1,2.1,0,0,1-1.4-1.2c1.7-2.5,1.9-7.5,5.6-6.5s1,5.1,1.2,7.9a38.4,38.4,0,0,1,0,4.8c0,1.7.6,3.3,2.3,3.9s3.6-.3,4.7-2.2S48.9,277,50.5,274.5Z" style="fill:#302f30"/><path d="M84.2,134l-7.8,16.3a1.7,1.7,0,0,1-2,.1c-1.1-2.3-.1-4.5.6-6.6s2.2-4.7,3.1-7.1,2.7-4.8-2-4.4c-2.7.4-5.1-1.7-7.8-.9.8,9.3.5,9.6-8.7,7.2-13.5-3.6-27.2-2.3-40.7-1.7-7.2.4-9.5,5.5-10,16.6-.2,6.5,3.9,7.4,8.7,8.1,6.6,1,13.1,2.4,19.8,2.8a6.8,6.8,0,0,1,2.4.8,2.1,2.1,0,0,1,1.2,2,3.6,3.6,0,0,1-.7,1c-9.2.6-18.1-1.3-27.2-2.3-6-.7-9-3.7-8.4-10.2s.4-11.3.5-16.9,2-6.7,6.2-8.1c20.1-6.9,40.4-6.7,61-3.5,4.3.6,8.8,1.6,10.5-4.3,3.6-2.2,4.4-7,9.1-8.8Z" style="fill:#434344"/><path d="M53.8,203.7l-.7,5.9c-1.8,1.4-.6,4.9-4.3,5.6-.4-9.1.2-17.8,2.9-26.4a1.7,1.7,0,0,1,2-.2c2,4.5-.9,8.7-.5,13.1Z" style="fill:#2f2f30"/><path d="M26,293.9c-3.6.3-5.2-1.4-4.8-5l10.9-14.8.8.7c1.6,6.3-4.2,9.1-6.3,13.6a4.3,4.3,0,0,0-.5,2.5,7.6,7.6,0,0,1,.6,1.6,2.2,2.2,0,0,0-.1.8Z" style="fill:#302f30"/><path d="M54.9,179c-1.8-7.8-7.9-9.6-14.6-10.8l.6-.6c1.6-1.4,3.5-1.5,5.4-1.5a8.7,8.7,0,0,1,3.2.6,6.9,6.9,0,0,1,1.9,1l.8.6a10,10,0,0,1,1.5,1.4,4.6,4.6,0,0,0,.7.7l2.6,3a4.1,4.1,0,0,1,.5.9,5.9,5.9,0,0,1,.5,1.9,4.3,4.3,0,0,1-.7,2.9,2.2,2.2,0,0,1-1.7.6A4.6,4.6,0,0,1,54.9,179Z" style="fill:#434344"/><path d="M54,210.3a2.2,2.2,0,0,1,1.1-.5v6.5H53.6Z" style="fill:#ccc"/><path d="M53.3,183.9c.1-1.8.3-3.5,1.6-4.9l.5.4a3.8,3.8,0,0,1,.9,2.7,3,3,0,0,1-.6,1.8,1.8,1.8,0,0,1-1.7.6Z" style="fill:#434344"/><path d="M53.4,188.8H51.7c0-1.8.2-3.6,1.6-4.9l.5.4a3.7,3.7,0,0,1,.8,2.9A2.8,2.8,0,0,1,53.4,188.8Z" style="fill:#434344"/><path d="M53.5,216.4c0,1.3-.2,2.5-1.6,3.2C51.9,218.2,52.2,217,53.5,216.4Z" style="fill:#ccc"/><path d="M623.3,269.6H199.2c-1.7,0-4.2.9-4.5-2s1.2-2.2,2.4-2.9c.4-8.9,2-17.9.2-26.7-1.1-5.2-3.8-7.5-10.1-7.6-29.5-.4-58.7,4.6-88.2,2.7-3.6-.2-7.6.7-10.6-2.3a85.9,85.9,0,0,1,.6-20.9c2.1-10.8,4.6-21.5,6.4-32.4.8-4.9,4.4-9,3.7-14.4-.3-2,2-3.2,4-3.1,7.2.2,14.2-2.6,21.4-1.7,2,5-2.5,3.9-5,5.2,2,3.1,7,3.5,7.4,7.6s-2.8,6.8-4.7,10c-6.6,11.1-9.7,22.4-1.9,34.3.3.5.4,1.1.7,1.5,2,2.4-1.4,6.7,2,7.9s9.6,2,13.5,0c12-6.1,24.7-3.7,37.1-4s13-.1,16.4-13.1c1.4-5.5,1.6-11.2,2.5-16.7s-1.6-6.8-5.7-8.2-11.6-.6-13.8-8.5c-.7-2.3-6.6-2.6-10.5-2.6s-8-.1-12-1.2c-1.8-.5-4.8-.8-5-2.1-1.6-9.7-10.7-7.1-16.2-10.2,1.5-1.6,3.4-1.4,5.3-1.4,19-.2,38.1.4,57.1-1.8,8.8-1,17.6-2.1,26.5-1.7a11.4,11.4,0,0,0,7.7,1.4c-2.2.2-4.4.3-6.2-1.4,0-.5.1-1,.1-1.5,7.5-4.1,15.4-2,23.2-1.5,2,.1,3.4,1.6,4.1,3.5,3,7.5,4.2,1.6,5.9-.8s6.5-3.5,10.3-3.5c59.5,0,119,.1,178.6-.1,7.6-.1,10.4,3.8,12.2,9.8,1.7.3.8,4.9,4.1,2.4s1.5-5.7,4.2-7.5c9.1-.6,18.2.6,27.1-2.5,7.2-1.4,14.3.3,21.4,1.2,13.2,1.8,26.5,1.5,39.9,1.6,2.3,0,4.8-.1,7,1.1l1.1,1a9.7,9.7,0,0,1-.1,1.7c1.7,2.5,6.4,2.9,5.4,7.2s-5.1,4.1-8.4,4.9c-6.1,1.4-12.3,1.4-18.5,1.3s-10.1.1-14.7,3.1-8.3,1-12.1.4c-.3,13.1,4.2,24.9,6.6,37.1,1.1,5.8,3.9,8.5,9.7,8.5,1.6,0,3.2.1,4.8,0,19.4-1.5,38.3,4.3,57.6,4.1,8-.1,7.4,1,6.6-7.4a71.9,71.9,0,0,1,1.5-23.1c2.7-10.9,1.4-13.2-9.8-13.9-.7,0-1.3-.6-2.1-.1,2.1,1.8,4.7,2.6,7.1,3.8s4.9,2.8,4,6.1-3.4,4.7-6.8,4.5c-6.3-.3-14.9-7.4-16.3-13.7-.3-1.3,0-2.8-.8-3.9-3.8-6.3,0-8.8,5.1-10.7s8.3-1.8,12.4.3c-3.1-3.4-9.9-1.8-10.3-8.4,6.1.7,12.2,1,18.2,2.1,3.9.6,8,1.7,7.8,7.3,0,1.6,1.5,2.8,3.1,3.4,5.7,9.6,6.4,20.6,8.7,31.1,2.2,7.2,2,14.8,2.9,22.2s-2.2,9.5-9.6,9.2c-22.7-1.1-45.5.4-68.2-1.5-9.3-.7-19.1-.9-28.4,1.5-2.5,1.7-5,3.8-4.5,7,.9,7,.6,14.2,2.3,22.5,3.3-4.2,1.8-7.5,1.5-10.6-.4-6-2.1-12.4,3.9-16.9,7.7-3.7,16-2.9,23.8-2,23.6,2.4,47.2,3.7,70.9,2.5,4.8-.3,7.3,2,8.7,6.5,2.1,7,3,14.2,4,21.4A6.7,6.7,0,0,1,623.3,269.6Z" style="fill:#fcfcfc"/><path d="M129.3,158.2h17.1c-3.2,8.1-3.1,7.8,4.4,10.2a32.3,32.3,0,0,0,11.1,1.1,22.6,22.6,0,0,1,12.3,2.9,4.7,4.7,0,0,0,1.5.4c-1.5,10.2,7.4,6.2,11.4,7.7,8,3,7.9,2.9,7.3,11.7s-3,17.3-4.9,25.9c-.9,3.7-2.4,4.8-6,4.8-8.6-.2-17.2-.1-25.8-.1-6.3,0-12.3.3-18.5,3.5s-14.4,2-23-.6c5.4-4.1,3.9-7.4,1.2-11.4s-8.9-8.5-2-14.3c.3-.2.3-1,.1-1.5-3.9-9.1,2.8-15,7.1-21.2s4.1-7.9-2.3-9.9a1.5,1.5,0,0,1-.6-.5c-1.4-2.2-6.2-1.9-5.2-5.1s4.1-.3,6.3-.4,3.6-.7,3.7-3.1Z" style="fill:#fefefe"/><path d="M253.5,155.2c-.1,2.7-.1,5.7-3.9,5.7s-4.6-2.2-4.2-5.3-2.1-4.2-4.9-4.1l-20.7.3c-16.6-1.1-33.1,1.1-49.6,2.2-13.6.9-27.2,1.2-40.8,1a7.6,7.6,0,0,1,.1-1.5c1.4-1.7,3.3-2.1,5.3-2.3,17.1,0,34.1-1.5,51.1-2.7,9.3-1.6,18.8.8,28-1.8,15.5.1,31.2.2,46.5-.9,28.5-1.9,56.9.6,85.3-2.5,11.2-1.2,22.4,1.9,33.7,1.5,19.3-.8,38.7,1.1,58,1.1,17.4,0,34.8.2,52.1.6,23.6.5,47.1,2.2,70.6,4.8,1.9.2,3.7.6,5,2.3s5.7,1,8.6,1c13.5-.2,27.1.9,40.6,2.2,4.1.4,6-1,5.9-5.1l2.9,3.4c.1,3.4-1.7,4.6-4.9,4.8s-5.1-1.4-7.7,0a4.4,4.4,0,0,1-4.9,0c-6.5-2.9-13.5-2.9-20.3-3.1-8.8-.4-17.6-.3-26.4-.3h0c-9.8-1.9-19.8-.4-29.6-1.2q-12.1-1.1-24-2.4c-13.5-1.4-26.8,2.1-40.2.6-2.3-.2-3.9,1-4.1,3.8s-2.7,4-5.7,3.6-4.5-1.7-3.8-4.8c1.1-4.9-2-5.2-5.6-5.2H259.7C256.6,150.9,253.5,150.9,253.5,155.2Z" style="fill:#7d7d7d"/><path d="M89,209.9v21c14.4,1.8,28.8.1,43.2.9,3.5.2,9.8-2.6,9.7,3.3s-6.4,4.2-10.4,4.4c-8.8.5-17.7-.7-26.4.8-6.9,1.6-13.9.1-20.9.3v-3.3c0-9.3,5.2-17.9,3.4-27.4Z" style="fill:#dfdfdf"/><path d="M219.7,153.3h11.2c-5.3,3.4-9.2,4.4-12.7,0Z" style="fill:#fefefe"/><path d="M613.1,112.5c.1.2.3.4.3.6s-.6.8-.9.2a.9.9,0,0,1,.1-.7Z" style="fill:#323232"/><path d="M602.3,97l-1.6-1.7Z" style="fill:#b2b2b3"/><path d="M603.9,98.8,602.3,97A2,2,0,0,1,603.9,98.8Z" style="fill:#b2b2b3"/><path d="M152.4,32.6l1.5-1.6,1.7-1.5c7-11.3,18.2-7.9,29.9-8.5-5.5,3-10.6-.3-14.4,3a4.5,4.5,0,0,1-1,2.9,25.2,25.2,0,0,1-2.1,2.5c-5.3,5.7-8.7,12.9-13.8,18.8C144.4,60.1,138.6,74.4,130,87c-11,16.3-19.2,34.1-28.1,51.4-3.3,6.5-2.9,7.2,4.1,8.9,3,1,6.3.3,9.3,1.3s4.8,2.1,1.1,4.6l-23.9,1.7c-4.8.4-5.6-1.7-3.6-5.8C99.4,128,108.2,106,120.3,85.6c2.2-3.6,2.9-8,6-11.2.8-.9.5-2.4,1.4-3.4a2.8,2.8,0,0,0,.3-1.3,3.8,3.8,0,0,1,1.5-1.8h0a8.1,8.1,0,0,1,1.6-1.6h0c1.7-4.5,6-7.6,6.9-12.6,3.8-4.4,7.8-8.7,9.7-14.5C149.6,37.3,151.8,35.5,152.4,32.6Z" style="fill:#080808"/><path d="M116.4,153.2c.6-1.5,1.3-2.9-1.5-3.1s-6.9,1.3-9.8-1.5c2.3-2.6,5.5-2,8.5-2.5a141.1,141.1,0,0,0,31.1-2.7c15.1-3,30.5-2,45.8-2,3.8.3,7.8-.6,11.3,1.7.9,4.7-2.8,3.6-5.1,3.7-5.9.3-11.8.1-16,.1,7.2-.2,16,.5,24.8-.5,2.9-.3,6-.4,8.1,2.3-9.1,2.2-18.4.8-27.7,1.5-5,1.5-10.1.6-15.1.7-12.2.3-24.4,1.9-36.6,2.4l-4.7.2Z" style="fill:#1d1d1d"/><path d="M127.7,71a3.8,3.8,0,0,1-1.4,3.4C126.2,73,126.4,71.8,127.7,71Z" style="fill:#373737"/><path d="M129.5,67.9,128,69.7A2,2,0,0,1,129.5,67.9Z" style="fill:#373737"/><path d="M131.1,66.3l-1.6,1.6Z" style="fill:#373737"/><path d="M560.4,30.7l-1.6-1.6Z" style="fill:#dedede"/><path d="M566.8,38.8l-1.5-1.7Z" style="fill:#dedede"/><path d="M568.5,42l-1.6-1.6Z" style="fill:#dedede"/><path d="M570,43.7,568.5,42Z" style="fill:#dedede"/><path d="M573.2,48.6l-1.5-1.7Z" style="fill:#ccc"/><path d="M74.6,150.2h1.8c-2.3,6.9-4.6,13.8-7,20.8-2,3.8-4,7.7-6.1,11.5H61.8a2.4,2.4,0,0,1-1.2-1.4,11.5,11.5,0,0,1,.1-1.9,20.3,20.3,0,0,1,1.1-2.6,14,14,0,0,1,1-1.6l1-1.5.5-.9.9-2.8C68.2,163.3,67.4,154.8,74.6,150.2Z" style="fill:#565656"/><path d="M24.4,289c2-5.3,7.3-8.5,8.5-14.2l3.3-2.7c3.5,4.7-3.2,13.2,6,15.4,6.7.2,13.2,2.2,19.9,2.5h5.3c38.5-.6,77-.8,115.5-2.1-5.4-2.8-11-2.9-16.6-2.9H91.5c-8.1,0-16.1.5-23.8-2.7-3.2-1.4-6.9-.9-10.3.2a9,9,0,0,1-4,1.3c-2.6-.3-4.7-1-3.1-4.3s5-5.2,8.7-4.7c32.4,4.4,64.9,2.7,97.3,2.8,11.8.1,23.6,1.1,35.4-1,4.5-.8,9.4,1.3,14.3,1.1,89.5-3.2,179-.9,268.5-1.4,9.1-.1,18.4,1.4,27.3.9,13.1-.9,26.1,1.1,39.2.7,19.8-.7,39.8.1,59.7-.3,14.9-.2,29.9-.7,44.8-2.9,4.5-.6,8,.6,10.3,4.6s-1.6,4.7-4.3,3.7c-6.5-2.2-12.6-1.3-18.9,1-3.8,1.5-7.9,1-12,1-30.3.1-60.7-.1-91.1.4-2,.1-4.3-.6-6.2,1.8,5.1,3.6,10.9,3.1,16.3,2.3,11.3-1.5,22.4-1.1,33.7,0a149.7,149.7,0,0,0,31.4-.5c15-1.7,29.9-.1,44.5,3.3,4.1,1.6,1.5,3.2,0,4.8-6,1.4-12.2,1.5-18.4,1.5-36.2,0-72.4-.1-108.7.1-4.7,0-8.3-.7-10.5-5.4s-6.2-4.3-10.4-4.3H389.3a4,4,0,0,0-4.9,0H231.1a23.6,23.6,0,0,0-12.9,0h-1.6a46.3,46.3,0,0,0-17.8,0h0a4.3,4.3,0,0,1-2,1.5l-1.5.7-.6.6a13.6,13.6,0,0,0-1.1,2.5,6.6,6.6,0,0,1-1.7,2.9,10.2,10.2,0,0,1-2.2,1.4,12.7,12.7,0,0,1-2.8.6c-41.9.3-83.9.1-125.8.1a17.5,17.5,0,0,1-4-.4,20.9,20.9,0,0,1-3.5-1.3l-2-.9a18.2,18.2,0,0,0-5.1-1.3,6.7,6.7,0,0,1-2.8-1.4l-1.5-.3c-1.1-1-2.6-.6-3.9-.7l-2-.5c-3.4-1.4-6.9,3.1-10.2-.3h0C25.2,291.3,23.3,290.9,24.4,289Z" style="fill:#020202"/><path d="M674,310.6c-8.4,3.9-17.7,4.3-26.6,5.7-4.1.6-8.4.4-12.6.6l-83.9-.3-485.7-.2c-11.9,0-23.3-2.4-34.6-6.1a6.1,6.1,0,0,0,.7-1,7.3,7.3,0,0,1,4.3-1.1,13,13,0,0,1,4.4.5,43.1,43.1,0,0,0,6.2,1.5l2.1.5c2.3.7,4.6.5,6.9.6a25.1,25.1,0,0,1,5.5.7c3.7.9,7.5.5,11.2.5H630.6c4.3,0,8.6.4,12.8-.9,6.8-1.4,13.6-2.6,20.4-3.5C667.4,307.6,671.3,306.8,674,310.6Z" style="fill:#a6a6a6"/><path d="M30.6,310.3c-10.4-1-12.5-3.1-10.8-10.9.6-2.8,2.1-4.8,4.9-2.7s6.3,2,9.5-.2,6.3-.7,9.5-.9c46.3,6.6,92.9,1.4,139.4,3.1,2.9.1,5.9-.6,8.6,1.1a1.7,1.7,0,0,1,.2,2.7c-2.3,1.7-5.1,1.6-7.7,1.6-42.4,0-84.8.3-127.2-.1-4.3-.9-8.7-1.6-12.8-3.4s-7.1-1-10.4,1.1L32,302.9l-1.7,1a12.9,12.9,0,0,1-1.6.9c-.9,2.2,1.8,1.7,2.2,2.9s.3.7.5,1l-.3,1Z" style="fill:#a6a6a6"/><path d="M192.1,300.1l-128.9-.2a42.4,42.4,0,0,1-19.5-4.3,4.3,4.3,0,0,0,0-1.6H47c1.4,1.4,3.5.2,4.9,1.5h1.6l1.7,1.4,3.1.2c1.7,1.2,3.6.8,5.5.8H185.3c1.8,0,3.8.4,5.5-.8h0a11.5,11.5,0,0,0,1.4-1.7,30.3,30.3,0,0,1,.2-3.1l1.5-1.7h0a12.9,12.9,0,0,0,1.7-1.6h3.2v1.7c-.7,2.9-2.8,5-3.9,7.7a6.1,6.1,0,0,1-1.7,1.5Z" style="fill:#302f30"/><path d="M29.3,313.1c-12.2.6-11-2.2-11.4,11.9-.2,7.4,1.8,14.9-1.3,22.1-.1-10.2.1-20.4-.2-30.6-.2-5,1-6.9,6.2-5C24.7,312.3,27.5,310.8,29.3,313.1Z" style="fill:#302f30"/><path d="M95.4,318.2a6.6,6.6,0,0,1,.1,1.4c-2.4,2.7-5.8,2.3-8.9,2.3-9.9.1-19.7,0-29.6,0-2.8,0-5.7.1-8.4-.9a3.4,3.4,0,0,1-1.9-1.8,6.9,6.9,0,0,1,.5-1.3Z" style="fill:#302f30"/><path d="M16.6,348.7c2.9,5.7.8,11.9,1.3,17.8C15.1,360.8,16.8,354.6,16.6,348.7Z" style="fill:#302f30"/><path d="M37.4,292.1H39c.4.2.6.5.5.8s-.2.5-.3.5l-6.6.5a3.6,3.6,0,0,0-.4-1.1C33.7,290.7,35.5,291.2,37.4,292.1Z" style="fill:#302f30"/><path d="M35.7,314.9c2.3,0,4.8-.7,6.7,1.4l-.7.8a5.4,5.4,0,0,1-6.1-.3A1.5,1.5,0,0,1,35.7,314.9Z" style="fill:#302f30"/><path d="M32.6,294c-2.2,2.1-4.4,2.1-6.6-.1l.2-.2a7,7,0,0,1,6.3,0Z" style="fill:#302f30"/><path d="M29.4,314.7v-1.6c1.7.2,3.6-.1,4.8,1.7a3.4,3.4,0,0,1-3,1.1A3.6,3.6,0,0,1,29.4,314.7Z" style="fill:#302f30"/><path d="M30.9,314.9h4.8a7.6,7.6,0,0,1,.1,1.5C33.6,317.7,31.6,318.4,30.9,314.9Z" style="fill:#161616"/><path d="M42.4,316.3c1.7.2,3.5,0,4.8,1.6l-.3.3a4.4,4.4,0,0,1-2.9,1.1,4.6,4.6,0,0,1-1.9-.8,1.8,1.8,0,0,1,0-2Z" style="fill:#302f30"/><path d="M39.2,293.5a5.1,5.1,0,0,1-.2-1.3c1.3,0,2.5.2,3.2,1.5Z" style="fill:#161616"/><path d="M644.3,169.5l-1.4.4a2,2,0,0,1,1.6-1.9A7.7,7.7,0,0,1,644.3,169.5Z" style="fill:#1c1c1c"/><path d="M579.8,158.3c4.1,4.8,9.7,5.5,16,6-2,3.7-3.7,6.5-8.6,3.9s-9.1.1-13.4,2c-.9.5-2.1,2.1-1.5,2.5,4.6,3.2,1.1,9.2,4.7,12.6a31.2,31.2,0,0,0,12.1,7.5c3.6,1.3,5.4-.9,6.1-3.4s-1.7-3.4-4-3.7c-3.9-.6-6.6-3.3-9.6-5.6-1.3-1-2.2-2.5-.7-4.1s2.5-.5,3.4.5c3.1,3.3,6.2,3.4,9.9.7s4.1-.3,5.1,3c1.8,5.8,0,11.2-.2,16.7-.2,8.1-5.4,16.8.9,25.1,2.5,3.3-1.5,6.9-7.4,5.4s-13.9-.6-20.8-1.5c-16.3-2.1-32.6-3.9-49.1-3.3-4.6.1-7.1-3.4-7.4-8.1a60.5,60.5,0,0,0-5.3-20c-.5-1.2-1.4-2.7-1.1-3.8,2-6.5.4-12.3-4.6-18.5a32.1,32.1,0,0,1,10,1.6c2.6.9,5.6,1.4,7.6-.8,3.5-4.1,8.1-3.5,12.6-3.5,7.7,0,15.5.4,23.2-1.5,2-.5,4.6-.2,5.2-2.7s-2-3.2-3.6-4.5-5.4-1-.5-2.6Z" style="fill:#fefefe"/><path d="M650.8,269.6H646c-4.6,1.3-9.3.6-14,.4a7.9,7.9,0,0,1-4.2-5.5c-1.3-14.4-3.9-28.6-4.4-43a169.7,169.7,0,0,0-7.9-41.2c-.9-2.8-.8-5.7-.8-8.7s.6-4.8-1-7h0a2.2,2.2,0,0,1,0-3.2h8.1c.9.9,2.3.5,3.2,1.5h0c.5.5,1,1.1,1.6,1.6h0c.5.6,1.1,1,1.6,1.6,3.6,1.6,4.9,4.9,6.5,8.1l1.5,1.6c2,5,4,9.9,5.8,14.9.7,1.9,1.7,4.7-1.2,5.2s-2.6-2.1-2.9-4c-1-6.2-4.5-11.2-7.6-16.4-.7-1-1.6-2.2-3.7-1.9-2,2.9.8,5.4,1.7,7.7,3.1,9.1,1.8,19.1,6,28a6.5,6.5,0,0,1,0,3.9c-1.9,8.5,6.2,16.5,1,25.1,4.4,5.1,1,10.8,1,16.2-.1,9.6.1,9.9,9.7,10a2.2,2.2,0,0,1,3.2.1C650.2,266.3,652.8,267.1,650.8,269.6Z" style="fill:#f5f5f5"/><path d="M616.8,169.7c-.3,5.4,1.5,10.4,2.7,15.5,2.5,11.8,6.6,23.5,5.6,35.8,1.5,6.6.3,13.3.6,19.9.1,1.3.1,2.8-1.5,3.3a3,3,0,0,1-4-1.8c-1-3.6-2.8-6.6-1.9-11.2,1.8-9.8,2.2-20-3-29.4-.8-10.5-5.8-20.1-6.4-30.7-.4-3.6,1.2-5.3,4.8-4.8C615.3,166.9,616,168.3,616.8,169.7Z" style="fill:#b5b5b5"/><path d="M649.2,264.8H646c-1.9-8.2-3.8-16.4-.6-24.7,1.1-2.8.2-5.3-1.1-7.7-2.3-4-1.6-8.3-1.3-12.5a2.8,2.8,0,0,1,2.6-2.7c1.8-.1,1.6,1.6,2,2.8,2.6,8.2,4.6,16.4,8.5,24.3s.7,15.1,1.1,23C653.7,267,652,263.8,649.2,264.8Z" style="fill:#cdcdcd"/><path d="M616.8,169.7l-3.1-3.4v-1.6A4.6,4.6,0,0,1,616.8,169.7Z" style="fill:#efefef"/><path d="M655.6,271.2c-1.7-.1-3.5.2-4.8-1.4C652.6,269.6,654.5,269.2,655.6,271.2Z" style="fill:#cdcdcd"/><path d="M605.6,159.9h4.9C608.9,162.1,607.2,162.1,605.6,159.9Z" style="fill:#b5b5b5"/><path d="M625,163.1a3.4,3.4,0,0,1-3.2-1.5C623.1,161.5,624.3,161.7,625,163.1Z" style="fill:#efefef"/><path d="M613.7,161.5v3.2C612,163.6,611.9,162.6,613.7,161.5Z" style="fill:#efefef"/><path d="M626.6,164.7l-1.6-1.6Z" style="fill:#efefef"/><path d="M628.2,166.3c-.5-.6-1.1-1.1-1.6-1.6S627.7,165.7,628.2,166.3Z" style="fill:#efefef"/><path d="M636.2,176l-1.5-1.6Z" style="fill:#efefef"/><path d="M657.1,273l-1.5-1.8Z" style="fill:#cdcdcd"/><path d="M581.3,72.8c-1.9-1.1-3.3-2.6-3.2-5C580.5,68.7,581.8,70.2,581.3,72.8Z" style="fill:#b3b3b3"/><path d="M30.9,314.9c1.2,1.9,3.1,1.5,4.9,1.5H39c.8,1,2.4.5,3.2,1.6h0c1.3,1.5,3.6,0,4.9,1.5h8c3.1,1.5,6.4.8,9.5.8H532.2c5.5,2.7.8,3.9-.8,5.6h-6.5c-3.3.1-5.6,2.2-4.6,5.1,2.1,5.8-.6,11.1-.4,16.6.4,8.5-.3,8.9-9.1,8.9H194.9c-10.6,0-10.6,0-10.6-10.9V334.6c-.1-8-.6-8.4-8.9-8.5h-7.3c-5.2,3.9-11.2,1.7-16.9,2.1-3.9.3-7.9.1-11.9.1-12.5.1-25,.4-37.5-.4-15.7-2.7-31.4-1.4-47.1-.8-7,.2-9,5.4-7.5,15.4-.1.4-.1.9-.2,1.3.1,2.2.1,4.3.3,6.4s2.2,3.8-.9,4.6-5.4-.4-5.4-3.2c0-6.2-5.2-11.4-2.4-18.5,2-5.2-2.9-10.6-10-13.5-1.7-.7-4-1.2-3.4-3.5s2.7-1.2,4.2-1.5Z" style="fill:#040404"/><path d="M352.2,471.4H100.4a67.3,67.3,0,0,1-13.5-1.6c-3.8-.8-5-3.3-4-6.6s3.8-1.7,5.9-.8a5.5,5.5,0,0,0,3.8.6c18.6-5.2,37.6-2.5,56.4-2.3,4.5,0,8.9-.7,13.4-.7,124.8.1,249.7-.2,374.5.6,13.4,0,26.9-2.2,40.6.6,5.2,1,11.5-1.2,17.4-1.1s9.2-.6,13.3,2.1c2.6,1.7,4.7-.2,6.8-1.1s6.8-.7,7.9,2.7-2.9,3.3-5,4.6c-5.5,3.4-11.3,3-17.1,3Z" style="fill:#050505"/><path d="M617,355.2c-3.8,0-4.9,2.5-5.5,5.6a3.5,3.5,0,0,0,.9.6c2.7,1.1,7.7-1.6,8,2.8s-4.6,2.5-7.2,3.8-7.3,4.5-10.9-.5a4.1,4.1,0,0,0-5.3-.5c-4.4,3.8-8.8,2.6-13.6,1.2s-6.9.6-10.2,1.8-7.1,2.4-10.6-.5c-1.8-1.5-3.5-1.1-4.9.5-3.6,4.3-7.5,2.9-11.5.7s-8.9-4.5-14.4-4.4-9.6.8-12.7,6.2-5.2,4.5-7.3-1.2-4.8-7-10.6-5.4-13.9,3.4-21.3.9c-3.3-1.2-7.4.1-11.1.1-6.9,0-13.8-1.3-21-2.2,1-3.9,3.6-4.9,5.8-4.5,13.9,2.3,27.8-1.7,41.6,0,11.8,1.5,23.4-1.1,35.1-.2,1.9.1,4.5.8,5.5-2a4.8,4.8,0,0,0-1.8-5.7c-5.8-4.8-6.5-11.9-8.8-18.3,3.2-2.5,5.6,4,8,.3s2-5.4,3-8.1c2.5-2.6,5.4-2.2,8.5-1.3s1.5,3-.4,4.1-4,1.7-4.9,3.9a21.2,21.2,0,0,1-1.1,2.1c-3.6,12.9-.4,17.3,12.7,18.1,15.7.9,31.5,2.7,47.3.1,5-.8,8.9-5.5,14.5-3.6s11.3,1.3,17,1.7,9-1,13,2a1.9,1.9,0,0,1-.6,2.6C633.7,358.2,625.3,359.1,617,355.2Z" style="fill:#2a1c13"/><path d="M545.9,326.2H531.4c1-1.6,2.1-3.2,3.2-4.8,2.7-1.6,5.7-.8,8.6-.8h99c2.8-.1,5.9.8,8.6-.9h1.6c3.6-1.6,8.2.4,11.3-3.1h.1c4.6-2.2,10.3,1,14.5-3.2h0a46.3,46.3,0,0,1,5.5.6,2.7,2.7,0,0,1,2,3.1c-.4,1.4-1.6,2.9-2.9,2.2-4.5-2.3-7.1,3.2-11.3,2.4-2.3-.5-2.8,1.7-3,3.7-1,6.6-2.7,13.1-3,19.7-.5,11.7-8.3,14.2-16.2,14.9s-18,.1-27,.2c-3.5.1-5.9-.6-5.4-4.8h25.7a7.8,7.8,0,0,1,4.3-2c9.1-1.9,9.5-2.3,9.6-12s-3-12.3-12.4-12.6c-11.1-.4-22.3,0-33.4-.2-18.4.1-36.8.5-55.1.2C552.3,328.5,548.7,328.9,545.9,326.2Z" style="fill:#0b0808"/><path d="M129.5,412c0-2.1-.3-4.4.1-6.4,1.1-5.2,4.3-8.3,9.8-6.4,3.7,1.3,7.4,1.1,11.1,1.2,7.2.2,10.6,3.4,11.2,10.6.2,3.8-.7,7.4-1.4,11.1s-2.8,5.9-6.9,5.8a27,27,0,0,0-6.4.3C134.4,430.5,129.4,425.9,129.5,412Z" style="fill:#030303"/><path d="M544.3,413.8c0-11.6,1.8-13.3,13.5-13.5,2.4,0,4.8-.4,7.2-.5s6.2-.2,8.3,1.9c6.2,5.8,2,12.6.9,18.9-.7,4.3-3.8,7.7-9.1,7.2a17.6,17.6,0,0,0-4,.2C548.9,429.8,544.3,425.9,544.3,413.8Z" style="fill:#020202"/><path d="M139.1,326.1h29c7.4,11.2,7.3,22.2-.4,32.3-2,2.7-4.8,3.1-7.9,3.1H107c-4.3,0-8-1.5-10.5-5s-3.2-3.5-5.9-3.2l-.5-1.1.3-1.2c2.8-4.3,5.9-3.1,9.1-.5a19.8,19.8,0,0,0,3.1,1.9c15.4-1.2,30.9.8,46.1-2.2,2.4-.1,4.6,1,7,1.4,7,1.4,9.6-.8,8.4-7.9-.6-3.6,2.8-6.4,1.1-10a10.7,10.7,0,0,0-2-2.3c-3.1-2.7-6.8-1.7-10.3-1.5C147.7,330.7,142,333.2,139.1,326.1Z" style="fill:#351a09"/><path d="M90.5,352a7.6,7.6,0,0,1,.1,1.5c-8,0-16-.4-24,.2S51,352.4,47,343.9h0c-.9-3.5-3.3-7.1,1-10,.7.3,1.6.7,1.8,1.5,2.6,12.7,11.7,14.9,22.8,14.4,5.2-.3,10.6-.6,15.8.6A4.2,4.2,0,0,1,90.5,352Z" style="fill:#4c240b"/><path d="M650.8,319.6c-2.3,2.8-5.5,1.6-8.3,1.6H65.1c-3.3,0-7,1.4-10-1.5H650.8Z" style="fill:#161616"/><path d="M193.5,298.3a8.5,8.5,0,0,1,5.3-7.6l186.2.2c38.7.1,77.4,0,116.1,0,2.1,0,4.4-.8,6,1.4-1.4,1.7-3.4,2.2-5.3,2.9a10.2,10.2,0,0,1-2.5.6c-8.4.4-16.8.8-25.2-.3-3.1-1.2-6.2-.6-9.2.3-22.8.9-45.6.8-68.3.1a19.5,19.5,0,0,0-6.8-.3,55.8,55.8,0,0,1-15.8-.1,16,16,0,0,0-11.2,0,43.5,43.5,0,0,1-14.4,0c-3.2-1-6.5-1.4-9.8-.1a25.5,25.5,0,0,1-10.3,0,19.8,19.8,0,0,0-12.5.1,71.1,71.1,0,0,1-19,.1,14.5,14.5,0,0,0-8,.2c-19.7.8-39.4.9-59.1,0-4.2-1.2-8.4-2-12.7-.6a22.1,22.1,0,0,1-8.5.3c-2.3-.5-4.6-1.6-7-1.2l-1.7.5-1.4,1-.6.7-1,1.4a4.9,4.9,0,0,1-1.2,1.3,3.7,3.7,0,0,1-1.8-.1Z" style="fill:#a6a6a6"/><path d="M674,310.6c-7.2-1.9-14.1.8-21,1.7-2.9.4-5.7.8-8.6,1s-5.3.7-8,.3c-1.8-5.4.9-7.9,5.8-8.8s7.2-.3,10.8-.5c-5.5-.3-11,0-16.5-.1-39.2.2-78.3-.5-117.3.4a12.4,12.4,0,0,1-5.4.4,9.1,9.1,0,0,1-5.1-3.3,6.9,6.9,0,0,1-1-1.9,6.2,6.2,0,0,1,0-3.3,2.4,2.4,0,0,1,1.4-1.4c2.4,4,5.5,5.7,10.5,5.7q60.6-.4,121.2-.4c6.8,0,13.4-.8,19.6-3.4s9.9.6,14.3,2.6c6.9,3.3,6.9,6.7.3,10.8l-.5.2Z" style="fill:#cfcecf"/><path d="M675,310.4c5.2-5.4,5.2-5.6-1.3-9.2-4.1-2.3-8-5.3-13.3-4.2,2.4-2.6,5.6-2.3,8.2-1.3s7.1,1.8,10.9.2,6.5-.7,6.6,3.4,2.3,8.7-3.4,10.1C680.3,310,677.7,311.4,675,310.4Z" style="fill:#9e9e9e"/><path d="M198.8,288.9a22.5,22.5,0,0,1,17.8,0Z" style="fill:#161616"/><path d="M678.3,313.3c-3.8,5.7-9.7,2.2-14.5,3.2C668.2,313.6,673.8,315.8,678.3,313.3Z" style="fill:#161616"/><path d="M663.7,316.5c-2.6,5-7.4,2.6-11.3,3.1C655.8,317.2,660.1,318.1,663.7,316.5Z" style="fill:#161616"/><path d="M218.2,288.9a12.9,12.9,0,0,1,12.9,0Z" style="fill:#161616"/><path d="M502.3,293.8c1.1-1.9,3.1-1.2,4.8-1.5a3.2,3.2,0,0,1,2,2.8l-.5.5a2.6,2.6,0,0,1-1.9.5C505,295.7,503.3,295.3,502.3,293.8Z" style="fill:#cfcecf"/><path d="M384.4,288.9c1.7-2,3.3-2,4.9,0Z" style="fill:#161616"/><path d="M649.2,292.2a293.2,293.2,0,0,1-29.6-1.4c-13.4-1.2-26.7,2.1-40.1,1.5-9.1-.3-18.1-2.4-27.3-1.8-6.9.4-13.7,2.4-20.7,1.8-3.6-.3-6.9-.7-10-2.6s-4.7-1.6-3.8-4.3,3.1-2.7,5.4-2.7l28.5-.2c20.7,0,41.4.1,62.2,0,8.2-.1,16.4.8,24.5-2.7a13.9,13.9,0,0,1,13.9,1.5c2.4,1.8,3.2.1,3.6-2.1l1.3.2c.6,2.1-.6,4.8,1.8,6.4l1.6,1.6C657.5,290.8,652.4,289.1,649.2,292.2Z" style="fill:#1f1209"/><path d="M173.2,24.4l17.5-.2c13.5-1.7,27.1-.3,40.6-.7,2.3.5,4.7.5,7.1.9,5.8.8,6.2,3.4,2.1,7.2a8.5,8.5,0,0,1-3.1.9c-12.6,1.6-18.4,8.1-19.7,21.2-.9,8.9-5.9,15.5-12.8,20.6s-12.3,2.1-15-4.7-6-7.8-11.9-6.6a13.3,13.3,0,0,1-5.6.4c-9.8-2-17.7.3-23.1,9.4-1.4,2.4-4,3.6-6.9,1.8a4.1,4.1,0,0,1-1-2.1,5.9,5.9,0,0,1,.5-2.3,4.7,4.7,0,0,1,.5-1l1.5-2.9c1.5-3.6,4.5-6.4,5.3-10.4a4,4,0,0,1,1.5-1.4,6.5,6.5,0,0,1,2.1.4c4.6.4,5.2-3.9,7.5-6.3,4.3-4.4,8.5-6.8,15.6-5.4a30.7,30.7,0,0,0,25.5-6.9A33.4,33.4,0,0,1,216.1,29a10,10,0,0,1,2.4-.4c-.5-.9-1.3-.5-2-.5h-33c-3.4,0-7,.5-10.2-1.5A1.3,1.3,0,0,1,173.2,24.4Z" style="fill:#8a8a8a"/><path d="M474.9,19.4h8c6.4,2,13.1-.6,19.4,1.5l25.8.2a5,5,0,0,0,4.9.1c9.2-1.6,13.9,2.8,18.9,10.5,8.7,13.3,17,26.8,25.4,40.3,1.7,2.8,2.6,5.9,4.1,8.6-.2,1.7-.4,3.3-2.4,3.8a4.7,4.7,0,0,1-3.9-2.4c-4.1-9.4-11.6-16.7-15.6-26-3.3-7.6-9.5-13.3-13.2-20.7s-10.8-8.1-18.2-7.3c-5.5,0-11,.4-16.4-.6-7.4-1.9-15-.8-22.5-1-13.6-.2-27.3.6-40.9-1.8l-2.8-.5c-4.1-1.5-8.3-1-12.5-.8-13.4-.1-26.8-.3-40.3,0-6.6.1-13.3.5-19.9-.6-3.6-1.2-7.4-1.1-11.1-1.1H283c-2.7,0-5.4.2-8-.5s-4.9-1.3-3.4-4.7H419.9c8.6,1.8,17.4-.6,25.9,1.3l9.7.2C461.8,19.9,468.5,17.3,474.9,19.4Z" style="fill:#0b0b0b"/><path d="M579.8,84c0-1.3.2-2.6,1.6-3.3h0a12.9,12.9,0,0,0,1.6,1.7h0a4.4,4.4,0,0,1,1.2,1.5c.2,1.1.3,2.1.5,3.2a11.5,11.5,0,0,0,1.4,1.7h.1a10.6,10.6,0,0,1,1.5,1.5,7.7,7.7,0,0,1,.2,1.5l1.3,1.7.3,3.1a9.3,9.3,0,0,0,1.6,1.8h0a12.1,12.1,0,0,0,1.6,1.6h0c1.4,1.3.1,3.5,1.5,4.8a7.7,7.7,0,0,1,.2,1.5,5.5,5.5,0,0,0,1.6,1.8h0a8,8,0,0,0,1.5,1.7,3.3,3.3,0,0,1,.1,1.4c.8,1,.5,2.5,1.5,3.4a7.6,7.6,0,0,1,.1,1.5,13.7,13.7,0,0,0,1.6,1.8h0l1.5,1.7a6.1,6.1,0,0,1,.1,1.4l1.3,1.8.3,3.1,1.5,1.7a7.7,7.7,0,0,1,.2,1.5,8.4,8.4,0,0,0,1.5,1.8h0c.9.8.6,2.3,1.5,3.2a8.8,8.8,0,0,0,.2,1.6c.9.9.5,2.4,1.6,3.3h0l1.5,1.6a7.7,7.7,0,0,1,.2,1.5l1.2,1.7.3,3.3,1.4,1.6,2,3.1c-3.8,5.3-8.7,1.9-13.2,1.8h-4.8a3.8,3.8,0,0,0-4.7,0h-6.6c-2.7-1.2-5.6-.4-8.5-.6-25.4,1.1-50.6-3.9-76-4.5-12-.3-24,0-36.1-.4-2.1-.1-5.5,1.2-5.6-2.5s3.1-3.5,5.4-3.6c13.7-.5,27.4,0,41-.3,6.2-.2,12.4-.1,18.5.1s14.8,1.6,22.5.3c-2.6-1-5.1-.5-7.4-.8s-6.6.3-7.4-3.3,2.2-5.6,5.4-6.8c13.9-1,27.6-1,37.8,10.9,2.7,1.4,5.3,3.1,8.5,3.1h3.3c3.9.1,7.8-2.1,11.6.1a15.1,15.1,0,0,1,1.8.9l1.5,1,.8.4c.9.2,1.4-.2,1.8-1a8.7,8.7,0,0,0-.9-4.5c-.4-.9-.9-1.7-1.4-2.6a9.7,9.7,0,0,1-2-5.5c-.1-.8-.2-1.7-.4-2.6a10.1,10.1,0,0,0-.7-1.5l-1-1.3-.6-.6a6.6,6.6,0,0,1-1.4-2l-.8-2.4a8.8,8.8,0,0,0-1.2-2.1,30.5,30.5,0,0,1-1.9-3,19.6,19.6,0,0,1-1.3-2.5c-.5-1.4-.9-2.9-1.5-4.3s-.7-1.7-1.1-2.5a8,8,0,0,1-.8-1.6c-.4-.7-.7-1.5-1.1-2.3a21.7,21.7,0,0,1-.7-2.4,6.1,6.1,0,0,0-.7-1.4l-.4-.7-1.1-1.2-.6-.6a10.7,10.7,0,0,1-1.5-2.2,26,26,0,0,0-1-2.5,10.4,10.4,0,0,0-1.7-2.4C579.3,89.3,577.2,87,579.8,84Z" style="fill:#080808"/><path d="M508.8,143.7H461.3c3.3,4,5.9,3.1,8,3.2h25a473.8,473.8,0,0,1,60.6,4.5c8.6,1.3,17.6.3,26.5.4.5.3.7.6.5.9a.5.5,0,0,1-.5.4l-16.3.5c-21-.6-41.7-4.2-62.7-4.3-12.3,0-24.7-.4-37.1-.7l-98-2.1c-35.2-.8-70.3,1.1-105.5,1.4-16,.1-32.1,2-48.2.8H169.1v-2.1c2.2-2.2,5.2-1,7.8-1.3,8.4-.9,17,1.9,25.3-1.6a3.2,3.2,0,0,1,2.1-.8,5.8,5.8,0,0,1,2.2.8c10.8,2.2,21.7.7,32.6.8,3.3,0,4.7-3.2,6.9-5a8.2,8.2,0,0,1,8,.4c2.5,3.9,6.5,3.1,10.1,3,41.4-1,82.7-2.3,124.1-1.6,15.3.2,30.6,1.4,45.8,2.8a46.5,46.5,0,0,0,12.9-.2c3.1-.6,5-2,3.5-5.6,1.7-3.4,5-3.5,7.5-2.3,12.2,5.9,25.2,2.9,37.8,3.6,3.7.2,7.5-.3,11,1.1A2.8,2.8,0,0,1,508.8,143.7Z" style="fill:#0e0e0e"/><path d="M271.6,16.5c1.2,4.9,5.3,2.7,8,2.8l85.2.2c2.9,0,6-1.1,8.4,1.4-4.4,4.2-10,1.6-15,2.6-21.7.4-43.4-.4-65.1-.2-8.9-.2-17.8.4-26.7-.4a33.8,33.8,0,0,0-17.3-.5A6,6,0,0,1,244,21c-2.4-.5-5.2.9-8.6-2.8C248.5,18.4,259.9,15.4,271.6,16.5Z" style="fill:#1e1e1e"/><path d="M232.7,24.3h-42c2.4-2.6,5.6-1.5,8.4-1.5l44.8-.2.5,1.2a2.3,2.3,0,0,1-1.9,1.4C239.3,24.6,235.9,25.9,232.7,24.3Z" style="fill:#4d4d4d"/><path d="M265,20.9l27.4.2a1.4,1.4,0,0,1-.2,2.1,7.9,7.9,0,0,1-3.5,1.3l-6.5.3h-2.7c-5.5.2-11.1.2-16.7.2s-12.8,1.4-18.7-2.3l-.2-.2A7.6,7.6,0,0,0,244,21h4.8A36.9,36.9,0,0,1,265,20.9Z" style="fill:#4d4d4d"/><path d="M445.8,17.7c-8.6-.6-17.4,1.5-25.9-1.3C428.6,16.7,437.3,14.8,445.8,17.7Z" style="fill:#1e1e1e"/><path d="M474.9,19.4c-6.5-.7-13.2,1.6-19.4-1.5C461.9,18.4,468.6,16.3,474.9,19.4Z" style="fill:#1e1e1e"/><path d="M502.3,21c-6.4-.7-13.1,1.6-19.4-1.5C489.4,20.1,496,18,502.3,21Z" style="fill:#1e1e1e"/><path d="M603.9,153.4c4.4-.8,9.2,1.8,13.2-1.8.9,1.1,1.5,2.9-.3,3C612.5,154.8,608,156.3,603.9,153.4Z" style="fill:#0b0b0b"/><path d="M581.4,153.1v-1.3c2.2.2,4.6-.8,6.4,1.4Z" style="fill:#0b0b0b"/><path d="M533,21.3c-1.6,1.7-3.3,1.7-4.9-.1Z" style="fill:#1e1e1e"/><path d="M594.2,104.9c-1.9-1.1-1.4-3-1.5-4.8C594.5,101.3,594.2,103.2,594.2,104.9Z" style="fill:#0b0b0b"/><path d="M594.4,153.3c1.6-2,3.1-2,4.7,0Z" style="fill:#0b0b0b"/><path d="M599.1,114.6c-1.4-.7-1.5-2-1.5-3.4A3.6,3.6,0,0,1,599.1,114.6Z" style="fill:#0b0b0b"/><path d="M610.5,138.9c-1.4-.7-1.6-1.9-1.6-3.3C610.1,136.3,610.4,137.5,610.5,138.9Z" style="fill:#0b0b0b"/><path d="M608.7,134a3.3,3.3,0,0,1-1.5-3.2C608.5,131.5,608.7,132.7,608.7,134Z" style="fill:#0b0b0b"/><path d="M173.2,24.4a5,5,0,0,0-.4,1.3,2.1,2.1,0,0,1-2.3,1,1.5,1.5,0,0,1-1.1-1.2l1.7-1.5Z" style="fill:#4d4d4d"/><path d="M589.2,93.6l-1.3-1.7Z" style="fill:#0b0b0b"/><path d="M583,82.4l-1.6-1.7Z" style="fill:#0b0b0b"/><path d="M584.2,83.9,583,82.4Z" style="fill:#0b0b0b"/><path d="M587.7,90.4l-1.5-1.5Z" style="fill:#0b0b0b"/><path d="M586.1,88.8a11.5,11.5,0,0,1-1.4-1.7A11.5,11.5,0,0,0,586.1,88.8Z" style="fill:#0b0b0b"/><path d="M612,140.4l-1.5-1.6Z" style="fill:#0b0b0b"/><path d="M613.4,143.6l-1.2-1.7Z" style="fill:#0b0b0b"/><path d="M615.1,148.5l-1.4-1.6Z" style="fill:#0b0b0b"/><path d="M591.1,98.5l-1.6-1.8Z" style="fill:#0b0b0b"/><path d="M592.7,100.1l-1.6-1.6Z" style="fill:#0b0b0b"/><path d="M596,108.2l-1.6-1.8Z" style="fill:#0b0b0b"/><path d="M597.5,109.8l-1.5-1.7Z" style="fill:#0b0b0b"/><path d="M600.8,117.9l-1.6-1.8Z" style="fill:#0b0b0b"/><path d="M602.3,119.5l-1.5-1.7Z" style="fill:#0b0b0b"/><path d="M603.7,122.7l-1.3-1.8Z" style="fill:#0b0b0b"/><path d="M605.5,127.5l-1.5-1.7Z" style="fill:#0b0b0b"/><path d="M607.2,130.8l-1.5-1.8Z" style="fill:#0b0b0b"/><path d="M629.9,264.8c.5,1.6,1.1,3.2,1.6,4.8l-.8.7-.9-.6H625a1,1,0,0,1-1.6,0h-.1v-4.8A6.7,6.7,0,0,1,629.9,264.8Z" style="fill:#cdcdcd"/><path d="M631.5,269.6H646c-4.6,2.7-9.6,1-14.5,1.3a.6.6,0,0,1-.4-.8c.1-.3.2-.5.3-.5Z" style="fill:#cdcdcd"/><path d="M623.4,269.7H625l-1.7,1.3A5.3,5.3,0,0,0,623.4,269.7Z" style="fill:#c2c2c2"/><path d="M631.4,269.7c0,.4.1.9.1,1.3l-1.7-1.3Z" style="fill:#c2c2c2"/><path d="M84.2,240.6c6.1-4.4,13-.4,19.4-1.7a1.5,1.5,0,0,1,.7-.3c23.8,1.5,47.2-4.9,71-3.8,4.4.2,9.3-.6,12.2,4.1s1.6,11.6.9,17.4a42,42,0,0,0-.8,4.7c.1,8.7.1,8.7-8.8,8.7-29,0-58-.2-87,.1-6,.1-8.6-1.5-7.5-7.7S84.1,247.8,84.2,240.6Z" style="fill:#fdfdfd"/><path d="M187.5,238.9c-2.9-1.8-6.1-1.5-9.3-1.6-24.9-.5-49.7,2.9-74.6,1.6,5.4-3.4,11.4-1,17.1-1.5s11.3-.1,16.9-.1c1.7,0,3.6-.6,3.6-2.4s-2-2.4-3.7-2.4c-8.3,0-16.6.3-24.9-.1s-15.9,1.9-23.6-1.5c10.7,0,21.4.2,32.1-.1s23.2.2,35-2.5,21.9-.2,33,.8c6,.5,8.8,4,9.4,9,1.1,7.9-.5,16,1.7,23.9.5,1.8-1.3,2.6-3.1,2.7a25.7,25.7,0,0,1-.3-14.8,19.9,19.9,0,0,0-.7-11.8c-1.1-3.1-1.9-7-5.7-6.5S187.7,236.2,187.5,238.9Z" style="fill:#ebebeb"/><path d="M61.4,180.8l.4,1.9c-3.6,6.6-3.6,14.6-8,21a4.6,4.6,0,0,1-.7-.7C54,194.9,52.8,186,61.4,180.8Z" style="fill:#2f2f30"/><path d="M61.6,292.2a54.2,54.2,0,0,1-19.4-4.7c6.7,1.3,5.5-5.3,8.1-8.1,0,2.1,1.1,3.1,3.2,3.1C55.5,286.3,60.3,287.8,61.6,292.2Z" style="fill:#1d1208"/><path d="M39,166.3c-9.5.8-18.4-2.8-27.8-3.3-3.4-.2-4.2-2.4-4.5-5.5-.5-6,.8-11.9,2.1-17.4s7.4-6.1,12-5.9c11.6.6,23.4-1.6,35,1.3,2.8.6,5.7.8,8.1,2.7a2.3,2.3,0,0,0,3,0c1-.9.5-1.9-.1-2.8s-5.1-3.9-2.7-6.7,5.5-.3,8.1,1a11.7,11.7,0,0,0,5.5,1c1.3,2,.5,4.5,1.7,6.6a11.3,11.3,0,0,1-3.1,6.6c-5.7.9-6.2,6-7.6,10.1-3.8,10.6-5.4,11.6-16.5,10.4C47.7,163.9,43.4,165.4,39,166.3Z" style="fill:#212121"/><path d="M39,166.3c4.3-3.6,9.3-5.2,14.7-3.8s11.5-.5,12.5-7.5c.6-4.5,3.2-7.8,4.9-11.6,1.1-2.2,3.9-4.9,5.2.5l-1.7,6.3c-4,7-5.7,14.9-8.5,22.4a3.7,3.7,0,0,1-1.3,1.7h0c-.5.6-1.1,1.1-1.5,1.7h0c-1.1.9-.8,2.3-1.6,3.3a4,4,0,0,1-.3,1.5c-5.4,6.4-5.5,14.8-8.3,22.2-2.3.2-2.4-1-2-2.9.9-3.7,1.6-7.5,2.3-11.3a6.8,6.8,0,0,0,.2-1.4c1-.9.4-2.5,1.5-3.4s.1-1,.2-1.5.4-2.4,1.3-3.3l.2-3.2a1.1,1.1,0,0,0,.4-1.1c-.2-.4-.3-.5-.4-.5h0a12.2,12.2,0,0,0-3.2-3.2h0a8,8,0,0,1-1.7-1.5h0L50.2,168l-3.1-.3c-2-1.4-4.6.3-6.5-1.4Z" style="fill:#0f0f0f"/><path d="M79.4,137.3c-5.5-.9-2.5-4.1-1.7-6.6s4.7-3.2,3.9,1.7C81.3,134.1,81.1,136.1,79.4,137.3Z" style="fill:#0f0f0f"/><path d="M40.6,166.3c2.2.1,4.7-.7,6.5,1.4H40.9A2.8,2.8,0,0,1,40.6,166.3Z" style="fill:#212121"/><path d="M32.5,293.7H26.2a7.6,7.6,0,0,1-.1-1.5c3.8,1,7.5-4,11.3-.1C35.6,292.3,33.7,291.9,32.5,293.7Z" style="fill:#161616"/><path d="M24.4,289l1.7,3.2C24,291.9,21.9,291.6,24.4,289Z" style="fill:#161616"/><path d="M53.6,171.1c2.1.1,3.2,1.2,3.2,3.2A4.9,4.9,0,0,1,53.6,171.1Z" style="fill:#212121"/><path d="M56.6,179.2a3.3,3.3,0,0,1-1.3,3.3v-3.1Z" style="fill:#2f2f30"/><path d="M50.2,168l1.7,1.5Z" style="fill:#212121"/><path d="M51.9,169.5l1.7,1.5Z" style="fill:#212121"/><path d="M56.8,174.4c1.1.5,1.1,1,0,1.6Z" style="fill:#212121"/><path d="M55.1,184a3.5,3.5,0,0,1-1.5,3.4l.2-3.1A5,5,0,0,1,55.1,184Z" style="fill:#2f2f30"/><path d="M250.6,174.2c6.3-1.8,10.4-.8,13.1,4.2,1.3,2.5,2.8,4.4,6.1,4s4.6-2.1,5-5.2,3.1-4.5,6.4-4.5c34.4.1,68.8-.5,103.3.4a226.5,226.5,0,0,0,34-1.7c3.2-.4,6.6.1,7.5,3.2,1.6,5.9,7.2,7.6,11,13.5.7-8.4,2.7-10.2,7.8-4.5,2.5,2.9,6.5,3.5,11.1,3.7,0-3.1-4.3-6.8.2-9s4.8-5.1,7.7-6.7a2.9,2.9,0,0,1,4.5,1.9c.6,2.1,1.2,4.1,1.7,6.2s.5,2.8,1.9,3.3,2.2-1.1,3-2.1c2-2.6,4.2-4.9,6.1-7.5s2.1-2.6,3.9-1.6a2.9,2.9,0,0,1,1.1,3.5c-1.8,4.5-2.3,8.2,3.2,10.5,1,.5,1.4,2.8,1.7,4.3,2.8,14.2,8.4,27.6,12.4,41.4,1.6,5.8.6,11.8.4,17.7-.1,3.4-2.7,4.4-5.7,4.2-24.4-.8-48.8,1.7-73.2-1.3-8.5-1.1-17.2-.2-25.8-.2H327.1c-18.5.1-36.9,1.5-55.4,2-13.4.3-26.6,1.9-40-.3-4.9-.8-9.8,2.1-15.1,1.6-3.3-.4-5.2-.7-3.6-4.7.9-2.1.1-4.2-1-6.2a12.5,12.5,0,0,1-1.3-10c1-3.3.4-6.8-3-8.1-6.3-2.5-3.2-5.9-1-8.7s7.2-5.8,4-11.9c-1-2,.2-8.5,6.1-8.6,2.3,0,4.3-.3,5.1-2.9a5.3,5.3,0,0,0-2.7-6.1c-8.2-4.8-1.4-10.1-.1-14.5s6-4.2,9.9-1.8l1.5.6c3.1,1.3,7.5-1.1,9.6,2.8s-2.5,5.4-3.6,8.2a5.2,5.2,0,0,0,.9,6c1.6,1.5,3.4,1.2,5.2.3s5.8-3.3,9.2-1.6,4.2,1.2,5.7-.9.9-5.1-.5-7.6S252.9,177,250.6,174.2Z" style="fill:#fefefe"/><path d="M629.9,264.8a5.6,5.6,0,0,1-6.6,0c-1.5-7.2-3.3-14.4-4.4-21.7-.8-4.5-2.4-4.8-6.9-4.7-16.1.6-32.1.9-48.2-.5-12.7-1.1-25.5-3-38.4-2.3-3,.1-5.6,1.5-8.6,1.8-1.3-1.9-3.2-3.2-4.8-4.9a8,8,0,0,1,7-3.2c31.4.7,62.7,1.3,94.1,2.4,5.6.2,6.1-2.7,5.4-6.2-1.5-7.9-.9-16-3.2-23.7,3.7,2,5,5.6,4.8,9.4-.4,7.4,1.3,14.9-1.1,22.3a5.6,5.6,0,0,0,.4,3.8c.9,2.1.6,5.8,3.5,5.6s1.9-3.7,2-5.8c.3-5.4.2-10.7.2-16.1.3.4,1,.9.9,1.3C625.2,236.6,630.2,250.5,629.9,264.8Z" style="fill:#c2c2c2"/><path d="M253.5,155.2c-2.3-4.1.6-4.6,3.5-4.7,5.1-.2,10.2-.1,15.3-.1q87.1-1.2,174.3.2c3.7,0,8.3-1,6,5.6-.8,2.3.6,3.6,2.9,3.8s5-.3,4.9-3.6,2.6-5,6.2-5.1c30.4-1,60.6,3,90.9,4.5.5,0,.9.5,1.4.7-19.2.5-38.4.6-57.5-2.8-4.4-.8-9.1-.2-13.7-.3-8.4,2.2-17,.3-25.5,1.6-.3,3.1.4,6.5-3.5,8.1a2.2,2.2,0,0,1-3.2-.1c-3-2-8.1-2.6-5.3-8.5.6-1.3-.8-2.4-2.3-2.5H263.4C259.8,151.9,255.6,150.7,253.5,155.2Z" style="fill:#e1e1e1"/><path d="M200.7,212.5c-3.3-6.6-1.2-11.1-.3-15.7,1.6-7.9.7-16.3,5.8-23.6,1.6-2.5.5-6.8.7-10.2a6.6,6.6,0,0,1,3.9-5.7c2.8-1.5,5.4.3,7.5,1.5s1.6,4.1.1,6.3c-4.3,6.1-6.3,13.3-8.5,20.3C207.1,193.9,204.2,202.4,200.7,212.5Z" style="fill:#ebebeb"/><path d="M506,210.2c-8.9-9.9-9.4-21.9-12.9-32.5-1.2-3.9-1.9-7.6-5.1-10.5s-3.5-5.5.2-8.7,6.1-.9,8.8,1.6,1.7,8.2,2.6,12.3C502.1,184.5,506.6,196.3,506,210.2Z" style="fill:#ebebeb"/><path d="M512,232.5c3,.3,7.9-1.4,4.8,4.9s-1.7,11.4-.5,17.2c.8,3.5,1.8,7.4-1.1,10.6a3.1,3.1,0,0,1-4.4.4c-3.5-2.5-1.9-6.3-2.1-9.6s-.2-8.5-1.2-12.7S507.1,234.7,512,232.5Z" style="fill:#bfbfbf"/><path d="M462.2,155c5.3-3.6,11.2-.9,16.8-1.6a84.2,84.2,0,0,1,8.7,0c-5.8,3.4-12.3,2.7-18.5,2.5C466.9,155.9,464.6,155,462.2,155Z" style="fill:#fefefe"/><path d="M455.5,163h3.2c-.1,2-1,3.7-3.3,2.8S454.3,164,455.5,163Z" style="fill:#fefefe"/><path d="M204.6,251.2h.4l.3.6-.6-.3A.6.6,0,0,1,204.6,251.2Z" style="fill:#fefefe"/><path d="M205.9,252.5h-.4a1.1,1.1,0,0,1-.2-.5l.5.2A.6.6,0,0,1,205.9,252.5Z" style="fill:#fefefe"/><path d="M134.2,153.3c.9-.4,1.9-1.3,2.8-1.3,16.3.1,32.6-3.1,48.9-1.8-.6.4-1.3,1.2-2,1.2C167.3,151.1,150.8,154.4,134.2,153.3Z" style="fill:#4b4b4b"/><path d="M248.4,157.7c-.2-.4-.7-1.1-.6-1.6s.9-1.9,2-1.5.5,1.3.5,1.9S249.7,157.9,248.4,157.7Z" style="fill:#4f4f4f"/><path d="M113.3,148.5h-8.2c-2.9-.3-5.9.6-9.2-1.1,4.9-11.1,10.5-21.9,16-32.7,10.9-21.4,24.7-41.2,36.4-62.2,1.3-2.4,2.7-4.6,5.3-5.8,2.1,4-.8,6-3.2,8.1h0c-2,5.8-6.1,10.5-8.7,15.9-.2.7-.3,1.4-.5,2a17.6,17.6,0,0,1-2.7,5.5,26.4,26.4,0,0,0-2,3.7c-3.1,5.4-5.8,11-9.1,16.2-6.2,11.9-9.7,24.7-14.1,37.2A17.5,17.5,0,0,0,113.3,148.5Z" style="fill:#262626"/><path d="M150.4,54.9c-.6-3.3,3.6-4.8,3.2-8.1,4.6-6.6,8-14.1,14.2-19.6a2.5,2.5,0,0,1,1.9-.2,2.4,2.4,0,0,1,.7,1.8,5.3,5.3,0,0,1-.8,1.7l-.6.8-1.2,1.3-.6.7-.9,1.6-1,1.5a34.5,34.5,0,0,0-2.5,4.1l-.9,1.8c-2.5,3.6-4.3,7.6-7,11.1a5.9,5.9,0,0,1-1.8,1.3l-1.1.2Z" style="fill:#696969"/><path d="M169.6,27.4l-1.8-.2,1.6-1.7.8.9v.7Z" style="fill:#4d4d4d"/><path d="M113.3,148.5c-3.5-1.8-5.3-3.5-3.6-8.4,5.2-14.6,8.7-29.7,16.5-43.2,4.3,5.3-.6,9.6-1.6,14.3-3,6.3-4.8,12.7-3.6,20,.8,4.6,3.6,5.5,5.6,2.8,6.9-9.5,15.8-10.6,26.7-10.6,8.7,0,13.7-.4,17.3,7.4s7.7,10.3,15.4,9.4a6.1,6.1,0,0,1,4.5,1.3,1.4,1.4,0,0,1,.2,2.1c-19.2.1-38.4-.1-57.3,4.5C127,149.7,120,148.4,113.3,148.5Z" style="fill:#3e3e3e"/><path d="M190.7,143.6v-1.5c3.2-2.9,7-1.9,10.6-1.7a5.7,5.7,0,0,1,2.2,1.1,1.4,1.4,0,0,1,.1,2.1H190.7Z" style="fill:#333334"/><path d="M61.7,179.3c-.1-1.4.1-2.6,1.6-3.3A3.9,3.9,0,0,1,61.7,179.3Z" style="fill:#2f2f30"/><path d="M64.8,174.3l1.3-1.7A1.6,1.6,0,0,1,64.8,174.3Z" style="fill:#2f2f30"/><path d="M63.3,176l1.5-1.7Z" style="fill:#2f2f30"/><path d="M55.1,280.9c4.8-2.8,10-2.4,14.6-.5A32,32,0,0,0,83,282.5c23.9,0,47.8.1,71.7,0,11.4,0,22.8,0,34.6,1.8-2.4,5.2-6.3,8-11.8,7.8-7.7-.1-15.4.5-23.2-1.1s-13.3.6-19.9.8c-16.2.4-32.6,1.7-48.9-.8-6.2-1-12.6,2.2-19.1,1.2-.6-2.1,1.1-2.7,2.3-3.5,2.9-2,1.5-3.3-.7-4.5l-2-.8C62.4,282.3,58.2,284,55.1,280.9Z" style="fill:#1d1208"/><path d="M190.8,297.1c-1.9,2.3-4.5,1.5-6.8,1.5H65.1c-2.3,0-4.9.7-6.8-1.4Z" style="fill:#161616"/><path d="M55.1,280.9c4.3.8,9-1.7,12.9,1.7-1.9,2.2-4.9,1.4-7.5,2.6,4.3,1.2,4.3,1.2,7.5-2.6,2.6-.1,5.2,1.3,5.4,3.6.3,4.4-5,3.5-7,6H61.6c-3.8-2.4-9-3.5-8.1-9.7Z" style="fill:#4e2f1e"/><path d="M51.9,295.4c-1.8,0-3.7.3-4.9-1.5C48.8,293.8,50.7,293.5,51.9,295.4Z" style="fill:#161616"/><path d="M193.9,290.6l-1.5,1.7Z" style="fill:#161616"/><path d="M195.6,289a12.9,12.9,0,0,1-1.7,1.6A12.9,12.9,0,0,0,195.6,289Z" style="fill:#161616"/><path d="M192.2,295.4a11.5,11.5,0,0,0-1.4,1.7A11.5,11.5,0,0,1,192.2,295.4Z" style="fill:#161616"/><path d="M55.2,296.9l-1.7-1.4Z" style="fill:#161616"/><path d="M636.2,313.1l8.2.2c-2.2,2.3-5,1.4-7.6,1.4q-285.4.2-570.9,0c-2.6,0-5.4.9-7.6-1.4,4-3.9,9.1-1.9,13.7-2.7q276.3-.2,552.7,0C628.6,310.6,632.8,310,636.2,313.1Z" style="fill:#c1c3c0"/><path d="M71.3,313.1l-13,.2-4.8-.2c-1.8-1.6-4.6.2-6.4-1.5h0c-1.9-1.8-4.6,0-6.6-1.5l-4.7-.2c-1.3-1.5-3.6,0-4.9-1.5h0c-1.7-1.3-3.5-2.5-1.6-4.9h0a12.1,12.1,0,0,0,1.6-1.6h0c7.6.4,15.1-1.9,22.7-.1H192.3a9.5,9.5,0,0,1,1.9-2.1l1.4.3a3.1,3.1,0,0,1,.5,2.6c-2.3,3.6-6,3.2-9.4,3.2H74.8c-3,0-5.8-1.1-8.7-.8C70.6,305.9,72.4,308.5,71.3,313.1Z" style="fill:#d5d5d5"/><path d="M40.5,310.1c2.3.1,4.8-1,6.6,1.5C44.8,311.4,42.3,312.2,40.5,310.1Z" style="fill:#c1c3c0"/><path d="M47.1,311.6c2.2.2,4.7-.8,6.4,1.5C51.3,313,48.8,314,47.1,311.6Z" style="fill:#c1c3c0"/><path d="M30.9,308.4c1.8,0,3.7-.4,4.9,1.5l-4.7-.2A5.9,5.9,0,0,1,30.9,308.4Z" style="fill:#c1c3c0"/><path d="M53.6,301.8c-4.1.3-8.2-.5-12,2.5s-6.9-2.4-10.7-2.4c4.5-4.5,9.3-7.1,15.3-2.3C48.2,301.3,51.6,299.4,53.6,301.8Z" style="fill:#c1c3c0"/><path d="M29.3,303.5c.5,1.6,1.1,3.2,1.6,4.9L23.4,306C24.5,302.2,27.4,304.1,29.3,303.5Z" style="fill:#c1c3c0"/><path d="M30.9,301.9l-1.6,1.6Z" style="fill:#c1c3c0"/><path d="M194,300.4l-1.7,1.5-.2-1.8h.1A1.2,1.2,0,0,1,194,300.4Z" style="fill:#c1c3c0"/><path d="M194,300.4l-1.8-.3,1.3-1.8.5.4c.5.3.7.7.5,1.1s-.4.5-.5.5Z" style="fill:#a6a6a6"/><path d="M47.1,319.6c-1.8,0-3.7.4-4.9-1.5h4.7A6.8,6.8,0,0,1,47.1,319.6Z" style="fill:#161616"/><path d="M42.2,318.1a3.2,3.2,0,0,1-3.2-1.6h3.1A8.1,8.1,0,0,1,42.2,318.1Z" style="fill:#161616"/><path d="M354.5,347c-9.1,1.4-18.9-1-28.8-1.2-6-.1-6.1-4.1-6.2-8.3s2.6-5.5,6.3-5.2c18.2,1.6,36.4.8,54.6.2,5.2-.2,7.3,2.8,7,7.6s-3.8,9.1-8,7.9C371.4,345.7,363.4,347.4,354.5,347Z" style="fill:#939393"/><path d="M139.1,326.1c4.4,3.9,9.4,3.3,14.5,1.7.8,1.8-.3,3.1-1.3,4.5a10,10,0,0,1-3,2.3c-10.3-2-20.7-.7-31-1.8-6.6-.7-12.8-1.9-18.8,1.7-1.1.7-3,1.1-3.8.2-3.7-4-9.7-3.9-13.4-7.8,5.9-2.9,12-1.6,18-.8Z" style="fill:#4c240b"/><path d="M100.3,326.1c-5.8.8-12-1.6-17.7,1.4a4.4,4.4,0,0,1-3.1,2c-6.9-.5-13.7-1.3-20.7.2-2.7.6-5,1.5-6.8,3.6s-2,1.5-3.4,1c-3.1,2.8-.9,6.4-1.6,9.6-5.9-9.3-2.4-18.7,7.9-19.2,14.4-.6,29-.1,43.5.1C99,324.8,99.7,325.6,100.3,326.1Z" style="fill:#161616"/><path d="M545.9,326.2H612c-1.9,8.1.8,16.2-.1,24.2-14.7,7.5-30.1,6.9-46,5.9-5.7-.4-11.5-1.7-17.3-1.1s-9.9.4-11.9-4.5-4.5-12.3,1.1-18c1.9,1.6,2.1,4.3,4,5.8a10.9,10.9,0,0,1,1.3,1.7,5.3,5.3,0,0,1,.3,3.9c-.6,2.3-2.3,4.8.7,6.4s5.9,1.5,8.2-1,6.5-3.4,10.5-.8,7.3,1.5,11,.7c7.2-1.4,14.4-1.7,21.4.8,4.9,1.7,6.8.2,5.5-4.9a15.5,15.5,0,0,0-.7-2.3c-1.4-3.4,3.2-7.9-1.4-10.3s-8.3.5-12.4,1.4l-2.4.5a68.4,68.4,0,0,0-20.7,1.2c-2.4.5-5.2,1-7-.5-5.7-4.6-11.9-3.5-18.2-2.6C537.6,326.7,543.6,328.8,545.9,326.2Z" style="fill:#472008"/><path d="M611.9,350.3a8.3,8.3,0,0,0-1.1-5.3c-4-6.5-2-12.8,1.2-18.9h31.1c12.5,0,16,3.6,15.8,16.1-2.2,11.3-4.7,13-16.2,11.5H618.1C615.5,353.6,612.6,354.1,611.9,350.3Z" style="fill:#464341"/><path d="M642.7,353.7c9.3,1.6,13.9-3.2,16.2-11.5-.2,11.4-2.2,13-16.2,13Z" style="fill:#161616"/><path d="M79.3,328l3.3-.5c4.6.6,9.8-1.1,12.4,5,.9,2.1,3.3,1.5,4.7-.1,3.5-4.3,8.4-3.7,12.6-2.7,6.1,1.5,12.1,1,18.2,1.3s11.2-1.3,16.2,2.6c.6.4,2.4-.7,3.6-1.1l.8.9c-.2,4.6,1.7,8.8,3.1,13,.7,2.4,2.4,3.8,4.8,2.8s1.6-2.9.5-4.4c-2.3-3.2-1.3-5.6,1.8-7.2s3.1-2.9,4.4-4.6l.9-.6a4.1,4.1,0,0,1,.9,5.8c-2,2.8-2.1,4.6-.3,7.8s-3.8,9.5-10,8.4c-2.4-.4-4.6-1.6-6.8-2.5-5.2-2.9-10,1.2-15.1,1.3-8.3.1-16.5-.7-24.8-.9-.8-4.4,3-4.4,5.4-5a33.5,33.5,0,0,1,15.1.1,26.9,26.9,0,0,0,6.3.6c4.3-.1,5.3-3.3,5.8-6.5s-2-4.4-4.8-5.2c-8.1-2.2-16.4-1.8-24.7-1.3-2.6.1-5.3.9-5.5,4.5s-1.1,4.2-3.5,4.8c-7.8-3.4-10.4,2.8-13.9,7.5l-.2.2-1.4-.2c-4.1-4.4-6.4-8.4-.3-13.3,3.8-3.1,1.5-5.6-2.2-6.8s-4.9-.3-7-1.7a1.4,1.4,0,0,1-.5-1.3C79.1,328.2,79.2,328,79.3,328Z" style="fill:#66300e"/><path d="M110,351.9h27.9c2.6,0,5.3.3,7.1-2.4s.3-4.4,3.3-3.2,2,3.4,2.1,5.5c-9.9,1.4-19.7,4.5-29.9,1.9-3.4-.9-6.9.1-10.3.9s-6.9,1.7-9.9-1.1l.7-.8c2.5-1.3,5.3-1,8-1Z" style="fill:#4c240b"/><path d="M90.7,351.8c-1.3-7,5.9-8.3,8.8-12.2s4.1,1.3,4.1,4.3c.6,1.1,0,1.9-.6,2.7a23.6,23.6,0,0,0-3.5,4.8l-.8.6C96.1,349.4,93.5,349.2,90.7,351.8Z" style="fill:#4c240b"/><path d="M151.9,330.9l1.7-3.1c4,.5,8.7-1.8,11.4,3l-.7.8c-3.9.2-7.7.1-11.6,0Z" style="fill:#66300e"/><path d="M165,330.8l1.6,1.6-.2.3c-1.3.2-1.8-.3-1.6-1.6Z" style="fill:#66300e"/><path d="M100.3,353.6c-.5-.6-1.1-1.1-1.6-1.6h.1c1.3-.3,1.9.2,1.6,1.6Z" style="fill:#4c240b"/><path d="M79.5,329l7.9.4c4.1.2,5.3,3.3,6.1,6.4s-1.3,4.2-3.9,4.9-4.6,2.8-2,5.8,1.2,3.5,1.5,5.3c-7.9,0-15.9.2-23.8.1-11.8-.1-18-8.1-16.7-17.6l1.8-1.8C59.6,327.5,69.5,328.1,79.5,329Z" style="fill:#929292"/><path d="M71.3,313.1c-1-9.6-10.4-4.4-15.8-8.5,3.4-1.7,6.3-1.1,8.9-1.1H187.8c2.8,0,6.8,2,7.8-3.1-.5-.4-.7-.7-.5-1.1s.3-.5.5-.5a10,10,0,0,1,.2-1.6,10.9,10.9,0,0,1,1.3-1.7h0c.7-.4,1.1-1,1.8-1.4v-.2a2.8,2.8,0,0,1,2.8.3c3.6,6.3,9.2,7.7,15.9,6.4,8.3-1.6,16.6.6,24.9.6,69.3-.2,138.7,0,208.1-.2,12.5,0,25.1-1.4,37.7,0,6.1.7,11.1-1.3,14.1-7.1h0c1.7.2,3.7-.3,4.9,1.6s.5,2.5,1.5,3.4v1.5a10.1,10.1,0,0,0,3.3,3.2h4.8c2.9-1.3,5.9-.6,8.8-.6H629.4c2.9,0,5.9.6,8.7-.6h16.1c1.6,0,3.6.5,3.6,2.3s-2,2.3-3.6,2.4-5.4.4-8.1,0c-5.3-.8-8.6,1.2-9.9,6.4Z" style="fill:#f3f3f3"/><path d="M502.3,293.8c.6,6.2-.2,10.1-8.4,9.4-6.6-.5-13.3.7-19.9-1.1s-11,1.5-16.7,1.5c-73.9-.2-147.8-.1-221.7-.1-6.8,0-13.5-1.5-20.6-.3-10.5,1.7-10.7.9-14.7-9.3,2.2-1.4,4.4-1.1,6.6-.1h9.6a19.3,19.3,0,0,1,11.4,0h62.9a4.4,4.4,0,0,1,4.9,0h20.9a18.5,18.5,0,0,1,11.4,0h11.2a10.6,10.6,0,0,1,8.2,0h16a13.8,13.8,0,0,1,9.8,0h17.6a2.6,2.6,0,0,1,3.4-.1h72.5a7,7,0,0,1,6.6,0Z" style="fill:#d5d5d5"/><path d="M227.9,293.8H216.5A10.5,10.5,0,0,1,227.9,293.8Z" style="fill:#c1c3c0"/><path d="M328,293.8H316.6A10.7,10.7,0,0,1,328,293.8Z" style="fill:#c1c3c0"/><path d="M373.2,293.8h-9.8A8.1,8.1,0,0,1,373.2,293.8Z" style="fill:#c1c3c0"/><path d="M347.4,293.8h-8.2C341.9,291.7,344.6,291.7,347.4,293.8Z" style="fill:#c1c3c0"/><path d="M206.9,293.8h-8.1C201.5,291.5,204.2,291.7,206.9,293.8Z" style="fill:#c1c3c0"/><path d="M473.3,293.8h-6.6Q470,290.8,473.3,293.8Z" style="fill:#c1c3c0"/><path d="M295.7,293.8h-4.9C292.4,291.9,294.1,291.9,295.7,293.8Z" style="fill:#c1c3c0"/><path d="M394.2,293.7h-3.4C392,292.3,393.1,292.3,394.2,293.7Z" style="fill:#c1c3c0"/><path d="M198.9,294l-1.8,1.4Z" style="fill:#d5d5d5"/><path d="M195.6,298.7v1.6H194v-1.6Z" style="fill:#c1c3c0"/><path d="M197.1,295.4a10.9,10.9,0,0,1-1.3,1.7A1.7,1.7,0,0,1,197.1,295.4Z" style="fill:#d5d5d5"/><path d="M638.1,302.1c-2,1.9-4.5,1.3-6.9,1.3-38.1.1-76.2,0-114.4,0,1.4-1.7,3.4-1.5,5.2-1.5Z" style="fill:#d5d5d5"/><path d="M512,303.5c-2.2.1-3.3-1-3.3-3.2A5.5,5.5,0,0,1,512,303.5Z" style="fill:#d5d5d5"/><path d="M508.7,298.8a3.7,3.7,0,0,1-1.5-3.4l1.4.2C508.6,296.7,508.7,297.7,508.7,298.8Z" style="fill:#d5d5d5"/><path d="M643.7,282.2c2.5.9,7.2-1.3,6.5,3.4s-5.1,4.7-8.9,4.9-6.7,0-6.4-4S640.4,282.9,643.7,282.2Z" style="fill:#7a5330"/><path d="M142.3,72.7c2.6,2.9,4.1,1.1,5.5-1.2,5.4-8.8,12.5-13.7,23.4-10.2,4.8,1.5,9.7-2.4,14.9-.3,2.8,1.1,4.6,1.6,4.8,5s1.2,7.1,5.3,8.1,8-.1,10.6-3.8c4.3-6.1,9.5-11.2,8.8-20.3-.4-5.4,4.5-11.8,8.3-16.7s10.1-2.1,15.3-2.6c-.6,5.4-6.1,6.2-9.1,9.3-5.4,5.6-5.8,7.1,0,12s3,7.2-.9,8.6c-12.2,4.3-16.4,14.6-21.1,24.9-2,4.6-4.9,9.2-10.7,7.4s-13.8-.8-13.7-10.4c0-5.4-3.3-7.5-8.3-7.7-3.5,0-7,.1-10.5,0-6.7-.4-12.3.7-17,6.6s-7.1,4.5-10-1.9c.9-2.3,1.9-4.6,2.7-6.9h0C141.2,71.9,141.8,72,142.3,72.7Z" style="fill:#777"/><path d="M139.1,79.1c.8,5.4,3.9,6.2,6.7,2,9.3-14.2,23.2-7.2,35.2-7.8,3.8-.2,5.2,5.1,4.8,9-1,9.9,8.2,6.3,12.3,8.9s6.6-2.3,7.9-5.7c1.9-5.1,4.7-9.6,7.1-14.3s7-10,13.5-11.3c2.5-.6,5.1-1.7,5-4.4s-2.8-1.8-4.5-2.4c-5-1.7-5.7-8.2-1.2-12.2s8.8-6.8,13.3-10.2c2.8-2.1,5.4-4.1-.8-4.8-2-.2-4.2.5-5.7-1.6h11.2c1.7-1.3,3.7-.6,5.5-.7s3.8.5,4.6,2.5-.1,4.3-1.9,5.6c-4.1,3-8.1,6.2-12,9.4s-4.1,4.5,0,7.3c8.4,5.9,8.4,7.3,1.2,14.7-5.6,5.7-10.8,11.7-19.9,12.6-5.3.5-8.2,5.5-10.3,10.4-5.2,12-15.5,15.9-26.6,9.9-3-1.6-3.7-4.5-3.8-7.6-.2-5.6-3.3-7.4-8.5-7.1a93.8,93.8,0,0,1-15.9,0c-5.7-.7-8.3,5-11.7,8.9s-6.2,8.4-11.4,2.3A6.5,6.5,0,0,1,133,90a8.1,8.1,0,0,1,1.3-3,12.8,12.8,0,0,0,1.4-2.9,31,31,0,0,1,1.5-5.2A1.4,1.4,0,0,1,139.1,79.1Z" style="fill:#6f6f6f"/><path d="M153.5,53.2c2.4-4.5,4.5-9.2,8-12.9,2.4.1,4-1.2,5.6-2.8,14.3-13.7,31.2-9.2,47.9-6.8-4.9,1.8-8.7,5.2-12.9,7.9-8.4,5.3-18.1,10.2-29,5.9-5.3-2.1-7.8,2.3-10.8,4.8s-3.8,5.2-5.7,7.7-2,3.1-3.7,1.7-.6-2.5-.9-3.8h0A8,8,0,0,0,153.5,53.2Z" style="fill:#9b9b9b"/><path d="M215,30.7l-35.9.2c-2.5,0-3.8,1.6-5.4,3.1l-8,7.9c-2.4,2.3-3.7,1.2-4.2-1.6h0c1.5-1.4,2.2-3.2,3.3-4.9l.3-1.4,1.3-1.8h0a2.8,2.8,0,0,0,1.5-1.7h.1a2.3,2.3,0,0,0,1.5-1.7,6.6,6.6,0,0,0,.1-1.4,2.1,2.1,0,0,0,.6-1l2.6-.7h54C222.9,31.6,218.7,30.4,215,30.7Z" style="fill:#b7b7b7"/><path d="M142.3,72.7h-1.7c1.3-7,5.6-12.3,9.8-17.7,1.8,5.6-4.5,8.1-4.9,12.9a12.9,12.9,0,0,0-1.6,1.7h0a11.4,11.4,0,0,0-1.5,1.6C142.4,71.6,142.3,72.2,142.3,72.7Z" style="fill:#696969"/><path d="M142.4,71.1l1.5-1.6Z" style="fill:#777"/><path d="M143.9,69.5l1.6-1.7Z" style="fill:#777"/><path d="M358.6,21.1l14.6-.2,19.3.2c8.8,1.7,17.6.2,26.4.8,1.9.1,5.1-1.3,5.5,1.4s-2.8,4.3-5.4,4.4c-9.4.5-18.4,3.8-27.9,3.7a19.6,19.6,0,0,0-4.8.5c-1.3.3-2.8.7-3.1,2.1s1.2,2.1,2.3,2.7a65,65,0,0,0,24.4,6.6c21,1.9,42.1,2.7,63.2,3.9,4.2.3,8.4,1.1,13.2-1.2-5.6-5.2-11.7-8.5-17.2-12.6-2.5-1.9-7.3-3.7-2.7-8.3,15.2.4,30.4-.9,45.6.7h17.7c9.4,1.1,14.7,7,19.3,14.8C562.7,64,572.2,89,581,114.4a76.2,76.2,0,0,0,4,14.7c1.1,2.7,1,5.5-2.1,6.8s-4.9-.9-6.3-3.3a138.2,138.2,0,0,1-13.2-30c-4.1-13.2-12.3-21.6-26.2-24a28.7,28.7,0,0,1-8.4-2.8c-7.5-3.9-7.5-3.8-7.5,4.9a4.1,4.1,0,0,1-1.4,2.1,3,3,0,0,1-2.4-.5c-3.9-3.8-3.8-9.3-5.4-14.1-4.1-12.9-7.8-15.4-21.2-13.4a37.8,37.8,0,0,1-12.1.3c-15.9-2.9-32-3.1-48.2-2.8a144.3,144.3,0,0,1-16.1-.4c-11.1-1.2-11.2-1.2-15.9,8.5-2.1,4.5-5.8,7-10.4,5.9-9.5-2.4-18,.3-26.5,3.8a11.6,11.6,0,0,1-3.2.8c-4.9.3-9-1.7-9.5-6.6s4.2-6.4,7.9-6.2c7,.4,13.8-1.4,20.7-1.7a23.2,23.2,0,0,0,7.9-1.6c2.2-.8,5.3-.9,5.1-4.1s-2.6-4.1-4.8-5a30.4,30.4,0,0,0-14.2-2.9c-10.8.7-21.4-1.1-32.1-2a15.1,15.1,0,0,1-4.7-.9c-2.3-.9-4.4-2.2-4.6-5s1.5-4.5,3.8-5.7c4.2-2.3,8.8-2,13.3-2.5S356.8,26.9,358.6,21.1Z" style="fill:#303030"/><path d="M465.2,25.9c-.1,2.9,1.8,4.2,4.2,5.3,6.8,3.1,11.9,9.1,18.9,12,1.2.5,2.5,1.2,2.4,2.8s-2,2.2-3.4,2.8a20.7,20.7,0,0,1-13.4.9,48.3,48.3,0,0,0-16-1.1c-20.2,1.8-39.8-4.3-60-3.8-6.3.2-11.9-6.2-18.6-8.2-2.4-.7-1.1-3.7.8-5.2s6.4-2.5,10-2.3c11.4.5,22-4.6,33.5-4.7-7.4-2.4-14.7-1.4-21.9-1.8-3.1-.2-6.5,1.3-9.2-1.5h42c3.6,2,7.7-.5,11.3,1.5h0C452.1,24.9,458.8,24.2,465.2,25.9Z" style="fill:#2a2a2a"/><path d="M579.8,114.6c-5-8.8-7.6-18.6-11.1-28a249,249,0,0,0-19.4-40.3c-1.3-2.1-1.7-4.4-2.9-6.5-4-6.6-9.3-11.5-16.7-13.9,12.1.1,17,3.5,21.2,14.2a7.2,7.2,0,0,0,1.6,2.7c9.8,8.7,12.2,22.2,21.2,31.5,2.5,2.6,1.5,8,6.1,9.7-.7,3.4,1.8,5.5,3.2,8,.6.5,1,1.2,1.6,1.7s0,2.1.1,3.2l1.5,1.6h.1a12.1,12.1,0,0,0,1.6,1.6h0l1.6,1.7V105c.6.5,1,1.1,1.6,1.6v1.6c.6.5,1,1.1,1.6,1.6a10.5,10.5,0,0,1,1.6,6.5c.6.5,1,1.1,1.6,1.6l1.7,3.2c.5.5,1,1.1,1.6,1.6v3.2l1.6,1.7h0l1.6,1.6h0c.9.8.6,2.4,1.6,3.2a10.5,10.5,0,0,0,1.6,6.5c.6.5,1,1.1,1.6,1.6a12.5,12.5,0,0,1,1.6,8,3.9,3.9,0,0,1-4.8,0h0l-1.6-1.6h0c-8.3-8.6-10.4-20.7-16.2-28.1,1.6,4.8,5.3,11.5,2.7,19.3a2,2,0,0,1-2.1,1C584.8,130.9,582,122.8,579.8,114.6Z" style="fill:#171717"/><path d="M465.2,25.9c-6.6-.5-13.6,1.4-19.4-3.3,20.6,2.3,41.2,1.6,61.9,1.7,1.6,0,3.2,0,4.3,1.5Z" style="fill:#1e1e1e"/><path d="M445.8,22.6c-3.8-.6-7.9,1.4-11.3-1.5C438.3,21.6,442.4,19.6,445.8,22.6Z" style="fill:#1e1e1e"/><path d="M253.7,140.5h-8.1c-4.1,2.6-8.4,4-13.2,1.4.7-5.2,4.9-5.1,8.5-5.2,8.9-.4,17.7-.2,26.6-.2,4.8.1,8.9-.4,10.7-6.1s5.9-4.8,10-5.1c39.9-2.9,79.8-4.1,119.8-3.3,7.5.2,14.5-.3,19.4-7.1.8-1.1,2.2-2.4,3.2-2.3,7.7,1.5,15.7-1.7,23.2,1.4,2.4,1,4.7,3,7.4,2.8,12.6-.9,25.2,1.5,37.7-1,8.8-1.8,17.4-3.6,25.8,1.4,3.9,2.3,4.3-1.4,5.7-3.5s3.2-.3,3.9,1.2a56.4,56.4,0,0,1,3.1,8.7c.8,3.5.9,7.3-2.4,9.3s-5.4,6.7-6.9,10.8H508.8c-2.1-2.5-5-1.6-7.6-1.6H474.6c-5.6,0-11.1.3-16-3.7a5.7,5.7,0,0,0-8,.4c-2.4,3.7-6.2,3.9-10,3.8-5.4,0-10.7-1.2-16-1.7-3.3-.3-5.6-1.8-5.6-5.6s-3.1-4.9-6.7-4.8c-24.6.9-49.2,1.7-73.8,3.7-8.9.7-17.1.9-25.3,5.5-6.3,3.6-14.3,1.3-21.5,2.4-10.6,1.6-21.4.6-32.1.6A7.7,7.7,0,0,1,253.7,140.5Z" style="fill:#1b1b1c"/><path d="M528.1,143.7c-1.8-4.9-2.1-9.1,4.2-11,4.2-1.3,4-4.9,3.9-8.4-1.6-6.6-4.6-13-2.4-20.2s5.6-8.6,12.1-5.7c3.5,1.6,6.5,3.4,10.4.5s5.1-.1,6,2c5.1,11.4,10.6,22.6,13.9,34.7a3.9,3.9,0,0,1-.5,2.3c-3.5,2.3-4.6-.3-5.5-2.9a21.8,21.8,0,0,0-4.2-7.6c-2.5-3.1-5.9-4-9.3-2.4s-6.9,5.5-12.1,1.7c-1.7-1.3-2,4.9-5.2,5.7s-4.9,2.4-3.9,5.2,3.8,1,5.9,1.2c4.3.5,9.1-1.2,13.5,2.8C546.1,147.4,536.8,142.6,528.1,143.7Z" style="fill:#0e0e0e"/><path d="M539.4,132.4a26.9,26.9,0,0,0,1.6-4.5c.3-2-.6-4.8,2-5.6s2.5,2.2,3.7,3.4,3.2,2.3,5.4.3c7.5-6.8,15.4-4.5,19.1,5.5.9,2.6.1,6.1,3.7,7.4h.9a7.1,7.1,0,0,1,1.4,1l.6.6a10.9,10.9,0,0,1,.8,1.5v.9l-.4.7c-1.3-.4-3.1-.4-3.7-1.2C565.2,130.7,551.9,133.1,539.4,132.4Z" style="fill:#0b0b0b"/><path d="M587.9,138.9c1-7.9-2.5-15.3-3.5-24.6,8.8,10.9,13.4,21.7,18,32.6-4.3-2.2-8.6-.3-13,0C588.4,144.3,588.5,141.5,587.9,138.9Z" style="fill:#0b0b0b"/><path d="M587.9,138.9c4.2,1.9,3.4,4.9,1.5,8h-3.1c-1-1.3-3.9-.3-3.6-3s2.8-4.1,5.2-5Z" style="fill:#171717"/><path d="M583,143.7l3.3,3.2c-3.2.2-6-.6-8.1-3.2h0a2.9,2.9,0,0,1,2.4-1.2,4.1,4.1,0,0,1,1.8.5Z" style="fill:#0b0b0b"/><path d="M604,148.5h4.8Q606.4,151.8,604,148.5Z" style="fill:#0b0b0b"/><path d="M604,132.4a3.2,3.2,0,0,1-1.6-3.2C603.7,129.8,604,131.1,604,132.4Z" style="fill:#0b0b0b"/><path d="M584.6,93.7,583,92Z" style="fill:#0b0b0b"/><path d="M607.2,140.5l-1.6-1.6Z" style="fill:#0b0b0b"/><path d="M602.4,146.9l1.6,1.6Z" style="fill:#0b0b0b"/><path d="M586.2,98.5l-1.5-1.6Z" style="fill:#0b0b0b"/><path d="M587.9,100.1l-1.6-1.6Z" style="fill:#0b0b0b"/><path d="M589.5,101.8l-1.6-1.7Z" style="fill:#0b0b0b"/><path d="M591.1,106.6l-1.6-1.6Z" style="fill:#0b0b0b"/><path d="M592.7,109.8l-1.6-1.6Z" style="fill:#0b0b0b"/><path d="M595.9,117.9l-1.6-1.6Z" style="fill:#0b0b0b"/><path d="M599.2,122.7l-1.6-1.6Z" style="fill:#0b0b0b"/><path d="M600.8,127.6l-1.6-1.7Z" style="fill:#0b0b0b"/><path d="M602.4,129.2l-1.6-1.6Z" style="fill:#0b0b0b"/><path d="M531.3,113c0,1.6.1,3.3,0,4.9s.4,4-1.5,5.1-3.3-1.2-4.5-2.4c-5.6-6-13-5.3-19.6-3.9-9.3,2-18.1,3.3-27.7,1.9-5.2-.8-11,1-16.7.9-3.1,0-5.9-.3-7.9-2.9s-6.2-3.4-9.5-.7-5,3-6.9,0c-3.3-4.9-6.4-2.5-8.1.6-4.3,7.8-11.1,8-18.6,7.9-23.1-.2-46.3-.6-69.3.1-18.7.5-37.3,2.9-56.1,3.1-3.6,0-5.6,1.9-5.3,5.5.5,5.6-2.9,5.8-7.1,5.8-10.5-.2-20.9-.1-31.4,0-3.2,0-6.7-.6-8.5,3.1-8.9,3.8-18.1,3.6-27.3,1.8l-1.7-.2v-1.5a5.2,5.2,0,0,1,1.8-1.8c6.5-6,14.9-5.2,22.7-6.6,4-.7,8-1.1,12-1.9s4-1.7,2.2-4.5-2.8-4.9.5-6.8,6.1-1.3,9,.9,1.1,7.1,4.8,6.6c5.5-.8,11.6.3,16.3-3.2s11.3-4.6,17.6-4.1c8.7.7,17.3.6,24.3-5.8a6,6,0,0,1,4.4-1.8c7.8,1.2,14.7-2.9,22-3.3,24.4-1.4,48.5-6.8,73-5.4,7.1.4,13.1-1,17.8-7.1,3.5-4.5,8.4-5,14.3-4.9,12.3.1,24.6-.8,36.8-1.6,3.3-.2,6.5-.8,9.5.6,4.7,2.1,9.2,2.5,14,.3s7.2.1,10,3.1,2.9,5.6,5.8,7.7c.1-6.3-3.7-12.1-1-18.2,2.5-1.1,3.7.8,4.2,2.4C528,95.4,532.2,103.6,531.3,113Z" style="fill:#2c2c2c"/><path d="M253.7,140.5c18.2.4,36.4-.6,54.5-1.5,3.9-.2,6.7-2,9.4-4,4.4-3.2,8.4-5,14.1-3s8.9-.7,13.4-.9c12.2-.5,24.5-.6,36.6-3.3,3.1-.7,6.8,1.3,10.2,1.3,6.9-.1,13.8.5,20.7-1.2s11,2,7.9,10.8c10.3-1.1,20,4.4,30.1.1,2.2.5,5.6-1.2,6.1,2.2s-2.9,3.4-5,4.3c-6,2.5-12.3,2.3-18.3,1.3-12.4-2.1-25.1-2.2-37.5-2.6-28.8-1-57.6-1.1-86.3,0-17.1.6-34.3,1.2-51.4,1.3C255.1,145.3,250.8,146.2,253.7,140.5Z" style="fill:#080808"/><path d="M205.3,143.8a166.3,166.3,0,0,1,27.3-1.8,36,36,0,0,1,13-1.5c.3,4.2-1.4,6.5-6,6.4h-32C205.1,147,204.1,146.3,205.3,143.8Z" style="fill:#080808"/><path d="M205.3,142.1h-1.7c-1.6-7.3,1.4-14.1,2.7-21,.6-2.9,3.8-4.3,6.8-5,5.7-1.4,11.4-3.1,17.4-3.1s12.3-.8,17.2-5.5a10.1,10.1,0,0,1,7.5-2.5c1.6.1,3.5.6,4.7-.3,8.9-6.5,19.9-3,29.4-6.5,3-1,6.7-.7,9.1-2.9,13.9-12.9,33.3-12.6,49.2-21.6-2.7-1.5-6-1.5-9.1-2.2a44.5,44.5,0,0,0-9.6-1.4,29.3,29.3,0,0,1-7.2-.7c-3.9-1.2-6.6-3.7-6.4-8.1s3.1-6,6.9-6.6a72.6,72.6,0,0,0,23.7-7.4c-7.1-3.8-14.6-4.8-21.5-.5s-14.6,3-21.8,1.3-8-6.5-3.8-12.3,8.7-9.2,16-10.7c-4.2-.5-7.7-.1-11.1-.2a67.8,67.8,0,0,1-7.8-.3,5.3,5.3,0,0,1-3.4-1.9,7.6,7.6,0,0,1-.1-1.5h66.2l5,3.3c-5.9,2.8-11.2,5-17.2,4.7a22.8,22.8,0,0,0-10.3,1.3c-2.3.9-5,1.5-4.5,4.6s3.2,3.6,5.6,3.6c10.9,0,21.6,2.7,32.6,2.1,7.5-.5,15.7-.2,21.7,6s4.4,8.2-2.1,9.4c-4.7.9-9.1,2.8-14.5,2.7s-11.6,1.8-17.7,1.2c-2.8-.3-7.7.5-6.8,4.5a6.5,6.5,0,0,0,9,4.4c3.2-1.2,6.3-3.5,9.6-4,6-1,11.6-4,18.4-.7s9-.9,10-6.9,5.8-10,11.7-8.6c11.5,2.6,23,1.1,34.5,1.2a215.8,215.8,0,0,1,35,3.1,32.6,32.6,0,0,0,13.5-.8c11.3-2.7,16.5.1,20.7,11,2.3,6.2,3.8,12.8,5.6,19.2,2.1,2.6,3.9,5.6,1.4,8.6s-4.9-.1-7.3-.2c-9.1-.2-18.1-2.7-27-2.3-17.6.7-35.2,1.6-52.9,2.9-12.2.9-24.6-.1-36.9,1.3-24.6,2.7-49.4,3.9-73.4,10.1a34.7,34.7,0,0,0-12.5,5.4c-9.9,7.1-20.9,10.7-33.3,8-3-.6-6-.4-8.4,1.5-5.2,4-10.7,3-16.8,2.6-11.7-.7-23.4,1.3-35,3.5-3.2.6-3.8,3.5-3.9,6.3A14.6,14.6,0,0,1,205.3,142.1Z" style="fill:#3d3d3f"/><path d="M265,20.9H248.8A19.1,19.1,0,0,1,265,20.9Z" style="fill:#373737"/><path d="M134.2,90.4c1.7,5.2,4,3.8,6.9.9S146.6,82,152,79.7c1.4-.6,3-2.8,4.1-1.9,6,4.6,12.4,1,18.5,1.2s8.6,1.7,8.1,7.8.2,10.3,7.9,7.2c1.1-.4,2.6.4,3.8.8,6.8,2.2,12-.1,14-6.8,2.6-9,6.9-15.6,17.5-15.4,4.5.1,6.2-3.8,9-6.2a50.3,50.3,0,0,0,4-4c7.9-7.9,7.9-7.9-1.6-13.3-5.2-3-5.7-4.9-.9-7.9S244.2,33,249.7,31c1.7-.6,3.8-1.5,3.4-3.9s-2.9-2.8-5.1-2.8h-4.1c.1-.5.1-1,.2-1.5h19.3c4.1,3,1.4,5.7-.8,7.9s-6.9,6.7-10.3,10.1-2.7,5.2,1.6,6.9c14.7,6,14.7,6.1,3.8,17.8-7.5,8-16,14.5-26.8,17a36.4,36.4,0,0,0-23.2,15.9c-5.5,8.2-16.5,11.2-25.4,7.8-4-1.5-4.7-4.9-4.9-8.5-.4-5.6-3-8.4-8.9-7a13.3,13.3,0,0,1-5.6.2c-9.8-2.1-17.5-.6-23.2,8.9-3.2,5.3-6.3,3.6-8.9-4.6a9.7,9.7,0,0,1,.2-2.4,9.1,9.1,0,0,1,1.1-2.2A1.4,1.4,0,0,1,134.2,90.4Z" style="fill:#696969"/><path d="M292.5,22.6h3.2c-.2,7-6.4,9.4-10.2,13.5-1.8,1.9-5.4,3-4.9,5.9s4.6,3,7.3,3.9,5.7,1.6,8.3,3.1a8,8,0,0,1,4.2,7.2,33.6,33.6,0,0,1-32,34.6c-3.9.3-7.4.9-10.6,3a24.7,24.7,0,0,1-13,3.6c-9.5.2-18.5,3.2-27.6,5.3-5.5,1.2-6.6,6.5-8.9,10.7-.7,1.4-1.5,2.8-2.2,4.3-2.6,6.1-4.5,13.8-13.2,12.7s-20.6-.7-24.1-13.4c-.6-2.1-2.1-4.7-4.2-4.2-8.9,1.8-15.5-4.6-23.6-5.7a4.3,4.3,0,0,1-1.5-2,6.2,6.2,0,0,1,.5-3.8c.8-.6-.4,0,.5-.6,4.5-3.4,27.9-3.7,32.2-.5s4.5,6.1,4.8,9.9,2.1,5.2,5.8,4.8,4.8.3,7.1.6c5.5.8,9.5-1,11.9-6.1.3-.8.8-1.4,1.1-2.2,3.6-10.6,11.5-14.7,22.1-15.4s22.3-2.7,31.4-10.5a9.9,9.9,0,0,1,5.9-2.3A13.2,13.2,0,0,0,275,71.3c1.7-3.3,5.2-4.6,8-6.6s4.7-4.7,4.3-8.2-4-3.8-6.7-4.8-5.8-1.1-8.7-1.9c-8.7-2.4-9.6-6.1-3.9-13s13.9-9.7,21.2-14.1Z" style="fill:#535354"/><path d="M140.7,101.7V105a3.1,3.1,0,0,0-.9,1.8,4.1,4.1,0,0,0-.5.9,11.5,11.5,0,0,1-1.4,1.7l-.8.8c-7.2,3.8-7.5,3.6-7.4-4.2,0-2.5-1.2-4.6-1.4-6.9a5.3,5.3,0,0,1,.2-2.2,17.6,17.6,0,0,1,.9-2,5.1,5.1,0,0,1,1.3-1.6,1.5,1.5,0,0,1,1.9.4,24.4,24.4,0,0,0,.5,3.9A22.7,22.7,0,0,0,135,101c.8-.2,1.5-.1,1.7-.4,5.9-9.9,13.3-16.4,25.9-11.9,2.1.7,4.8.2,7.2-.2,6.5-1,9.3.4,9.4,6.6s1.6,8.6,9.9,9.6c10.9,1.2,15.4-3.9,19.7-10.9s10.6-10.6,18-12.4c12.6-3.1,23.3-8.9,30.9-19.7l.5-.6c2.2-2.1,7.2-2.9,5.8-6.6s-5.4-3.9-9-4.5a27.2,27.2,0,0,1-3.8-1.1c-6.5-2.3-6.8-3.1-2.2-7.8s8-8,12.2-11.7c2.3-2,3.8-3.7,2.2-6.7h17.7c.8.9.4,1.8-.1,2.7a8,8,0,0,1-1.3,1.3,11.9,11.9,0,0,1-2.5,1.3l-1.6.8-2.3,1.1-1.4.7-1.4.9-.6.5-1.3,1-1.5.5-2.2.7-1.3.9a5.7,5.7,0,0,0-1.1,1.1l-.5.6-.7,1.5-.9,1.3-1.1,1.3-.5.6-.9,1.3c.1.1-.1.8-.1.8a1.8,1.8,0,0,0,.4,1.4,5.2,5.2,0,0,0,1,1.1,8.5,8.5,0,0,0,2.2.9l2.4.7,2.5.7a22,22,0,0,1,3.7.7,12.8,12.8,0,0,0,3.9,1.3,7.8,7.8,0,0,1,1.8,1.1c1.4,1.5,2.3,3.6,1.1,5-5.7,7-8.7,16.6-18.7,19.3l-1.8.8a20.6,20.6,0,0,0-2.6,1.2l-1.5,1L250.6,80a9.5,9.5,0,0,1-1.7,1,37.8,37.8,0,0,0-4.3,2.6l-1.5,1.3-1.5,1.3-.7.8a10.3,10.3,0,0,1-1.5,1.4l-.8.7-1.9,1-2.2.5c-3.3.3-6.8,0-10,1.5-10.9.7-17.3,6.8-21.1,16.7-2.1,5.5-7.2,7.1-12.7,6s-12.3-.5-14.7-8.6c-3.3-10.9-4-10.8-15.8-9.3a19.6,19.6,0,0,1-8,0C147,95.5,143.5,97.5,140.7,101.7Z" style="fill:#5e5e5e"/><path d="M274.7,27.5h1.6c.8-1,2.4-.6,3.2-1.6a9.8,9.8,0,0,0,3.2-3.2h6.5c-.1,2.8-1.7,4.2-4.4,4.9-7.4,1.9-12.2,7.5-17.3,12.7-3.4,3.4-2.5,5.5,1.9,6.6l13.3,3.2c3.4.8,8,1.4,7.6,5.5s-1.4,9.6-6.2,11.3-7.5,4.6-9.5,9-4.4,5.2-8.4,4.9-5.8-.3-7.7,1.7C247.5,93.6,232.7,92.7,219,95c-5.2.9-8.4,2.9-10.7,7.2s-3.1,6.2-4.7,9.3c-2.6,4.7-6.3,7.1-11.9,6.4-3.9-.5-7.5-1.7-11.8-.4s-4.6-2.2-4.7-5.6c-.3-10.5-3.9-13.6-13.9-11.2a15.2,15.2,0,0,1-8.5-.5c-4.3-1.4-8.4-1.3-12.1,1.5,1.8-5.8,4.7-9.3,11.7-6.7,3.2,1.1,6.8.1,10.3-.8,9.1-2.3,11.4-.4,13.8,8.9.8,3.1.6,7.8,5.3,8.1,6.5.4,13.6,5.4,19.6-1.6.5-.6,1.3-1.1,1.5-1.8,3.5-10.5,10.8-16.3,21.7-17.4,3.6-2.1,7.8.6,11.3-1.6h1.6c.6-.6,1.2-1,1.7-1.6l1.6-1.6,1.6-1.6c2.5-2,5.6-2.8,8.1-4.9l1.6-1.6h0c.9-.9,2.4-.6,3.2-1.6,11.5-1.5,14.4-12.6,21.3-19.2,2.3-2.2-.1-3.8-1.9-5h-1.6c-.9-1.1-2.4-.6-3.3-1.6H265c-.5-.6-1.1-1.1-1.6-1.6h-3.2l-1.7-1.7c-1.6-1.2-3.3-2.5-1.6-4.8h0c.6-.5,1.1-1.1,1.6-1.6h0c.6-.5,1.1-1.1,1.6-1.6s.7-2.4,1.7-3.3h0l1.6-1.6h0c.9-.9,2.4-.6,3.2-1.6h1.6c.5-.6,1.1-1,1.6-1.6h0a8.1,8.1,0,0,0,1.6-1.6h1.7Z" style="fill:#5b5b5b"/><path d="M282.7,22.7c0,2.1-1.1,3.1-3.2,3.2l1.6-3.2Z" style="fill:#5e5e5e"/><path d="M131,93.7v1.5l-1.6,1.7h0c-1.1,4.4,1.9,9.4-2.2,13.5-.7.8.1,2.6,1.3,3.5s2.9.7,4.4-.2,3.1-3.6,4.6-5.5h0l1.6-1.6h0c.5-.6,1-.6,1.6,0,4-2.5,7.6-2.1,10.6,1.7s4.8,3,8.4,2c7.3-1.9,9.6-.3,11.5,7.1,1.4,5.3,4.2,8.3,9.8,8.7,2.6.1,5.2,1,7.8,1.6,8.5,2,10.3,1,13.7-7.2,1.1-2.6,1.9-5.6,4.4-7.5,3.6-12.5,16-10.6,24.7-14.4a33.8,33.8,0,0,1,16.5-2.5c.5,0,1.2.2,1.6,0,12.5-7.3,28.1-5.1,40.3-13.3,4.4-3,7.7-6.3,8.9-11.8s1.1-9,3.1-13.3-5.2-5.4-4.8-9.6c11.4-1.1,12.5,1.2,15.3,11.5s-1.1,15.9-7.8,22.5c-10,10-21.2,15.1-35.2,14.3-1.7-.1-3.5-.4-4.8.4-11.9,7.8-27.7,4.5-39.1,13.6-1.9,1.5-4.7,1.2-7,1.7-7.6,1.7-11.4,5.7-12.5,13.5-.8,5.3-3.3,8.4-8.7,8.8a26.7,26.7,0,0,0-6.4,1c-10.4,3.9-17.3-1.2-22.2-9.3-3.3-5.4-6.9-8-13-6.3a1.3,1.3,0,0,1-.8.1c-10.9-3.6-18.6-.2-23.3,10.5-1.1,2.5-3.8,4.1-6.7,2.7s-5.7-6.6-5-11,2-7.1,2.9-10.7c-.2-5.1,5-9,3.3-14.5,3.3-5.3,5.1-11.6,9.6-16.2,1.2.9.7,2.2.8,3.4a3.5,3.5,0,0,1-.5,1.8,8.6,8.6,0,0,1-1.3,1.4,2.3,2.3,0,0,1-.7.7c-.7.7-.7,1.8-1.5,2.5V92A8.5,8.5,0,0,1,131,93.7Z" style="fill:#4d4d4d"/><path d="M139.1,79.1h-1.5c-.6-.4-.7-.8-.6-1.2s.2-.6.4-.6c1-1.7,1.5-3.7,3.2-4.8C141.1,75,140.2,77.1,139.1,79.1Z" style="fill:#696969"/><path d="M137.4,77.4l.2,1.8-.2,6.3a.9.9,0,0,1-1.6,0V80.7C135.9,79.4,136.1,78.1,137.4,77.4Z" style="fill:#5b5b5b"/><path d="M164.8,35.4a4.3,4.3,0,0,1-3.3,4.9A5.8,5.8,0,0,1,164.8,35.4Z" style="fill:#9b9b9b"/><path d="M169.5,28.8a1.8,1.8,0,0,1-1.5,1.7Z" style="fill:#9b9b9b"/><path d="M167.9,30.5a1.7,1.7,0,0,1-1.5,1.7Z" style="fill:#9b9b9b"/><path d="M166.4,32.2,165.1,34Z" style="fill:#9b9b9b"/><path d="M153.5,53.2,152,54.9Z" style="fill:#8a8a8a"/><path d="M122.9,111.4c0,2.9.3,5.9-1,8.7a8.8,8.8,0,0,0,.1,7.1c1,2.1,1.7,4.8,4.7,5s4.2-2.3,4.9-4.5,2.5-6.6,5.6-8.6,7.2-6.5,12.7-1.9c2.2,1.9,6.4,1.3,9.3.1,5.1-2.3,7.5-.1,9.2,4.3s3.4,5.4,5.6,7.9c4.1,4.7,8.7,6.8,14.8,4.4,1.2-.6,2.6-1.4,3.8-1.2,8.9,1,12.4-3,13.2-11.8.5-6.1,7.3-10.8,13.7-11,2.9-.1,5.6-.5,7.6-2.3,4.4-4.1,9.6-5.3,15.3-6.3s14.9-1.3,21-6.7c1-.9,3.1-1,4.6-.8,16.1,2.1,28.5-3.8,37.7-17a5.3,5.3,0,0,1,3.1-2.4c5.5-1,4.4-4.2,2.5-7.7s-2.3-4.6-1.7-6.8c2.1-7.2-.9-10.1-7.6-10.7l-4.7-.7c-9.6-1.9-11.3-5.3-7.1-13.4,3-5.8,7.1-10.4,13.5-12.5h17.7c-1.8,3.9-4.7,4.4-6.9,4.6-7,.7-10.9,5.6-14.8,10.3s-2.3,7.9,3.2,8.6c7,.9,14,4,21.3-1.8s20.2-2.9,27.6,4.2c-9.2,3.7-18.2,6.6-27.7,7.9-3.5.5-7.5.1-7.3,5.2s3,6.4,7,6.1c8.7-.6,16.9,2.4,25.4,3.3,1.8.3,4.1-.2,4.2,2.5s-2.6,2.7-4.1,3c-12.5,2.1-23.1,9.9-35.9,11-2.9.3-5.3,2.4-7.4,4.7a24,24,0,0,1-17.7,8.1c-6.4.1-12.5,5-19.4,1.7-1.2-.6-2.6.8-3.4,1.8-2.9,3.2-5.8,5.4-10.4,3.1-2-1.1-4.4-.1-5.8,1.7-5.2,7.3-13.5,7-20.5,6.7s-11.7,3.1-17.8,3.3c-2.5.1-4.4,3.2-4.1,6.2.7,6.1-1.9,11.6-3.3,17.2H190.7a38.4,38.4,0,0,0-4.8,0c-7.7.8-13-.2-16.5-9.3s-9.5-10.9-16.6-6.5c-2.7,1.7-5.4,1.6-8.2-.4s-6.6-1.7-9.3,2.3a25.9,25.9,0,0,1-10.5,9.7c-3,1.4-6.5.9-6.2-2.3C119.3,127.5,116.3,118.5,122.9,111.4Z" style="fill:#464647"/><path d="M68,282.6c1.8,3.2,1.6,5.8-2.6,6.3s-7.3.6-9-3.4c-.9-2,1.2-2.7,2.8-2.8s5.9-.1,8.8-.1Z" style="fill:#785037"/><path d="M331.3,335.9c9-.8,16.3,3,23.8-.1a3.6,3.6,0,0,1,4.5,2.5c.7,2.5-1.3,4.4-3.3,4.8a34.2,34.2,0,0,1-9.6.5c-6.7-.6-13.4-1.2-20-2.9-1.5-.5-3.4-.4-3.4-2.5s2.2-2.5,4-2.5Z" style="fill:#e3e3e3"/><path d="M374,336.1h2.3c3.4-.3,8-1.6,7.6,3.8s-4.4,3.7-7.8,2.5-3.6.5-5.4.9c-3.4.7-6.4-.8-6.7-4s3.2-3.6,5.9-3.6A33.3,33.3,0,0,1,374,336.1Z" style="fill:#eaeaea"/><path d="M150.3,332.5c.6-.5,1.1-1.1,1.6-1.6l.2.2c.2,1.3-.3,1.8-1.6,1.6Z" style="fill:#66300e"/><path d="M79.5,329c-4,3.9-8.5-.4-12.9.9s-10.8,1.8-16.2,2.6c5.7-7.8,14.3-5,21.8-5.7,2.3-.2,4.7.8,7.1,1.2A3.6,3.6,0,0,0,79.5,329Z" style="fill:#4c240b"/><path d="M586.2,332.5c2.8-2.3,6.4-2.6,9.7-3,6-.8,9,3.3,6.3,8.7-1.4,2.8-.5,4.6.7,6.6a5.9,5.9,0,0,1-.9,7.3c-1.9,2.3-4.4,1.4-6.6.4-6.9-3.4-13.9-2.4-21.1-1.2-4.9.9-10.1,2.3-14.3-2.1-1.9-2-3.5-2.1-5,.5s-5.9,4.4-9.8,3.7-6.6-4.2-4.1-8.5c1.3-2.4.8-4,.1-5.9,2.1-2.8,6.2-.7,8.4-3.5-4.8-2-4.8-2-8.5,3.4-4.6-.3-2.9-3.8-3.3-6.3h.1c5.7-4.2,11.5-5.4,17.2.1a5.9,5.9,0,0,0,6,1.3c7.8-2.4,15.7-2.1,23.6-1.4a1.8,1.8,0,0,1-.3,2.2,7.3,7.3,0,0,1-3.3,1.2c-7.1-.7-11.1,3.1-14.2,10.7,10.9-2.1,20.8-4.6,31.3,2.6C595.8,340.6,590.9,336.6,586.2,332.5Z" style="fill:#7b4012"/><path d="M586.2,332.5c8.7.6,10.7,8.3,13.9,14,2.1,3.7-2.3,4.8-4.5,3.4-8.4-5.2-16.8-4-25.4-1.3-1.8.6-4.6,1-5.9-1.2s.9-3.8,2.1-5.5c3.7-5.3,7.7-9.7,15-7.6a1.4,1.4,0,0,1-.1,2,6.4,6.4,0,0,1-2,1.1c-1.4.8-5.8,1.4-2.1,3.4s9.8,2,14.8,2.1c.5.1-.3-1.8-.7-2.7l-1.1-1.6-1.2-1.4-.7-.6c-1.2-.8-2.8-1.1-3.7-2.5s.1-1,.1-1.5Z" style="fill:#a66227"/><path d="M620,339.1h-2.3c-2.3-.2-3.9,4-6.2,1.2a5.6,5.6,0,0,1,.6-7.8c9.2-1.1,18.4-1.4,27.5.2a3.4,3.4,0,0,1,1.9,1.4c1.2,2.1.9,6,4.3,5.7s-.2-4.8,2.2-6.3,3.1-.5,4.5.6h-.1c2.5,1.7,3.1,3.8,1.7,6.5h0c-5.5,9.9-6.8,10.2-15.9,2.9-4.4-3.5-8.2-2.9-11.9,1a4.8,4.8,0,0,1-4.5-.1C620.2,343,621.8,340.5,620,339.1Z" style="fill:#908e8c"/><path d="M626.5,344c.4-4.9,6.4-7,11.3-3.9a10.3,10.3,0,0,1,2.7,2.8c5,5.8,6.1,5.8,11.1-.4a22.7,22.7,0,0,1,2.5-1.8c-1.7,9.1-2.2,9.3-11.2,9.7-6.6.3-13.2-.8-19.8,1.2-2,.6-4.5.4-5.5-1.9s.7-3.3,2.2-4.5l1,.3C623.2,346.7,625.2,346.6,626.5,344Z" style="fill:#858585"/><path d="M641.3,334.3c-9.6-2.7-19.5-1-29.2-1.7,10.3-3.6,20.9-1.5,31.4-.9,2.9.2,6.5-.3,9,2.5h-5.1A4.3,4.3,0,0,1,641.3,334.3Z" style="fill:#858585"/><path d="M654.1,340.7a11.3,11.3,0,0,0-1.7-6.5C657.1,335.3,656.6,337.8,654.1,340.7Z" style="fill:#858585"/><path d="M620,339.1c2.2,1,1.7,3.1,1.8,4.9s-.2,1.7-1.5,1.6l-.5-.4Z" style="fill:#858585"/><path d="M102,345.5c.5-.5,1-1.1,1.6-1.6s3.2-1.8,2.7-3.5c-2.1-6.9,3.3-7.4,7.1-7.7a105.3,105.3,0,0,1,28,1.6c3.5.7,5.9,4.1,5,6.1-1.7,3.5-1.2,9.2-6.9,9.8a25.6,25.6,0,0,1-8.7-.6c-7.1-1.6-14.3-2.2-20.8,2.3h0C100.9,353.5,100.2,352.9,102,345.5Z" style="fill:#884716"/><path d="M150.5,332.7l1.6-1.6a14.9,14.9,0,0,1,12.7,0l1.6,1.6c-.2,1.3.2,3.2-.5,3.8-3.5,3-10.4,4.9-1.9,10.4,1.5.9-1.3,3.7-3.2,4.4s-7,1.6-7.7-1.5C151.8,344.2,146.9,339,150.5,332.7Z" style="fill:#97572d"/><path d="M102,345.5c-1.2,7,3.5,6.6,8,6.4-2.8,3-6.4,1.1-9.6,1.6l-1.6-1.6C98.6,349.1,98.9,346.7,102,345.5Z" style="fill:#66300e"/><path d="M66,337.7c-1.4,2.3-2.5,5.3-5.2,7.1-.9.5-7-5.6-6.8-6.9.6-3,3.3-3.2,5.5-3.6S65.7,335.1,66,337.7Z" style="fill:#b8b8b8"/><path d="M132.6,90.5c0-1.4.3-2.6,1.6-3.3s.7.7.5,1.1-.3.5-.5.5v1.6Z" style="fill:#5b5b5b"/><path d="M135.8,85.5h1.6l-1.6,1.7-.6-.8.6-.8Z" style="fill:#696969"/><path d="M134.2,88.8V87.2h0a1,1,0,0,1,1.6,0h0C135.3,87.7,134.8,88.3,134.2,88.8Z" style="fill:#696969"/><path d="M205.3,142.1c3.5-4.3,5.5-9.1,4.9-14.8-.4-3.4.8-5.8,4.7-6.2l32.6-3.2a17,17,0,0,1,8,.8c4.2,1.8,7.8.7,10.7-2.8s7.1-3.4,11.1-2.2c11.7,3.4,21.9-.5,30.9-7.2,3.1-2.3,5.9-4.1,9.7-5,21.2-5.5,42.9-8,64.7-9.6,13.3-1,26.5-3.4,39.9-3.1,15.7.4,31.4-2.2,47-2.3,9.4,0,19.6-3.8,28.9,1.8,2.1,1.2,4.8.8,7.1-.3s5.7-.4,8.4.9,2.7,3.4,4.8,1.7,1.1-3.9.2-5.9a18.9,18.9,0,0,1-.5-2.3H520a1.8,1.8,0,0,1,1.4.8l.3.8c1.3,6.5,1.5,13.2,4.1,19.5.6,1.5,1.1,3.2-.8,4.2s-2.9-.6-3.8-2-2.4-3.5-3.4-5.4c-4.8-8.3-5.1-8.5-14.2-4.9-1.8.8-3.4,1.3-5.3.4-13.4-6.4-27.4-1-41.1-1.6-4.7-.2-9.3,2-14.6-.3s-7.7,2.5-9.7,5.7c-4.2,6.4-9.8,7.2-16.7,7.1a271.4,271.4,0,0,0-58.3,4.4c-4.4.9-9.1.3-13.7.3-2.7,0-5.4,0-7.8,1.4-4.5,2.8-9,4.3-14.4,2-2.6-1-5.3.2-7.2,2.5-5.8,6.9-13.8,6.1-21.4,5.8s-14.5-2.2-20,4.7c-1.5,1.8-4,1.3-6.1,1.4s-5.2-.6-7.2.4c-5.3,2.9-9.4,5.4-8.3-4.4.4-3.5-5.6-5.6-8.8-3.4s-.9,2.9.8,4.1,5,2.1,3.6,5.2-3.5,2.8-6.1,3c-8.8.6-17.4,3.3-26.2,3.1C210.8,137.1,209.5,142.4,205.3,142.1Z" style="fill:#333334"/><path d="M531.3,113c-3.3-6.9-4-14.7-6.3-22-.8-2.6-1.1-5.2-3.3-7h0c-1-.9-.6-2.4-1.6-3.3a41.5,41.5,0,0,1-1.5-7c-.2-2,1.2-3.5,2.8-4.6s3,.5,3.9,1.7c3.5,4.4,8.7,5.5,13.6,6.2,14.2,2.1,22.1,11.1,26.1,23.8,3.4,11,8.2,21.3,13.3,31.5.9,1.8,1.8,3.6,4.2,2.5s1.9-2.8.9-4.8c-2.3-4.8-4.1-9.8-3.6-15.4,4.8,7.4,5.2,16.2,8.1,24.3a10.4,10.4,0,0,1-4.9,4.8,3.8,3.8,0,0,0-1.5-.9l-.8-.4-2.6-1a3.8,3.8,0,0,1-1.5-.9h0a12.5,12.5,0,0,0-1.7-1.6h0c-2-12.8-8.2-24-13.1-35.7-1.3-3.1-3.7-6.9-6.5-.3-1.6,3.7-4.2.5-5.9-.3-11.7-5.6-14.9-3.5-14.9,9.9,0,4.1,2.5,7.7,1.7,11.8C532.7,121.4,534.5,116.2,531.3,113Z" style="fill:#181818"/><path d="M520.1,80.7c1.3.7,1.6,1.9,1.6,3.3L520,82.4A9.7,9.7,0,0,0,520.1,80.7Z" style="fill:#2c2c2c"/><path d="M559.7,127c.1,1.2-.4,1.8-1.3,1.6a2.6,2.6,0,0,1-1.6-1.3c-.3-1,.5-1.3,1.3-1.1A6,6,0,0,1,559.7,127Z" style="fill:#0e0e0e"/><path d="M581.4,143.7h-3.2v-1.6l.6-.7a3,3,0,0,1,2.6.7h0a1,1,0,0,1,.4,1.1C581.6,143.5,581.5,143.7,581.4,143.7Z" style="fill:#0e0e0e"/><path d="M574.9,138.9l1.7,1.6Z" style="fill:#0e0e0e"/><path d="M576.6,140.5h1.6c.5.3.7.7.5,1s-.3.6-.5.6h0Z" style="fill:#0e0e0e"/><path d="M581.4,143.7v-1.6l1.6,1.6Z" style="fill:#171717"/><path d="M303.7,22.6c-3.1,4.2-8.2,6.4-10.8,11.6-4.6,9.4-5,9.2,4.4,14.3.8.6,1.5,1.6,2.4,1.9,6.2,1.7,9.1,3.8,3.3,10-2.4,2.7-1.8,7.7-2.1,11.6s-3.2,9.2-7.1,10.9c-8.4,3.6-16,11.2-26.6,7.7a4.1,4.1,0,0,0-3.1.4c-6.9,6.4-15.8,5.6-24.1,6.9-5.6.9-11,2-15.6,5.5-.7.5-1.5,1.1-2.2,1-7.4-1.1-11.5,3.5-15.3,8.6,1.7-7.8,5.6-12.1,14.4-13.5s18.8-2.1,27.4-4.8,20.4-5.1,30.2-8.8c13.9-5.3,19.3-16.1,19.9-30.1.1-2.6-1.1-3.8-3.2-5-4-2.3-8.6-2.8-12.9-3.9-2.4-.6-5.2-.9-6-3.5s1.9-4.9,4-6.4a66.1,66.1,0,0,0,15-14.4Z" style="fill:#4d4d4d"/><path d="M131,93.7l1.6-1.7v1.7Z" style="fill:#5b5b5b"/><path d="M140.7,106.6h-1.6l1.6-1.6Z" style="fill:#5b5b5b"/><path d="M137.5,108.2a11.2,11.2,0,0,1-2.8,6.5c-1.6,2.2-3.7,4.2-6.7,2.3s-4.9-4.6-3.1-6.6c3.7-4.1,2-9.4,4.5-13.5,1,4.6,4.8,8.9.6,13.6C133.9,112.4,135.1,108.8,137.5,108.2Z" style="fill:#5b5b5b"/><path d="M274.7,51.7c5.1.8,5.9,3.1,2.1,6.7a31.9,31.9,0,0,0-6.9,8.6c-3.1,6-8,8.7-14.6,8.9,9-3.1,13-11.5,18.8-17.9C276.2,55.7,276,53.9,274.7,51.7Z" style="fill:#5e5e5e"/><path d="M235.9,88.8c-3.4,3.1-7.5,1-11.3,1.6C228,87.3,232.2,89.4,235.9,88.8Z" style="fill:#5e5e5e"/><path d="M250.5,79.1c-1.7,3.3-4.8,4.3-8.1,4.9C244.1,80.7,247.1,79.7,250.5,79.1Z" style="fill:#5e5e5e"/><path d="M256.9,42c.6,1.6,1.1,3.2,1.6,4.8C255.1,46.2,254.2,44.7,256.9,42Z" style="fill:#5e5e5e"/><path d="M266.6,32.3c-.7,1.4-1.9,1.6-3.2,1.6C264,32.6,265.3,32.3,266.6,32.3Z" style="fill:#5e5e5e"/><path d="M261.8,35.5c-.1,1.4-.3,2.6-1.7,3.3C260.2,37.4,260.4,36.2,261.8,35.5Z" style="fill:#5e5e5e"/><path d="M255.3,75.9c-.7,1.4-1.9,1.6-3.2,1.6C252.7,76.2,254,75.9,255.3,75.9Z" style="fill:#5e5e5e"/><path d="M269.8,50.1c1.4,0,2.6.2,3.3,1.6C271.7,51.7,270.5,51.4,269.8,50.1Z" style="fill:#5e5e5e"/><path d="M279.5,25.9c-.6,1.3-1.9,1.5-3.2,1.6C277,26.1,278.2,25.9,279.5,25.9Z" style="fill:#5e5e5e"/><path d="M252.1,77.5l-1.6,1.6Z" style="fill:#5e5e5e"/><path d="M242.4,84l-1.6,1.6Z" style="fill:#5e5e5e"/><path d="M240.8,85.6l-1.6,1.6Z" style="fill:#5e5e5e"/><path d="M239.2,87.2l-1.7,1.6Z" style="fill:#5e5e5e"/><path d="M274.7,27.5l-1.6,1.6Z" style="fill:#5e5e5e"/><path d="M271.4,29.1l-1.6,1.6Z" style="fill:#5e5e5e"/><path d="M269.8,30.7c-.5.5-1,1.1-1.6,1.6S269.3,31.2,269.8,30.7Z" style="fill:#5e5e5e"/><path d="M263.4,33.9l-1.6,1.6Z" style="fill:#5e5e5e"/><path d="M260.1,38.8l-1.6,1.6Z" style="fill:#5e5e5e"/><path d="M258.5,40.4,256.9,42Z" style="fill:#5e5e5e"/><path d="M258.5,46.8l1.7,1.7Z" style="fill:#5e5e5e"/><path d="M263.4,48.5c.5.5,1.1,1,1.6,1.6S263.9,49,263.4,48.5Z" style="fill:#5e5e5e"/><path d="M129.4,96.9l1.6-1.7Z" style="fill:#5b5b5b"/><path d="M139.1,106.6l-1.6,1.6Z" style="fill:#5b5b5b"/><path d="M135.8,87.2h-1.6l1.6-1.6Z" style="fill:#5b5b5b"/><path d="M541.1,338.9c-2.7-4-.2-5.7,3.1-7.1s6.4-1,8.4,2.2,0,4.6-2.7,4.9a63,63,0,0,1-8.7.1Z" style="fill:#b1753d"/><path d="M547.6,344c2.6,0,4.2,1,4.5,3.5a3.5,3.5,0,0,1-3.7,4.1,4.8,4.8,0,0,1-5.1-4C543,345.1,545.9,344.9,547.6,344Z" style="fill:#a76737"/><path d="M581.4,335.8v-1.5l3.2-.2c1.7.3,3.7-.3,4.8,1.7C586.7,338.1,584.1,338.1,581.4,335.8Z" style="fill:#c37f39"/><path d="M581.4,335.8h8.1l1.6,1.6h0c1.6,3.5,1,5.9-3.4,5.8-2.4-.1-4.8-.2-7.2-.1s-5.8-.5-6-3.8,3.7-1.9,5.3-3.5Z" style="fill:#eea655"/><path d="M579.8,335.8c-.7,2.1-4.9.9-4.1,4s3.8,2.8,6.1,2.4,9.3,2.9,9.3-4.8c.5.6,1.3,1,1.6,1.7s4.3,3.8,2.7,6.2-4.8,0-7-.5a29.2,29.2,0,0,0-8.8-.8c-3.8.1-6.8-1.5-6.7-5.2S577.2,336.2,579.8,335.8Z" style="fill:#c37f39"/><path d="M591.1,337.4a12.1,12.1,0,0,1-1.6-1.6A12.1,12.1,0,0,0,591.1,337.4Z" style="fill:#c37f39"/><path d="M641.3,334.3h6.1c2.2,1.9,5,3.6,1.9,6.9-1.4,1.6-3,3.4-5.2,1.3S637.9,338.5,641.3,334.3Z" style="fill:#cfd0cf"/><path d="M620.3,345.6l1.5-1.6h4.7c1,1.8,1.5,3.6-1.1,4.4S620.5,349.3,620.3,345.6Z" style="fill:#a4a3a4"/><path d="M122.6,334.4c3,.1,6.9-1.4,9.2.7s3.5,8.1,8.1,10c.2,0,0,1.6-.5,2.1s-4.2,2.2-5.8.9c-4-3.2-8.6-2.3-13-2.7s-6,1.7-8.9,3-4,1.1-5.3-.4.9-3.1,1.6-4.7C110.8,337,114.3,332,122.6,334.4Z" style="fill:#b77233"/><path d="M158.3,332.6c1.7.2,5-.6,4.5,2.5s-4.9,2.1-7.2,3.5a2.1,2.1,0,0,1-3.3-2.1C152.5,333,155.2,332.6,158.3,332.6Z" style="fill:#b8784c"/><path d="M578.2,142.1v-1.6c1.3,0,2.5.2,3.2,1.6Z" style="fill:#171717"/><path d="M122.8,342.3H118c-1.4-.1-2.7-.7-2.9-2.2a3.2,3.2,0,0,1,2.4-3.7,10.5,10.5,0,0,1,4.7-.5c2.9.3,7.8-1.4,7.9,2.9S125.1,341.8,122.8,342.3Z" style="fill:#eca455"/></svg>