<?xml version="1.0" encoding="UTF-8"?>
<svg width="31px" height="30px" viewBox="0 0 31 30" version="1.1" xmlns="http://www.w3.org/2000/svg" xmlns:xlink="http://www.w3.org/1999/xlink">
    <!-- Generator: Sketch 50.2 (55047) - http://www.bohemiancoding.com/sketch -->
    <title>email_c</title>
    <desc>Created with Sketch.</desc>
    <defs></defs>
    <g id="Welcome" stroke="none" stroke-width="1" fill="none" fill-rule="evenodd">
        <g id="HOME" transform="translate(-173.000000, -4475.000000)" fill="#2A2240">
            <g id="Contact" transform="translate(-99.000000, 3494.000000)">
                <g id="BG">
                    <g id="Logos" transform="translate(236.000000, 981.000000)">
                        <path d="M51.7391304,29.826087 C43.3347969,29.826087 36.5217391,23.2855515 36.5217391,15.2173913 C36.5217391,7.14923108 43.3347969,0.608695652 51.7391304,0.608695652 C60.143464,0.608695652 66.9565217,7.14923108 66.9565217,15.2173913 C66.9565217,23.2855515 60.143464,29.826087 51.7391304,29.826087 Z M43.1888587,10.3373931 L51.7655251,18.3239566 L60.2608696,10.3373931 L43.1888587,10.3373931 Z M42.6086957,11.4997531 L42.6086957,20.1312138 L47.3553339,15.8567162 L42.6086957,11.4997531 Z M60.8695655,11.4358307 L55.9930088,15.8447573 L60.8695652,20.1312135 L60.8695655,11.4358307 Z M55.1854157,16.5696994 L51.7458374,19.7747402 L48.254189,16.5696994 L43.2060297,21.3043478 L60.2856451,21.3043478 L55.1854157,16.5696994 Z" id="email_c"></path>
                    </g>
                </g>
            </g>
        </g>
    </g>
</svg>