<svg id="Layer_1" xmlns="http://www.w3.org/2000/svg" viewBox="0 0 186.1 177.9"><style>.st2{fill:#fff}</style><radialGradient id="SVGID_1_" cx="102.235" cy="105.072" r="100.271" fx="201.799" fy="93.185" gradientUnits="userSpaceOnUse"><stop offset=".132" stop-color="#c42a2c"/><stop offset="1" stop-color="#f15a24"/></radialGradient><path d="M139.4 157.4c-36.2 27.5-87.9 20.4-115.4-15.8S3.6 53.8 39.8 26.3 127.6 5.8 155.1 42c27.5 36.3 20.5 87.9-15.7 115.4z" fill="url(#SVGID_1_)"/><linearGradient id="SVGID_2_" gradientUnits="userSpaceOnUse" x1="2.988" y1="89.471" x2="183.166" y2="89.471"><stop offset=".132" stop-color="#c42a2c"/><stop offset="1" stop-color="#f15a24"/></linearGradient><path d="M171.9 91.6c-.5-12.9-4.1-25.3-10.1-35.7-5.5-10.9-13.4-20.3-22.7-27.2-9.2-6.9-19.7-11.2-29.9-13.1-4.5-.8-9.8-1.5-15.6-1.6-5.8-.1-11.9.4-17.9 1.7-3 .6-5.9 1.5-8.8 2.5-1.4.6-2.8 1.1-4.1 1.7-1.3.6-2.7 1.2-3.9 1.9-5 2.6-9.2 5.7-12.4 8.8.8-.5 1.6-1 2.3-1.5.8-.5 1.5-1 2.2-1.4-1 .7-2 1.6-2.9 2.3-.9.8-1.7 1.6-2.5 2.3C34.4 40.9 26 52.5 21.2 65.5c-4.8 13-5.9 27.4-3 41.3.2 1 .5 2 .7 2.9.3.9.6 1.8.9 2.6.3.9.7 1.7 1 2.6.2.4.3.9.5 1.4.2.5.4.9.6 1.4 1.5 3.9 3.4 7.7 5.6 11.2v-.2c4.5 7.3 10.2 13.8 17 18.9 6.7 5.2 14.5 9.1 22.9 11.6 7.8 2.4 16 3.7 24.2 3.5.8 0 1.3 0 1.8.1.5 0 .8.1 1.2.2.7.1 1.2.3 2.2.3 4.2 0 7.8-.3 11.6-.9 3.8-.6 7.6-1.7 12-3.5 0 0 .1.3.2.5 1.3-.6 2.5-1.3 3.5-1.7-.8.9-2 2.1-3.3 3.1-.7.5-1.3 1-1.9 1.4-.6.4-1.1.8-1.6 1.1-.8.6-1.2 1.1-.5 1.1s2.4-.2 5.5-1.3c-.6.4-1.2.7-1.8 1-.1 0-.1.1-.2.1-2.7 1.5-4.4 2.4-6 3.6 1.9-.6 3.8-1.4 5.7-2.1-.3.4-.4.7-.1.8-.1.1-.3.2-.4.3l-1.6.6c-.2.2-.4.4-.5.6-1.2.6-2.6 1.3-4 1.9-1.4.6-2.9 1.1-4.1 1.6-2.5.9-4.1 1.5-3.2 1.7.7 0 2-.2 3.6-.7.8-.2 1.8-.6 2.7-.9 1-.3 2-.7 3.1-1.1.3 0 .6-.1.9-.1-5.6 2.1.4 1.2-3 2.5-4.7 1.4-9.4 2.6-14.3 3.1-4.9.6-9.7.7-14.4.5-4.7-.2-9.2-.8-13.7-1.7-4.5-.9-8.9-2.2-13.2-3.8-4.4-1.6-8.7-3.6-12.9-6.1-.8-.4-1.5-.8-2.2-1.3-4.1-2.5-7.8-5.4-11.2-8.5-3.4-3.1-6.6-6.5-9.4-10.2.5.4.9.8 1.4 1.2-4.7-5.9-8.7-12.3-12-19-4.2-8.2-6.9-17.3-8.2-26.7-1.2-9.4-.8-19.2 1.4-29 2.4-10.2 6.6-19.8 12.2-28.5 5.7-8.7 12.9-16.5 21.6-22.9-7 5.4-13.1 11.7-18.5 18.9l-1.8 2.4c-.6.8-1.1 1.7-1.7 2.5-.6.8-1.1 1.7-1.6 2.5s-1 1.7-1.5 2.5c.5-.9 1.1-1.7 1.6-2.6l.8-1.3.8-1.2c.6-.8 1.1-1.6 1.7-2.5.6-.8 1.2-1.6 1.7-2.4 4.7-6.2 10.4-11.6 16.2-16.2C42 18 47.9 14.2 53.1 11c1.3-.4 1.3-.3 2.5-.7 4.1-1.7 8.4-3 12.5-4.1 4.2-1.1 8.2-1.8 12-2.6 0-.2 3.8-.5 2.5-.7.5 0 1-.1 1.5-.1s1-.1 1.5-.1c1 0 2-.1 3-.1 2.1 0 4.2 0 6.2.1 2.1.1 4.2.3 6.2.5 1 .1 2 .3 3 .4.5.1 1 .1 1.5.2s1 .2 1.5.2c.8.1 1.7.3 2.5.4l2.5.4c1.7.3 3.3.6 5 .9 27 7.6 50.7 28.3 61.2 57.8 2.6 7.3 4.2 16.2 4.5 24.1-1.1-11.5-4.3-23.1-9.7-33.7-4.6-10.6-11.4-19.7-18.3-25.5l-2.4-2.1c-.8-.7-1.6-1.3-2.5-2 9.7 8.2 17.6 18.3 23.2 29.5 2.8 6.2 4.8 12.9 6.2 19.6 0-.1-.1-.3-.1-.4-1.3-5.2-3.1-10.3-5.3-15.2-1.9-4.7-4.1-9.2-6.6-13.3-2.6-4-5.3-7.6-8.2-10.6-.7-.8-1.5-1.5-2.2-2.1-1.5-1.5-3.1-2.8-4.6-4.2 5.7 5.3 10.7 11.2 14.9 17.6 2.6 4 4.9 8.2 6.8 12.6 1.1 2.8 2 5.7 2.9 8.6-.1-.3-.3-.6-.4-.9-.5-1.2-1.8-3.4-2.9-4.8-1.2-1.3-2.1-1.8-1.6 0 1.7 4.6 3.3 9.8 4.4 15 1.1 5.2 1.6 10.5 1.8 15.2.1 4.7-.1 8.8-.4 11.6-.1 1.4-.3 2.6-.4 3.4-.1.4-.1.7-.1.9 0 .2-.1.3-.1.3-.1.1-.1-.3-.1-1.1s.2-2 .2-3.5c.1-1.5.2-3.2.2-5.1.1-1.9 0-3.9-.1-5.9-.3-8.1-2.1-15.9-2.1-15.2.1.9.3 1.8.4 2.8l.3 2.8c-.4-1.7-.7-3.4-1.2-4.9-.2-.9-.4-1.9-.6-2.9-.2-1-.5-2-.7-3-.5-2-1.1-3.7-1.6-4.9-1.8-4-3.7-8.2-5.9-12.4-2.2-4.2-4.9-8.4-8.1-12.1-1-1.2-2.1-2.3-3.3-3.5-1.2-1.2-2.4-2.3-3.7-3.5-2.7-2.3-5.5-4.5-8.5-6.5-.1.1-.8-.4-1.4-.8-.6-.4-1.1-.7-.8-.2-1.3-1-2.7-2.1-4.1-3-.7-.5-1.4-.9-2.1-1.4l-2.1-1.2c-1.4-.8-2.7-1.3-3.8-1.8-1.1-.5-2.1-.7-2.9-.8-.1-.1-.3-.1-.4-.2-.4-.2-1-.4-1.7-.7-5-2.3-9.5-3.6-13.9-4.3-4.4-.8-8.8-1.1-13.7-1.1-3.4-.2-6.8-.1-10.3.1 1.1-.1 2.6 0 4-.1 1.4.1 2.9.1 4 0h2.3c4.3.2 8.6.7 12.7 1.4 4.1.8 8.2 1.9 12.2 3.3.7.2 1.8.4 2.8.7.6.3 1.1.5 1.6.8h.5c7.6 3 15.2 8.2 20.6 12.7 2.5 2.1 4.9 4.5 7.1 7 2.2 2.6 4.3 5.3 6.1 8.2 3.7 5.8 6.7 12 8.8 18.4-2.4-6.3-5.6-12.1-9.4-17.3 1.2 1.6 2.2 3.3 3.2 5 .9 1.7 2 3.4 2.8 5.1 1.8 3.4 3.2 6.9 4.4 10.4l.9 3.3s.4 1.7.8 3.5c.3 1.8.6 3.5.6 3.5-.2-1.1-.3-2.2-.5-3.3-.2-1.1-.4-2.2-.6-3.2 1.3 4.3 2.1 8.6 2.7 12.9.7 6 .7 12.1 0 18.2s-2.1 12.2-4.2 18c-4.1 11.7-11.2 22.4-20.1 30.9.2-.5.4-1 .7-1.6 4.1-4.2 7.8-8.9 10.7-13.7 2.9-4.8 5.1-9.7 6.4-14.3-1.3 3.1-2.4 5.7-3.7 8.2-.6 1.3-1.3 2.5-2 3.8-.4.6-.7 1.3-1.1 1.9-.4.6-.9 1.3-1.3 2-.1-.1-.2-.1 0-.6-2.1 3.6-5 7.5-8.2 11 .7-1.4 1.5-3 2.2-4.6.6-1 1.5-2.2 2.4-3.5.5-.7 1-1.3 1.4-2.1.5-.7.9-1.5 1.4-2.2 2-3.2 3.8-6.5 5.4-9.9.8-1.7 1.5-3.4 2.2-5.1.6-1.7 1.3-3.4 1.8-5.2 2.2-7 3.3-14.3 3.4-21.7.2-6.6-.2-13.2-1.6-19.7-1.4-6.4-3.5-12.7-6.3-18.5 3.1 5.7 5.3 11.5 6.9 17.4 1.5 6 2.5 11.9 2.8 17.8zm-72.6 77.3c-.6.1-1.1.2-1.7.3l-1.8.3c.2 0 .4.1.5.1 1.2-.1 2.2-.4 3-.7zm-26-1.3c3.7 1 8.2 1.6 12.9 1.7 4.7.1 9.7-.3 14.5-1.1 0-.1.1-.1.1-.1-4 .5-8.6.9-13.2.9-4.8-.1-9.7-.5-14.3-1.4zm-25.8-15.1l.1.1v-.1c0 .1 0 0-.1 0zM33.7 35.3c-3 3.5-6.1 7.5-9 12.1-2.9 4.5-5.6 9.6-7.5 14.9-1.3 3.2-1.7 6.5-2.8 10.9-.6 2.7-.9 5-1 7-.1 1-.2 2-.2 3.1-.1 1-.1 2.1-.1 3.2 0 0 0-.2.1-.5s.1-.7.2-1.1l.4-1.6c-.7 3.7-.6 6.7-.3 9.7.2 1.5.3 3 .5 4.6.1.8.2 1.6.2 2.5l.3 2.7c.2 0 .7 1 .9 2.1 1.1 5.3 2.3 10.6 4.3 14.5 2.1 5 4.7 9.7 7.4 13.2.6.9 2.3 2.4 3.7 4l2.5 3 2.7 2.9c0-.1-.1-.2-.1-.3l-2.1-2.4-2.1-2.4c-4.3-4.8-8.4-11.2-11-17.1-6.4-14.8-8.1-30.6-5.4-45.8.6-3.2 1.2-6.6 2.2-9.7 1.4-4.8 3.8-9.9 6.4-14.4 2.6-4.5 5.4-8.4 7.2-11.3.3-.5.9-1.1 1.4-1.8.4-.8.9-1.5 1.2-2zM39 20.8c-5.2 4.1-10.2 9-14.6 14.2-4.4 5.3-8.1 10.9-11.1 16.3-1.2 2.2-2.7 5.5-4 9.3-1.3 3.8-2.4 8-3 11.8-.6 3.8-.8 7.2-.6 9.3.2 2.1.5 3 1.2 1.8-.7-3-.4-9.6 1.8-17.4 2.1-7.7 6.3-16.4 11.4-23.6 2.6-3.6 5.3-6.9 7.9-9.7 1.3-1.4 2.6-2.7 3.8-3.8 1.2-1.1 2.3-2.2 3.4-3.1 1-.9 1.9-1.7 2.6-2.4.7-.7 1.3-1.2 1.7-1.7.8-.8.7-1.2-.5-1zm100.5-4.5c-4.7-2.8-9.5-5.1-15.1-7.5 5.2 2.1 10.3 4.6 15.1 7.5zM87.1 8.7c1.9-.3 3.9-.3 5.9-.4 2 0 4 0 6 .1s4 .4 6.1.6c2 .3 4 .7 6 1.1 4 .9 8 2.1 11.8 3.6 1.9.7 3.8 1.6 5.6 2.4 1.8.9 3.6 1.8 5.4 2.8 5.4 3 10.5 7 15.1 11.4 4.5 4.4 8.5 9.1 12.1 13.4l.4-.3s-.2-.2-.4-.5c-.2-.2-.4-.5-.4-.5-.6-.9-1.2-1.8-1.8-2.6-.5-.8-1.1-1.6-1.7-2.4-1.1-1.6-2.2-3-3.4-4.4.2.1.3.3.5.5l-.8-.8c-1.6-1.9-3.4-3.7-5.7-5.6-1-.9-2.2-1.7-3.3-2.5l-1.1-.9-1.2-.9-2.4-1.7c-1.7-1.1-3.3-2.2-5-3.1-3.4-2-6.9-3.7-10.5-5.2-3.6-1.5-7.2-2.6-10.8-3.5-3.6-.8-7.2-1.4-10.7-1.7-4.3-.4-8.3-.4-12.2-.1-2 .1-3.9.4-5.9.6-2 .3-4 .6-6.1 1 .6-.1 1.3-.1 2-.2.8.1 1.5.1 2.3.1.7-.1 1.5-.1 2.2-.2.7 0 1.4-.1 2-.1z" fill="url(#SVGID_2_)"/><path class="st2" d="M40.7 126.7c.4-1 1.1-1.8 1.9-2.5h.2c.7-1.1 1.4-2.2 2.3-3.2.5-.7.5-1.1.2-1.5s1.3-3 2.8-3.9c0-.1.1-.2.2-.2.4-2.5 2.6-4.2 3.6-6.4s2.4-4.4 3.4-6.8 2.4-4.4 3.5-7c.2-.4.8-1.3.6-1.7-.1-1.4.3-2.8 1.1-4 3.2-8.1 6.8-16.2 9.1-24.7 1.5-4.7 2.8-9.6 4.3-14.5.2-.9.4-1.9.4-2.8 0-.6-.4-.8-.9-.4-.5.2-1 .6-1.4 1-2.6 2.4-5.4 4.5-7.9 7.1s-5.6 5.3-8.3 7.8c-1.3 1.3-2.5 2.7-3.6 4.1-1.2 1.6-3.3 2.2-5.2 1.5-3.2-1-6-2.8-8.3-5.3-.6-.7-.6-1.1.3-1.7 1.6-1.4 3.1-3 4.4-4.7 5.1-5.5 10.6-10.7 16.4-15.4 6.4-5.3 13-10.4 19.4-15.7.9-.9 2.2-1.3 3.4-.9 1.9.5 3.6.2 5.5.9 1.7.7 3.3 1.6 4.7 2.8 1.3 1.2 1.7 2.7.7 4-2.4 3-2.8 6.8-4.1 10.2-1.5 5.3-2.7 10.7-4.5 16s-4.2 11.9-6.6 17.7c-2.4 6.7-5.2 13.3-8.3 19.8-.8 1.9-1.7 3.8-2.5 5.5-2.1 4.5-4.5 8.7-6.6 13.2-3.4 6.6-7.3 13-11.1 19.6-2.7 4.6-5.7 9.1-8.9 13.4-1.5 1.7-2.6 3.8-4.3 5.3-3 3-7.1 4.6-11.3 4.5-6.2 0-11-2.3-15.5-6.2l-1.1-.8c-2.1-1.1-2.8-3.2-3-5.3-.3-3.6.3-7.3 1.7-10.7.5-1.5 1.1-3 1.7-4.5 2.4-5.9 5.4-11.6 8.8-17 3.5-5.5 7.4-10.8 11.7-15.8 3-3.4 6.2-6.1 9.6-9.3.5-.5 1.2-.8 1.9-.9 1.3 0 7.2.5 8.1.9.6.3 1.2.6 1.7 1 1.7 1.5 1.7 3.2-.2 4.3-1.7 1-3.3 2.1-4.7 3.4-3.5 3.4-6.8 7.2-9.8 11.1-3 4-6.2 8.1-8.5 12.5-3.4 5.7-6.1 11.8-8.1 18.1-.6 2-1 4.1-1.1 6.2v2.6c.4 2.7 1.1 3 3.4 1.7s3.2-1.9 4.7-3h.6l.7-.6v-.9l.2.2c.8-1.9 2.1-3.5 3.8-4.7 1.3-.7 2.2-2 2.6-3.4v-.2c.3.2.8.1.9-.3 0 0 0-.1.1-.1.8-1.2 1.5-2.5 2-3.8.3-1.3 1.2-2.5 2.3-3.2h-.2c.2 0 .2 0 .2-.3s0-.4-.2-.4h.2c.1-.7.5-1.4 1.1-1.7v-.2l-.2.2zm52.9-34.4c0 .2.1.4.2.5.7.2.7.7.4 1.4 0 .6-.2 1.1-.5 1.6 0 1.2.5 1.7 1.4 1.5l8.3-1h.7c2.1-.6 4.2-1 6.4-1 2.2-.6 4.6-1 6.9-1 1.4 0 2.8-.7 4.2-.9 2.3-.2 4.6-.6 6.9-1.2 1.1-.3 2.2-.9 3.1-1.6.5-.4 1.1-.4 1.6.1.1.1.1.1.1.2.2.4.4.7.7 1 1.6 2.4 1.7 5.2 3.1 7.6s-.1 2.9.3 4.3-.2.4-.2.7c-.6.5-1.4.9-2.2 1.1-3.3.5-6.6.8-9.9.9-2 0-3.9.4-5.7 1.3l.2-.3c-1.9-.5-3.5.2-5.2.6s-6.1.6-9.2 1.2-8.3 1.4-12.6 2c-.7.1-1.4.4-1.9.9-1 1.1-2.4 1.3-3.8 1.5-1.1 0-2.2 0-3.3.2-1.9.4-3.3-.8-4.2-2.3s-1.2-1.6-1.9-2.6c-.5-.6-.8-1.3-.6-2.1 0-1.4-.2-2.9-.4-4.3-.2-1 .2-2 1.1-2.5 1.1-.8 1.9-1.9 2.2-3.2 0-1 .5-1.9 1.2-2.6.5-.2.5-1.1.8-1.6.1-1.1.5-2.2 1.2-3 .8-1 .3-1.9.8-2.9-1.8-1-.2-1.6.3-2.3.4-.6.7-1.4.8-2.1.1-.8.5-1.5 1-2.1 0-.5.5-1.2.5-1.4-.6-2.6 1.3-4.5 1.8-6.8 1-.7 1-1.9.8-3.1.2-.9.4-1.7.8-2.5l.8-2.1c0-1 .3-2 .8-2.9.7-.9.7-2.3 1.2-3.5s1.1-3.9 1.8-5.8 1.1-3.8 1.8-5.4c.3-.3.3-.8.1-1.2-.3-.5-.3-.5 0-.9 1.2-1.9 2-3.9 2.3-6.1h-.2c.9-.7.7-1.9 1.2-2.8s1.2-2.1.6-3.1.3-2.8 1.3-3.9v.7c0-.3 0-.5.3-.5s.7-.4.7-1.2-.2-.9.3-1.4 1.5-2.1.8-3.5c.1-1.1.7-2.2 1.5-3 .7-.7 1.2-1.4.5-2.4s.1-3.3 2-3.9c-.4-.5-.6-1.2-.4-1.9.5-1.5.8-3.1.8-4.7.1-.7.5-1 1.5-.7 3.3.8 6.8 1.6 9.1 4.5 1.1.5.9 1.4.8 2.4 0 1.6-.3 3.2-1 4.7-1 1.6-1.8 3.5-2.1 5.4 0 .6-.2 1.2-.5 1.8-.7 1.2-1.7 2.3-1.5 3.8s-.5.7-.7 1.1-1 1.9-1.3 2.8c-.6 3.1-2 5.9-2.8 8.7s-2.6 7.7-3.9 11.7l-2.3 5.6c-.5 1.6-1 3.2-1.3 4.9-.1.8-.4 1.7-.8 2.4 0 .2-.2.4-.2.7-.5 2.1-1.3 4.2-1.8 6.5-.1.4 0 .8.2 1.2.2.3 0 .5-.3.7s-1 1.9-1.3 3c-.3 1.7-.8 3.4-1.5 5-.9 2.3-2 5-1.7 6m2.2-41.4z"/><path class="st2" d="M156.3 62.8l-.3-.9c-.2-.3-.3-.6-.3-.9 0-.2-.1-.3-.2-.4-.2-.1-.4-.1-.6 0l-.8.6c-1.2 1.1-2.4 2.3-3.5 3.5-1.1 1.2-2.2 2.4-3.2 3.7l-2.7 3.6-2.8 3.6-.5.7c-.1.2-.4.4-.7.4-.2-.1-.3-.4-.3-.6.1-.3.1-.5 0-.8-.1-.5-.2-1-.2-1.5v-1.5c0-.3 0-.5-.1-.8 0-.3 0-.5-.1-.8 0-.5-.1-1-.2-1.5-.2-.4-.2-1 0-1.4.2-.5.5-1 .9-1.3.4-.3.8-.7 1.1-1.1.8-.9 1.5-1.9 2.1-2.9.6-1 1-2.2 1.2-3.4.1-.4.1-.7.1-1.1-.1-.4-.3-.8-.6-1.1-.2-.2-.3-.4-.3-.6-.1-.2-.1-.5-.2-.7-.2-.3-.4-.5-.7-.6-.3 0-.6.2-.8.4l-2 1.8c-.7.6-1.4 1.2-2 1.9l-.2.2c-.1 0-.2.1-.2.2-.2.2-.6.3-.8.1l-.1-.1c-.1-.3-.4-.5-.6-.8l-1.3-1c-.5-.2-1.1-.2-1.6-.1h-2.7l-.8.3c-.3.2-.5.5-.5.9.1.1.1.3.2.4l.2.5c.3.9.5 1.8.8 2.7l.6 2.7c.1.5.1.9 0 1.4-.4.7-.8 1.3-1.3 1.9-.4.4-.7.9-.8 1.5-.7 1.2-1.3 2.5-1.8 3.2s-2.4 2.4-3.8 4.5l-1.8 2.6c.2-1.3.5-2.6.9-3.8.5-1.2.9-2.5 1.2-3.8.1-.4.2-.8.4-1.2.1-.4.3-.8.4-1.2s.5-1.7.7-2.4c.2-.8.4-1.6.7-2.4l.3-1.2.3-1.1c.2-.6.1-1.3-.2-1.8-.4-.5-1-.7-1.6-.7h-.9c-.4.1-.7.3-1 .6l-.8.7c-.2.2-.4.1-.6-.1-.8-.7-1.7-1.3-2.8-1.5-1.1-.2-2.2-.1-3.2.2l-.4.2-.4.2c-3.6 1.2-6.6 3.9-8.1 7.4l-2.2 5.1c-.7 1.6-1.3 3.4-1.9 5.1-.3.9-.5 1.8-.5 2.7-.1.9-.1 1.7 0 2.6.2 1.4.8 2.6 1.9 3.5.4.5 1 .9 1.6 1.1l1.7.7c1.1.4 2.3.3 3.3-.3l1.2-.7c.3-.3.7-.5 1.1-.7.2-.1.3-.2.4-.4l.4-.4.8-1.3.6-1.5.4-.2.3.2c.6 1.1 1.5 2 2.7 2.5h.3l.3.2c.7.2 1.5.2 2.2 0 .7-.2 1.3-.5 1.9-.9l1.4-1.2 1.2-1.3 2.7-2.9c.8-1 1.7-1.9 2.6-2.9l.4-.6c.2-.2.4-.3.6-.3.3 0 .5.3.4.6-.1.2-.1.5-.1.7v1c.1.8.3 1.6.7 2.3.5.8 1.1 1.4 1.9 1.8 1.5.9 3.3 1.2 5.1 1 2-.2 3.8-1.3 4.9-3 .7-1.1 1.5-2.2 2.3-3.2l2.5-3.3 1.4-2.1L153 70l1.5-2.2c.6-.7 1-1.5 1.3-2.4.2-.4.4-.9.5-1.4v-1.2zm-37.9 8l-1.2 2.8v.5l-.2.4c-.7.9-1.2 1.9-1.7 2.9-.4 1.1-.9 2.1-1.5 3.1-1.1 2-2.6 3.6-4.5 4.8h-.5c-.1-.1-.2-.2-.2-.4 0-.8.1-1.5.1-2.3.1-.8.3-1.5.6-2.2l.9-2.3c.3-.7.5-1.5.8-2.4.1-.4.2-.8.4-1.2l.6-1.2c.4-1.3.9-2.6 1.5-3.9l1.9-3.8c.2-.3.4-.6.5-1 .2-.4.5-.7.9-.9l.7-.3c.2 0 .4.1.6.3.4.4.8.8 1.1 1.3.3.5.5 1.1.6 1.7v.7l-.3.5c-.4 1-.8 1.9-1.1 2.9zm-42.6 76.9c-.2-.3-.7-.4-.5-.8.5-.5 1.1-.9 1.8-1.1.7-.1 1.4-.4 1.9-.9l-.3-.6c1.1-.4 2.3-.8 3.5-1.1.9-.7 1.8-1.3 2.8-1.8l1.4-.9 1.3-.8c-.1-.2-.2-.4-.1-.6l1.4-.6.8-.3.9-.2.5-.3c.1-.2.1-.3 0-.5l1.6-.4c6.5-3.4 13.4-6 20.6-7.7 1.6-.7 3.2-1.3 4.9-1.7h4l4 .3c-.4-2.4 5.5-3.4 4.4-5.7 1.6.1 4.1.3 4.2-.4s1.9-4.1 6.4-5c1.8-.1 4.4.9 5.2.6.1 0 .2 0 .2-.2 0-.1 0-.2-.1-.2-.1-.2-.5-.4-.8-.6s-1.1-.8-.5-1.1c-6.4-.9-12.9-1.3-19.4-1.2-6.4.1-12.9.5-19.6 1.2-2.3.9-11 2-20.5 5.3-2.4.8-4.7 1.8-7 3-1.2.5-2.1 1.1-3.1 1.6l-2.9 1.6c-1.8 1.1-3.5 2.1-4.9 3.1L66 131l-1.5 1.1-.6.5c-3.7 2.7-7.6 6.8-9.4 10.4-.8 1.7-1.4 3.6-1.9 5.4.7-.4 1.5-.8 2.3-1.1-1.2 1.3-2.2 2.8-2.2 3.6-1.2 3.8 1 2.5 3 2.2s1.3 1.2 2.7.3l-1.5 2.2c.3.2.6-.5 1-1.1s.8-1.2 1-.6-1 1.8-1.5 2.7 2.1-2.8 2.7-2.2-2.5 1.8-1.6 2.5.7-.7.9-1.1c-.6 1.4-.9 2.6-.6 3.1s.8.6 1.9-.2l-.9 1.2c-.3.3-.5.7-.6 1.1v-.2l.3-.3.4-.7-.6 1.3h.5l.7-.9c-.1.3-.3.5-.5.8l1.3-.2c1.1-.7 2.6-1.2 2.9-1.7 1.7-2.1 3.4-4 5.3-5.9l3-2.8 3.3-2.7z"/></svg>