<?xml version="1.0" encoding="UTF-8"?>
<svg width="94px" height="104px" viewBox="0 0 94 104" version="1.1" xmlns="http://www.w3.org/2000/svg" xmlns:xlink="http://www.w3.org/1999/xlink">
    <!-- Generator: Sketch 50.2 (55047) - http://www.bohemiancoding.com/sketch -->
    <title>Path 3</title>
    <desc>Created with Sketch.</desc>
    <defs></defs>
    <g id="Page-1" stroke="none" stroke-width="1" fill="none" fill-rule="evenodd" stroke-linecap="square" stroke-linejoin="round">
        <path d="M29.012709,44.9204866 C29.012709,44.9204866 15.876597,44.3205078 17.3649713,36.2540324 C17.9977561,32.8245569 23.8736088,32.648167 30.1678457,26.6616304 C40.9917547,16.3668595 42.7360705,6.7025793 42.7360705,6.7025793 C42.7360705,6.7025793 42.7360712,66.0536255 42.7360712,78.5627747 C42.7360712,91.0719238 36.2276379,103.908802 19.529205,101.756813 C2.83077212,99.6048239 -1.08127965,85.5629956 4.19157069,75.1387076 C9.46442102,64.7144196 18.4191397,57.2685098 46.9499355,52.0590115 C75.4807313,46.8495132 80.742747,43.5537455 86.6598421,37.0587706 C94.2627156,28.7133794 95.7567807,6.77676173 81.1430534,2.96877016 C66.5293261,-0.839221413 55.7322278,7.80768938 55.7322278,7.80768938 L55.7322278,59.484375 L55.7322278,94.6342773 C61.6987305,95.3286133 73,71.1387076 73,71.1387076 C73,71.1387076 83.746582,90.7192383 90.7205811,90.6342773 L90.7205811,44.5727539" id="Path-3" stroke="#363A4D" stroke-width="3"></path>
    </g>
</svg>